%TF.GenerationSoftware,KiCad,Pcbnew,8.0.4*%
%TF.CreationDate,2024-11-23T17:51:10-05:00*%
%TF.ProjectId,Ruler_PowerCouple,52756c65-725f-4506-9f77-6572436f7570,rev?*%
%TF.SameCoordinates,Original*%
%TF.FileFunction,Copper,L2,Bot*%
%TF.FilePolarity,Positive*%
%FSLAX46Y46*%
G04 Gerber Fmt 4.6, Leading zero omitted, Abs format (unit mm)*
G04 Created by KiCad (PCBNEW 8.0.4) date 2024-11-23 17:51:10*
%MOMM*%
%LPD*%
G01*
G04 APERTURE LIST*
%TA.AperFunction,ViaPad*%
%ADD10C,0.600000*%
%TD*%
%TA.AperFunction,Conductor*%
%ADD11C,0.254000*%
%TD*%
%TA.AperFunction,Conductor*%
%ADD12C,0.300000*%
%TD*%
%TA.AperFunction,Conductor*%
%ADD13C,0.200000*%
%TD*%
%ADD14C,0.300000*%
%ADD15C,0.350000*%
G04 APERTURE END LIST*
D10*
%TO.N,GND*%
X148950000Y-104400000D03*
X214600000Y-95250000D03*
X135250000Y-98800000D03*
X198150000Y-90900000D03*
X135700000Y-93600000D03*
X138650000Y-98750000D03*
X214500000Y-99600000D03*
X206650000Y-103600000D03*
X141900000Y-104400000D03*
X126000000Y-92650000D03*
X152475000Y-104400000D03*
X153150000Y-98750000D03*
X201350000Y-101600000D03*
X187087310Y-103169160D03*
X164497800Y-101632974D03*
X84770437Y-83050744D03*
X113300000Y-92950000D03*
X104875000Y-92950000D03*
X188700000Y-101050000D03*
X88100000Y-106050000D03*
X220250000Y-105750000D03*
X215200000Y-103000000D03*
X217200000Y-89300000D03*
X149500000Y-98750000D03*
X74300000Y-90700000D03*
X78275000Y-100625000D03*
X98000000Y-100800000D03*
X193100000Y-102600000D03*
X145425000Y-104400000D03*
X193100000Y-100800000D03*
X109025000Y-92950000D03*
X156000000Y-104400000D03*
X117550000Y-92950000D03*
X102700000Y-95100000D03*
X91600000Y-85600000D03*
X101150000Y-100775000D03*
X80850000Y-103625000D03*
X84200000Y-90700000D03*
X189100000Y-83450000D03*
X96700000Y-106050000D03*
X145850000Y-98800000D03*
X175900000Y-102500000D03*
X142250000Y-98800000D03*
X217300000Y-81600000D03*
X207750000Y-99400000D03*
X183250000Y-103550000D03*
X188475000Y-103950000D03*
X209700000Y-103350000D03*
X204400000Y-101100000D03*
X121700000Y-92950000D03*
X107900000Y-106000000D03*
X132550000Y-81550000D03*
X76400000Y-106050000D03*
X132540000Y-104580000D03*
X92300000Y-81200000D03*
X205850000Y-90550000D03*
X73600000Y-82600000D03*
X189750000Y-89550000D03*
%TO.N,3.3V*%
X206900000Y-100250000D03*
X182700000Y-101000000D03*
X193050000Y-103650000D03*
X187150000Y-99900000D03*
X219950000Y-94050000D03*
%TO.N,MCU_PD2*%
X207850000Y-96100000D03*
X157550000Y-104400000D03*
%TO.N,MCU_PD3*%
X203551473Y-96700000D03*
X153950000Y-104400000D03*
%TO.N,MCU_PD4*%
X204443161Y-96700000D03*
X150450000Y-104400000D03*
%TO.N,MCU_PD5*%
X200000000Y-103100000D03*
X146800000Y-104400000D03*
%TO.N,MCU_PD6*%
X200000000Y-104000000D03*
X143104343Y-104445657D03*
%TO.N,MCU_PD7*%
X139450000Y-104350000D03*
X200000000Y-104900000D03*
%TO.N,/Display/SG_C*%
X128780000Y-86750000D03*
X90750000Y-97000000D03*
X121250000Y-86750000D03*
X99250000Y-86750000D03*
X106500000Y-86750000D03*
X114000000Y-86750000D03*
%TO.N,/Display/SG_A*%
X128780000Y-84000000D03*
X99250000Y-84250000D03*
X106596000Y-84250000D03*
X121414000Y-84250000D03*
X113962000Y-84250000D03*
X91500000Y-93000000D03*
%TO.N,/Display/SG_B*%
X130150000Y-84850000D03*
X115500000Y-84850000D03*
X122850000Y-84850000D03*
X100770000Y-84850000D03*
X108172000Y-84850000D03*
X90250000Y-95750000D03*
%TO.N,/Display/SG_D*%
X111000000Y-87500000D03*
X125750000Y-87500000D03*
X118250000Y-87500000D03*
X103716000Y-87500000D03*
X96250000Y-87500000D03*
%TO.N,/Display/SG_E*%
X102250000Y-88250000D03*
X95000000Y-88250000D03*
X117000000Y-88250000D03*
X124500000Y-88250000D03*
X109500000Y-88250000D03*
%TO.N,/Display/SG_F*%
X96350000Y-83500000D03*
X125900000Y-83500000D03*
X90750000Y-100750000D03*
X103650000Y-83550000D03*
X118534000Y-83500000D03*
X111082000Y-83500000D03*
%TO.N,/Display/SG_G*%
X102276000Y-83000000D03*
X94925000Y-83000000D03*
X117075000Y-82900000D03*
X124465664Y-82885957D03*
X90750000Y-102000000D03*
X109642000Y-82900000D03*
%TO.N,/Display/SG_DP*%
X130220000Y-86000000D03*
X98100000Y-103300000D03*
X122750000Y-86000000D03*
X100250000Y-91250000D03*
X108000000Y-86000000D03*
X100750000Y-86000000D03*
X115500000Y-86000000D03*
%TO.N,MCU_TX*%
X99850000Y-92450000D03*
X211300000Y-92350000D03*
%TO.N,ACC_SDA*%
X213150000Y-97650000D03*
X184750000Y-98650000D03*
%TO.N,ACC_SCL*%
X186700000Y-98600000D03*
X211800000Y-97750000D03*
%TO.N,MCU_A0*%
X80400000Y-104600000D03*
X210750000Y-102150000D03*
%TO.N,MCU_A1*%
X211500000Y-101600000D03*
X82600000Y-103800000D03*
%TO.N,MCU_PE3*%
X209150000Y-102700000D03*
X71026000Y-103076000D03*
%TO.N,/Display/GR5*%
X126750000Y-91250000D03*
X101120000Y-99520000D03*
%TO.N,SW*%
X129600000Y-92650000D03*
X208850000Y-86850000D03*
%TO.N,SD_CS*%
X193500000Y-93900000D03*
X211900000Y-89000000D03*
%TO.N,SD_MOSI*%
X194600000Y-93700000D03*
X209000000Y-89100000D03*
%TO.N,SD_MISO*%
X199200000Y-90900000D03*
X211200000Y-88300000D03*
%TO.N,SD_SCK*%
X212527000Y-89577000D03*
X196800000Y-91000000D03*
%TO.N,Net-(SW9-B)*%
X103500000Y-94250000D03*
X138650000Y-99950000D03*
%TD*%
D11*
%TO.N,GND*%
X187868150Y-103950000D02*
X187087310Y-103169160D01*
X188475000Y-103950000D02*
X187868150Y-103950000D01*
D12*
%TO.N,3.3V*%
X212930761Y-100250000D02*
X219130761Y-94050000D01*
X219130761Y-94050000D02*
X219950000Y-94050000D01*
X206900000Y-100250000D02*
X212930761Y-100250000D01*
D11*
X183800000Y-99900000D02*
X182700000Y-101000000D01*
X187150000Y-99900000D02*
X183800000Y-99900000D01*
X193050000Y-103550000D02*
X193050000Y-103650000D01*
X187150000Y-99900000D02*
X189400000Y-99900000D01*
X189400000Y-99900000D02*
X193050000Y-103550000D01*
D13*
%TO.N,MCU_PD2*%
X203251471Y-96100000D02*
X207850000Y-96100000D01*
X157800000Y-104650000D02*
X194701471Y-104650000D01*
X194701471Y-104650000D02*
X203251471Y-96100000D01*
X207850000Y-96100000D02*
X207900000Y-96100000D01*
X157550000Y-104400000D02*
X157800000Y-104650000D01*
%TO.N,MCU_PD3*%
X153950000Y-104400000D02*
X153950000Y-104550000D01*
X203500000Y-96700000D02*
X203100000Y-97100000D01*
X203551473Y-96700000D02*
X203500000Y-96700000D01*
X195150000Y-105050000D02*
X203500000Y-96700000D01*
X153950000Y-104550000D02*
X154450000Y-105050000D01*
X154450000Y-105050000D02*
X195150000Y-105050000D01*
%TO.N,MCU_PD4*%
X150450000Y-104400000D02*
X151500000Y-105450000D01*
X151500000Y-105450000D02*
X195650000Y-105450000D01*
X195650000Y-105450000D02*
X204400000Y-96700000D01*
X204400000Y-96700000D02*
X204443161Y-96700000D01*
%TO.N,MCU_PD5*%
X146800000Y-104600000D02*
X148050000Y-105850000D01*
X197250000Y-105850000D02*
X200000000Y-103100000D01*
X146800000Y-104400000D02*
X146800000Y-104600000D01*
X148050000Y-105850000D02*
X197250000Y-105850000D01*
%TO.N,MCU_PD6*%
X197750000Y-106250000D02*
X200000000Y-104000000D01*
X143104343Y-104604343D02*
X144750000Y-106250000D01*
X143104343Y-104445657D02*
X143104343Y-104604343D01*
X144750000Y-106250000D02*
X197750000Y-106250000D01*
%TO.N,MCU_PD7*%
X141800000Y-106650000D02*
X198250000Y-106650000D01*
X139450000Y-104350000D02*
X139500000Y-104350000D01*
X139500000Y-104350000D02*
X141800000Y-106650000D01*
X198250000Y-106650000D02*
X200000000Y-104900000D01*
X200000000Y-104900000D02*
X200000000Y-104800000D01*
%TO.N,/Display/SG_C*%
X90850000Y-95900000D02*
X90850000Y-96900000D01*
X93750000Y-88401471D02*
X93750000Y-93000000D01*
X95401471Y-86750000D02*
X93750000Y-88401471D01*
X121250000Y-86750000D02*
X128780000Y-86750000D01*
X90850000Y-96900000D02*
X90750000Y-97000000D01*
X99250000Y-86750000D02*
X95401471Y-86750000D01*
X99250000Y-86750000D02*
X106500000Y-86750000D01*
X106500000Y-86750000D02*
X114000000Y-86750000D01*
X114000000Y-86750000D02*
X121250000Y-86750000D01*
X93750000Y-93000000D02*
X90850000Y-95900000D01*
%TO.N,/Display/SG_A*%
X106500000Y-84250000D02*
X106596000Y-84250000D01*
X96000000Y-84250000D02*
X99250000Y-84250000D01*
X106400000Y-84150000D02*
X106500000Y-84250000D01*
X91500000Y-93000000D02*
X92250000Y-92250000D01*
X114062000Y-84150000D02*
X113962000Y-84250000D01*
X92250000Y-88000000D02*
X96000000Y-84250000D01*
X121514000Y-84150000D02*
X121414000Y-84250000D01*
X113826000Y-84114000D02*
X113962000Y-84250000D01*
X128630000Y-84150000D02*
X121514000Y-84150000D01*
X128780000Y-84000000D02*
X128630000Y-84150000D01*
X99250000Y-84250000D02*
X99350000Y-84150000D01*
X121414000Y-84250000D02*
X121314000Y-84150000D01*
X121314000Y-84150000D02*
X114062000Y-84150000D01*
X106596000Y-84250000D02*
X106732000Y-84114000D01*
X99350000Y-84150000D02*
X106400000Y-84150000D01*
X92250000Y-92250000D02*
X92250000Y-88000000D01*
X106732000Y-84114000D02*
X113826000Y-84114000D01*
%TO.N,/Display/SG_B*%
X90250000Y-95250000D02*
X90250000Y-95750000D01*
X108172000Y-84850000D02*
X108250000Y-84850000D01*
X93000000Y-88250000D02*
X93000000Y-92500000D01*
X115500000Y-84850000D02*
X108250000Y-84850000D01*
X96400000Y-84850000D02*
X93000000Y-88250000D01*
X93000000Y-92500000D02*
X90250000Y-95250000D01*
X122850000Y-84850000D02*
X130150000Y-84850000D01*
X100770000Y-84850000D02*
X108250000Y-84850000D01*
X115500000Y-84850000D02*
X122850000Y-84850000D01*
X100770000Y-84850000D02*
X96400000Y-84850000D01*
%TO.N,/Display/SG_D*%
X103716000Y-87500000D02*
X111000000Y-87500000D01*
X111000000Y-87500000D02*
X118250000Y-87500000D01*
X125750000Y-87500000D02*
X118250000Y-87500000D01*
X96250000Y-87500000D02*
X103716000Y-87500000D01*
%TO.N,/Display/SG_E*%
X95000000Y-88250000D02*
X101750000Y-88250000D01*
X101750000Y-88250000D02*
X102250000Y-88250000D01*
X117000000Y-88250000D02*
X124500000Y-88250000D01*
X101750000Y-88250000D02*
X109500000Y-88250000D01*
X109500000Y-88250000D02*
X117000000Y-88250000D01*
%TO.N,/Display/SG_F*%
X103650000Y-83550000D02*
X103600000Y-83600000D01*
X118534000Y-83500000D02*
X111082000Y-83500000D01*
X90750000Y-100750000D02*
X90804165Y-100804165D01*
X96450000Y-83600000D02*
X96350000Y-83500000D01*
X111032000Y-83550000D02*
X111082000Y-83500000D01*
X91500000Y-83750000D02*
X96100000Y-83750000D01*
X90750000Y-100750000D02*
X87250000Y-97250000D01*
X103600000Y-83600000D02*
X96450000Y-83600000D01*
X87250000Y-88000000D02*
X91500000Y-83750000D01*
X96100000Y-83750000D02*
X96350000Y-83500000D01*
X87250000Y-97250000D02*
X87250000Y-88000000D01*
X125900000Y-83500000D02*
X118534000Y-83500000D01*
X103650000Y-83550000D02*
X111032000Y-83550000D01*
%TO.N,/Display/SG_G*%
X90750000Y-102000000D02*
X90825000Y-102075000D01*
X90750000Y-102000000D02*
X86500000Y-97750000D01*
X86500000Y-97750000D02*
X86500000Y-87500000D01*
X124465664Y-82885957D02*
X124451621Y-82900000D01*
X124451621Y-82900000D02*
X95025000Y-82900000D01*
X86500000Y-87500000D02*
X91000000Y-83000000D01*
X91000000Y-83000000D02*
X94925000Y-83000000D01*
X95025000Y-82900000D02*
X94925000Y-83000000D01*
%TO.N,/Display/SG_DP*%
X97200000Y-102400000D02*
X98100000Y-103300000D01*
X122750000Y-86000000D02*
X115500000Y-86000000D01*
X100250000Y-91250000D02*
X98350000Y-91250000D01*
X97200000Y-92400000D02*
X97200000Y-102400000D01*
X115500000Y-86000000D02*
X108000000Y-86000000D01*
X130220000Y-86000000D02*
X122750000Y-86000000D01*
X98350000Y-91250000D02*
X97200000Y-92400000D01*
X108000000Y-86000000D02*
X100750000Y-86000000D01*
%TO.N,MCU_TX*%
X131500000Y-89700000D02*
X134950000Y-86250000D01*
X134950000Y-86250000D02*
X211000000Y-86250000D01*
X213200000Y-88450000D02*
X213200000Y-90350000D01*
X211000000Y-86250000D02*
X213200000Y-88450000D01*
X211200000Y-92350000D02*
X211200000Y-92350000D01*
X211300000Y-92350000D02*
X211200000Y-92350000D01*
X99850000Y-92450000D02*
X99898529Y-92450000D01*
X211300000Y-92250000D02*
X211300000Y-92350000D01*
X213200000Y-90350000D02*
X211300000Y-92250000D01*
X99898529Y-92450000D02*
X102648529Y-89700000D01*
X102648529Y-89700000D02*
X131500000Y-89700000D01*
%TO.N,ACC_SDA*%
X184750000Y-98650000D02*
X185600000Y-98650000D01*
X189150000Y-95100000D02*
X210600000Y-95100000D01*
X185600000Y-98650000D02*
X189150000Y-95100000D01*
X210600000Y-95100000D02*
X213150000Y-97650000D01*
%TO.N,ACC_SCL*%
X189800000Y-95500000D02*
X186700000Y-98600000D01*
X209550000Y-95500000D02*
X189800000Y-95500000D01*
X211800000Y-97750000D02*
X209550000Y-95500000D01*
D11*
%TO.N,MCU_A0*%
X80400000Y-104600000D02*
X84500000Y-108700000D01*
X210750000Y-102150000D02*
X210500000Y-101900000D01*
X84500000Y-108700000D02*
X199200000Y-108700000D01*
X206000000Y-101900000D02*
X199200000Y-108700000D01*
X210500000Y-101900000D02*
X206000000Y-101900000D01*
%TO.N,MCU_A1*%
X211500000Y-101500000D02*
X211500000Y-101600000D01*
X211500000Y-101600000D02*
X211600000Y-101600000D01*
X211600000Y-101600000D02*
X211600000Y-101600000D01*
X82625000Y-103800000D02*
X86925000Y-108100000D01*
X82600000Y-103800000D02*
X82625000Y-103800000D01*
X205700000Y-101200000D02*
X211200000Y-101200000D01*
X211200000Y-101200000D02*
X211500000Y-101500000D01*
X198800000Y-108100000D02*
X205700000Y-101200000D01*
X86925000Y-108100000D02*
X198800000Y-108100000D01*
%TO.N,MCU_PE3*%
X202600000Y-109250000D02*
X209150000Y-102700000D01*
X77200000Y-109250000D02*
X202600000Y-109250000D01*
X71026000Y-103076000D02*
X77200000Y-109250000D01*
D13*
%TO.N,/Display/GR5*%
X101750000Y-91750000D02*
X126250000Y-91750000D01*
X101500000Y-99140000D02*
X101500000Y-92000000D01*
X126250000Y-91750000D02*
X126750000Y-91250000D01*
X101120000Y-99520000D02*
X101500000Y-99140000D01*
X101500000Y-92000000D02*
X101750000Y-91750000D01*
%TO.N,SW*%
X135300000Y-86850000D02*
X129550000Y-92600000D01*
X208850000Y-86850000D02*
X135300000Y-86850000D01*
D11*
%TO.N,SD_CS*%
X206400000Y-94500000D02*
X194100000Y-94500000D01*
X194100000Y-94500000D02*
X193500000Y-93900000D01*
X211900000Y-89000000D02*
X206400000Y-94500000D01*
%TO.N,SD_MOSI*%
X194700000Y-93800000D02*
X204300000Y-93800000D01*
X204300000Y-93800000D02*
X209000000Y-89100000D01*
X194600000Y-93700000D02*
X194700000Y-93800000D01*
%TO.N,SD_MISO*%
X199300000Y-90900000D02*
X199200000Y-90900000D01*
X201900000Y-88300000D02*
X199300000Y-90900000D01*
X211200000Y-88300000D02*
X201900000Y-88300000D01*
X199200000Y-90900000D02*
X199200000Y-91000000D01*
%TO.N,SD_SCK*%
X212527000Y-89577000D02*
X212527000Y-88740288D01*
X200127000Y-87673000D02*
X196800000Y-91000000D01*
X211459712Y-87673000D02*
X200127000Y-87673000D01*
X212527000Y-88740288D02*
X211459712Y-87673000D01*
D13*
%TO.N,Net-(SW9-B)*%
X134050000Y-95350000D02*
X104600000Y-95350000D01*
X138650000Y-99950000D02*
X134050000Y-95350000D01*
X104600000Y-95350000D02*
X103500000Y-94250000D01*
X103500000Y-94250000D02*
X103450000Y-94250000D01*
%TD*%
%TA.AperFunction,Conductor*%
%TO.N,GND*%
G36*
X191005810Y-80520184D02*
G01*
X191051565Y-80572988D01*
X191061509Y-80642146D01*
X191032484Y-80705702D01*
X191026452Y-80712180D01*
X190967051Y-80771580D01*
X190967048Y-80771584D01*
X190884919Y-80894498D01*
X190884912Y-80894511D01*
X190828343Y-81031082D01*
X190828340Y-81031092D01*
X190799500Y-81176079D01*
X190799500Y-81176082D01*
X190799500Y-81323918D01*
X190799500Y-81323920D01*
X190799499Y-81323920D01*
X190828340Y-81468907D01*
X190828343Y-81468917D01*
X190884912Y-81605488D01*
X190884919Y-81605501D01*
X190967048Y-81728415D01*
X190967051Y-81728419D01*
X191071580Y-81832948D01*
X191071584Y-81832951D01*
X191194498Y-81915080D01*
X191194511Y-81915087D01*
X191331082Y-81971656D01*
X191331087Y-81971658D01*
X191331091Y-81971658D01*
X191331092Y-81971659D01*
X191476079Y-82000500D01*
X191476082Y-82000500D01*
X191623920Y-82000500D01*
X191721462Y-81981096D01*
X191768913Y-81971658D01*
X191905495Y-81915084D01*
X192028416Y-81832951D01*
X192132951Y-81728416D01*
X192215084Y-81605495D01*
X192271658Y-81468913D01*
X192300500Y-81323918D01*
X192300500Y-81176082D01*
X192300500Y-81176079D01*
X192271659Y-81031092D01*
X192271658Y-81031091D01*
X192271658Y-81031087D01*
X192247137Y-80971887D01*
X192215087Y-80894511D01*
X192215080Y-80894498D01*
X192132951Y-80771584D01*
X192132948Y-80771580D01*
X192073548Y-80712180D01*
X192040063Y-80650857D01*
X192045047Y-80581165D01*
X192086919Y-80525232D01*
X192152383Y-80500815D01*
X192161229Y-80500499D01*
X198938771Y-80500499D01*
X199005810Y-80520184D01*
X199051565Y-80572988D01*
X199061509Y-80642146D01*
X199032484Y-80705702D01*
X199026452Y-80712180D01*
X198967051Y-80771580D01*
X198967048Y-80771584D01*
X198884919Y-80894498D01*
X198884912Y-80894511D01*
X198828343Y-81031082D01*
X198828340Y-81031092D01*
X198799500Y-81176079D01*
X198799500Y-81176082D01*
X198799500Y-81323918D01*
X198799500Y-81323920D01*
X198799499Y-81323920D01*
X198828340Y-81468907D01*
X198828343Y-81468917D01*
X198884912Y-81605488D01*
X198884919Y-81605501D01*
X198967048Y-81728415D01*
X198967051Y-81728419D01*
X199071580Y-81832948D01*
X199071584Y-81832951D01*
X199194498Y-81915080D01*
X199194511Y-81915087D01*
X199331082Y-81971656D01*
X199331087Y-81971658D01*
X199331091Y-81971658D01*
X199331092Y-81971659D01*
X199476079Y-82000500D01*
X199476082Y-82000500D01*
X199623920Y-82000500D01*
X199721462Y-81981096D01*
X199768913Y-81971658D01*
X199905495Y-81915084D01*
X200028416Y-81832951D01*
X200132951Y-81728416D01*
X200215084Y-81605495D01*
X200271658Y-81468913D01*
X200300500Y-81323918D01*
X200300500Y-81176082D01*
X200300500Y-81176079D01*
X200271659Y-81031092D01*
X200271658Y-81031091D01*
X200271658Y-81031087D01*
X200247137Y-80971887D01*
X200215087Y-80894511D01*
X200215080Y-80894498D01*
X200132951Y-80771584D01*
X200132948Y-80771580D01*
X200073548Y-80712180D01*
X200040063Y-80650857D01*
X200045047Y-80581165D01*
X200086919Y-80525232D01*
X200152383Y-80500815D01*
X200161229Y-80500499D01*
X222934108Y-80500499D01*
X222995572Y-80500499D01*
X223004418Y-80500815D01*
X223204561Y-80515129D01*
X223222063Y-80517646D01*
X223413797Y-80559354D01*
X223430755Y-80564333D01*
X223614609Y-80632908D01*
X223630701Y-80640258D01*
X223802904Y-80734287D01*
X223817784Y-80743848D01*
X223854834Y-80771584D01*
X223974867Y-80861440D01*
X223988237Y-80873026D01*
X224126973Y-81011762D01*
X224138559Y-81025132D01*
X224251559Y-81176082D01*
X224256147Y-81182210D01*
X224265712Y-81197095D01*
X224359741Y-81369298D01*
X224367091Y-81385390D01*
X224435663Y-81569236D01*
X224440647Y-81586212D01*
X224482352Y-81777931D01*
X224484870Y-81795442D01*
X224499185Y-81995580D01*
X224499501Y-82004427D01*
X224499501Y-107995572D01*
X224499185Y-108004419D01*
X224484870Y-108204557D01*
X224482352Y-108222068D01*
X224440647Y-108413787D01*
X224435663Y-108430763D01*
X224367091Y-108614609D01*
X224359741Y-108630701D01*
X224265712Y-108802904D01*
X224256147Y-108817789D01*
X224138559Y-108974867D01*
X224126973Y-108988237D01*
X223988237Y-109126973D01*
X223974867Y-109138559D01*
X223817789Y-109256147D01*
X223802904Y-109265712D01*
X223630701Y-109359741D01*
X223614609Y-109367091D01*
X223430763Y-109435663D01*
X223413787Y-109440647D01*
X223222068Y-109482352D01*
X223204557Y-109484870D01*
X223023798Y-109497798D01*
X223004431Y-109499184D01*
X222995586Y-109499500D01*
X203537281Y-109499500D01*
X203470242Y-109479815D01*
X203424487Y-109427011D01*
X203414543Y-109357853D01*
X203443568Y-109294297D01*
X203449600Y-109287819D01*
X204876600Y-107860819D01*
X209211567Y-103525850D01*
X209272888Y-103492367D01*
X209285345Y-103490315D01*
X209329255Y-103485368D01*
X209499522Y-103425789D01*
X209652262Y-103329816D01*
X209779816Y-103202262D01*
X209875789Y-103049522D01*
X209935368Y-102879255D01*
X209944553Y-102797737D01*
X209947731Y-102769533D01*
X209974797Y-102705119D01*
X210032392Y-102665564D01*
X210102229Y-102663426D01*
X210155618Y-102694211D01*
X210156297Y-102693490D01*
X210212194Y-102746014D01*
X210212197Y-102746016D01*
X210212201Y-102746020D01*
X210212205Y-102746022D01*
X210212369Y-102746146D01*
X210225398Y-102757476D01*
X210247738Y-102779816D01*
X210400478Y-102875789D01*
X210460367Y-102896745D01*
X210570745Y-102935368D01*
X210570750Y-102935369D01*
X210749996Y-102955565D01*
X210750000Y-102955565D01*
X210750004Y-102955565D01*
X210929249Y-102935369D01*
X210929252Y-102935368D01*
X210929255Y-102935368D01*
X211099522Y-102875789D01*
X211252262Y-102779816D01*
X211379816Y-102652262D01*
X211475789Y-102499522D01*
X211483286Y-102478093D01*
X211524005Y-102421317D01*
X211586443Y-102395824D01*
X211679255Y-102385368D01*
X211849522Y-102325789D01*
X212002262Y-102229816D01*
X212129816Y-102102262D01*
X212225789Y-101949522D01*
X212285368Y-101779255D01*
X212291392Y-101725789D01*
X212305565Y-101600003D01*
X212305565Y-101599996D01*
X212285369Y-101420750D01*
X212285368Y-101420745D01*
X212225788Y-101250476D01*
X212179319Y-101176521D01*
X212129816Y-101097738D01*
X212129815Y-101097737D01*
X212126111Y-101091842D01*
X212128409Y-101090397D01*
X212106659Y-101037151D01*
X212119401Y-100968453D01*
X212167261Y-100917550D01*
X212230012Y-100900500D01*
X212994832Y-100900500D01*
X213079376Y-100883682D01*
X213120505Y-100875501D01*
X213238888Y-100826465D01*
X213253106Y-100816965D01*
X213345430Y-100755277D01*
X219361328Y-94739378D01*
X219422649Y-94705895D01*
X219492341Y-94710879D01*
X219514979Y-94722067D01*
X219540897Y-94738352D01*
X219600478Y-94775789D01*
X219600481Y-94775790D01*
X219770737Y-94835366D01*
X219770743Y-94835367D01*
X219770745Y-94835368D01*
X219770746Y-94835368D01*
X219770750Y-94835369D01*
X219949996Y-94855565D01*
X219950000Y-94855565D01*
X219950004Y-94855565D01*
X220129249Y-94835369D01*
X220129252Y-94835368D01*
X220129255Y-94835368D01*
X220299522Y-94775789D01*
X220452262Y-94679816D01*
X220579816Y-94552262D01*
X220675789Y-94399522D01*
X220735368Y-94229255D01*
X220738576Y-94200784D01*
X220755565Y-94050003D01*
X220755565Y-94049996D01*
X220735369Y-93870750D01*
X220735368Y-93870745D01*
X220729094Y-93852815D01*
X220675789Y-93700478D01*
X220579816Y-93547738D01*
X220452262Y-93420184D01*
X220419344Y-93399500D01*
X220299523Y-93324211D01*
X220129254Y-93264631D01*
X220129249Y-93264630D01*
X219950004Y-93244435D01*
X219949996Y-93244435D01*
X219770750Y-93264630D01*
X219770737Y-93264633D01*
X219600481Y-93324209D01*
X219600477Y-93324210D01*
X219510904Y-93380494D01*
X219444932Y-93399500D01*
X219066690Y-93399500D01*
X218962710Y-93420184D01*
X218955742Y-93421570D01*
X218944672Y-93423771D01*
X218941016Y-93424499D01*
X218822635Y-93473534D01*
X218716087Y-93544726D01*
X218716086Y-93544727D01*
X214002231Y-98258583D01*
X213940908Y-98292068D01*
X213871216Y-98287084D01*
X213815283Y-98245212D01*
X213790866Y-98179748D01*
X213805718Y-98111475D01*
X213809557Y-98104929D01*
X213812955Y-98099522D01*
X213864752Y-98017088D01*
X213875788Y-97999524D01*
X213881995Y-97981785D01*
X213935368Y-97829255D01*
X213935369Y-97829249D01*
X213955565Y-97650003D01*
X213955565Y-97649996D01*
X213935369Y-97470750D01*
X213935368Y-97470745D01*
X213928234Y-97450357D01*
X213875789Y-97300478D01*
X213779816Y-97147738D01*
X213652262Y-97020184D01*
X213620143Y-97000002D01*
X213499521Y-96924210D01*
X213329249Y-96864630D01*
X213242331Y-96854837D01*
X213177917Y-96827770D01*
X213168534Y-96819298D01*
X211087590Y-94738355D01*
X211087588Y-94738352D01*
X210968717Y-94619481D01*
X210968709Y-94619475D01*
X210868817Y-94561803D01*
X210868815Y-94561802D01*
X210831790Y-94540425D01*
X210831789Y-94540424D01*
X210819263Y-94537067D01*
X210679057Y-94499499D01*
X210520943Y-94499499D01*
X210513347Y-94499499D01*
X210513331Y-94499500D01*
X207587281Y-94499500D01*
X207520242Y-94479815D01*
X207474487Y-94427011D01*
X207464543Y-94357853D01*
X207493568Y-94294297D01*
X207499600Y-94287819D01*
X208552193Y-93235226D01*
X211715206Y-90072211D01*
X211776527Y-90038728D01*
X211846219Y-90043712D01*
X211890660Y-90075937D01*
X211892260Y-90074338D01*
X211897184Y-90079262D01*
X212024738Y-90206816D01*
X212132000Y-90274213D01*
X212181231Y-90305147D01*
X212227522Y-90357482D01*
X212238170Y-90426535D01*
X212209795Y-90490384D01*
X212202940Y-90497822D01*
X211164426Y-91536337D01*
X211117699Y-91565698D01*
X210950478Y-91624210D01*
X210797737Y-91720184D01*
X210670184Y-91847737D01*
X210574211Y-92000476D01*
X210514631Y-92170745D01*
X210514630Y-92170750D01*
X210494435Y-92349996D01*
X210494435Y-92350003D01*
X210514630Y-92529249D01*
X210514631Y-92529254D01*
X210574211Y-92699523D01*
X210650384Y-92820750D01*
X210670184Y-92852262D01*
X210797738Y-92979816D01*
X210888080Y-93036582D01*
X210941557Y-93070184D01*
X210950478Y-93075789D01*
X211061479Y-93114630D01*
X211120745Y-93135368D01*
X211120750Y-93135369D01*
X211299996Y-93155565D01*
X211300000Y-93155565D01*
X211300004Y-93155565D01*
X211479249Y-93135369D01*
X211479252Y-93135368D01*
X211479255Y-93135368D01*
X211649522Y-93075789D01*
X211802262Y-92979816D01*
X211929816Y-92852262D01*
X212025789Y-92699522D01*
X212085368Y-92529255D01*
X212087545Y-92509940D01*
X212105565Y-92350002D01*
X212105565Y-92345031D01*
X212125250Y-92277992D01*
X212141884Y-92257350D01*
X212479756Y-91919478D01*
X213680520Y-90718716D01*
X213759577Y-90581784D01*
X213800501Y-90429057D01*
X213800501Y-90270942D01*
X213800501Y-90263347D01*
X213800500Y-90263329D01*
X213800500Y-88539059D01*
X213800501Y-88539046D01*
X213800501Y-88370945D01*
X213800501Y-88370943D01*
X213759577Y-88218215D01*
X213730639Y-88168095D01*
X213680520Y-88081284D01*
X213568716Y-87969480D01*
X213568715Y-87969479D01*
X213564385Y-87965149D01*
X213564374Y-87965139D01*
X211487590Y-85888355D01*
X211487588Y-85888352D01*
X211368717Y-85769481D01*
X211368716Y-85769480D01*
X211281904Y-85719360D01*
X211281904Y-85719359D01*
X211281900Y-85719358D01*
X211231785Y-85690423D01*
X211079057Y-85649499D01*
X210920943Y-85649499D01*
X210913347Y-85649499D01*
X210913331Y-85649500D01*
X135036670Y-85649500D01*
X135036654Y-85649499D01*
X135029058Y-85649499D01*
X134870943Y-85649499D01*
X134718215Y-85690423D01*
X134718213Y-85690423D01*
X134718213Y-85690424D01*
X134581281Y-85769482D01*
X131287584Y-89063181D01*
X131226261Y-89096666D01*
X131199903Y-89099500D01*
X125081158Y-89099500D01*
X125014119Y-89079815D01*
X124968364Y-89027011D01*
X124958420Y-88957853D01*
X124987445Y-88894297D01*
X124997368Y-88884770D01*
X124997338Y-88884740D01*
X125031578Y-88850500D01*
X125129816Y-88752262D01*
X125225789Y-88599522D01*
X125285368Y-88429255D01*
X125293900Y-88353528D01*
X125320966Y-88289115D01*
X125378560Y-88249559D01*
X125448397Y-88247420D01*
X125454714Y-88249247D01*
X125455695Y-88249559D01*
X125491824Y-88261054D01*
X125493226Y-88261227D01*
X125518956Y-88267246D01*
X125570745Y-88285368D01*
X125570749Y-88285368D01*
X125570751Y-88285369D01*
X125749996Y-88305565D01*
X125750000Y-88305565D01*
X125750004Y-88305565D01*
X125929249Y-88285369D01*
X125929252Y-88285368D01*
X125929255Y-88285368D01*
X126099522Y-88225789D01*
X126252262Y-88129816D01*
X126379816Y-88002262D01*
X126475789Y-87849522D01*
X126535368Y-87679255D01*
X126538022Y-87655703D01*
X126555565Y-87500003D01*
X126555565Y-87500001D01*
X126554256Y-87488386D01*
X126566309Y-87419564D01*
X126613657Y-87368184D01*
X126677476Y-87350500D01*
X128054974Y-87350500D01*
X128097505Y-87358022D01*
X128347565Y-87449329D01*
X128347567Y-87449329D01*
X128481314Y-87498165D01*
X128521824Y-87511054D01*
X128523226Y-87511227D01*
X128548956Y-87517246D01*
X128600745Y-87535368D01*
X128600749Y-87535368D01*
X128600751Y-87535369D01*
X128779996Y-87555565D01*
X128780000Y-87555565D01*
X128780004Y-87555565D01*
X128959249Y-87535369D01*
X128959252Y-87535368D01*
X128959255Y-87535368D01*
X129129522Y-87475789D01*
X129282262Y-87379816D01*
X129409816Y-87252262D01*
X129505789Y-87099522D01*
X129565368Y-86929255D01*
X129574242Y-86850500D01*
X129581378Y-86787159D01*
X129608444Y-86722745D01*
X129666039Y-86683190D01*
X129735876Y-86681052D01*
X129747127Y-86684563D01*
X129787565Y-86699329D01*
X129787567Y-86699329D01*
X129921314Y-86748165D01*
X129961824Y-86761054D01*
X129963226Y-86761227D01*
X129988956Y-86767246D01*
X130040745Y-86785368D01*
X130040749Y-86785368D01*
X130040751Y-86785369D01*
X130219996Y-86805565D01*
X130220000Y-86805565D01*
X130220004Y-86805565D01*
X130399249Y-86785369D01*
X130399252Y-86785368D01*
X130399255Y-86785368D01*
X130569522Y-86725789D01*
X130722262Y-86629816D01*
X130849816Y-86502262D01*
X130945789Y-86349522D01*
X131005368Y-86179255D01*
X131009568Y-86141978D01*
X131025565Y-86000003D01*
X131025565Y-85999996D01*
X131005369Y-85820750D01*
X131005368Y-85820745D01*
X130969892Y-85719360D01*
X130945789Y-85650478D01*
X130945174Y-85649500D01*
X130849815Y-85497737D01*
X130820615Y-85468537D01*
X130787130Y-85407214D01*
X130792114Y-85337522D01*
X130803302Y-85314884D01*
X130875789Y-85199522D01*
X130935368Y-85029255D01*
X130955565Y-84850000D01*
X130935368Y-84670745D01*
X130875789Y-84500478D01*
X130870554Y-84492147D01*
X130804372Y-84386819D01*
X130779816Y-84347738D01*
X130652262Y-84220184D01*
X130587124Y-84179255D01*
X130499523Y-84124211D01*
X130329254Y-84064631D01*
X130329249Y-84064630D01*
X130150004Y-84044435D01*
X130149996Y-84044435D01*
X129970746Y-84064631D01*
X129970745Y-84064631D01*
X129891764Y-84092267D01*
X129876338Y-84096569D01*
X129851311Y-84101833D01*
X129750377Y-84138688D01*
X129680652Y-84143191D01*
X129619562Y-84109283D01*
X129586502Y-84047730D01*
X129584627Y-84008325D01*
X129585565Y-84000000D01*
X129585565Y-83999996D01*
X129565369Y-83820750D01*
X129565368Y-83820745D01*
X129505788Y-83650476D01*
X129429971Y-83529815D01*
X129409816Y-83497738D01*
X129282262Y-83370184D01*
X129203587Y-83320749D01*
X129129523Y-83274211D01*
X128959254Y-83214631D01*
X128959249Y-83214630D01*
X128780004Y-83194435D01*
X128779996Y-83194435D01*
X128600750Y-83214630D01*
X128600745Y-83214631D01*
X128430476Y-83274211D01*
X128277738Y-83370183D01*
X128269244Y-83378677D01*
X128255237Y-83390107D01*
X128255470Y-83390410D01*
X128081599Y-83523865D01*
X128016434Y-83549069D01*
X128006099Y-83549500D01*
X126821956Y-83549500D01*
X126754917Y-83529815D01*
X126709162Y-83477011D01*
X126698736Y-83439384D01*
X126685369Y-83320749D01*
X126685368Y-83320745D01*
X126625788Y-83150476D01*
X126586582Y-83088080D01*
X126529816Y-82997738D01*
X126402262Y-82870184D01*
X126249523Y-82774211D01*
X126079254Y-82714631D01*
X126079249Y-82714630D01*
X125900004Y-82694435D01*
X125899996Y-82694435D01*
X125720746Y-82714631D01*
X125720745Y-82714631D01*
X125641764Y-82742267D01*
X125626339Y-82746569D01*
X125601309Y-82751834D01*
X125417855Y-82818820D01*
X125348131Y-82823323D01*
X125287040Y-82789416D01*
X125253980Y-82727863D01*
X125252104Y-82716221D01*
X125251925Y-82714630D01*
X125251032Y-82706702D01*
X125191453Y-82536435D01*
X125180799Y-82519480D01*
X125131125Y-82440424D01*
X125095480Y-82383695D01*
X124967926Y-82256141D01*
X124901865Y-82214632D01*
X124815187Y-82160168D01*
X124644918Y-82100588D01*
X124644913Y-82100587D01*
X124465668Y-82080392D01*
X124465660Y-82080392D01*
X124286410Y-82100588D01*
X124286409Y-82100588D01*
X124194653Y-82132694D01*
X124182527Y-82136255D01*
X124153912Y-82143094D01*
X123781325Y-82290775D01*
X123735634Y-82299500D01*
X117657412Y-82299500D01*
X117590373Y-82279815D01*
X117580097Y-82272445D01*
X117577263Y-82270185D01*
X117577262Y-82270184D01*
X117520496Y-82234515D01*
X117424523Y-82174211D01*
X117254254Y-82114631D01*
X117254249Y-82114630D01*
X117075004Y-82094435D01*
X117074996Y-82094435D01*
X116895750Y-82114630D01*
X116895745Y-82114631D01*
X116725476Y-82174211D01*
X116572736Y-82270185D01*
X116569903Y-82272445D01*
X116567724Y-82273334D01*
X116566842Y-82273889D01*
X116566744Y-82273734D01*
X116505217Y-82298855D01*
X116492588Y-82299500D01*
X110224412Y-82299500D01*
X110157373Y-82279815D01*
X110147097Y-82272445D01*
X110144263Y-82270185D01*
X110144262Y-82270184D01*
X110087496Y-82234515D01*
X109991523Y-82174211D01*
X109821254Y-82114631D01*
X109821249Y-82114630D01*
X109642004Y-82094435D01*
X109641996Y-82094435D01*
X109462750Y-82114630D01*
X109462745Y-82114631D01*
X109292476Y-82174211D01*
X109139736Y-82270185D01*
X109136903Y-82272445D01*
X109134724Y-82273334D01*
X109133842Y-82273889D01*
X109133744Y-82273734D01*
X109072217Y-82298855D01*
X109059588Y-82299500D01*
X102701494Y-82299500D01*
X102635523Y-82280494D01*
X102625525Y-82274212D01*
X102455254Y-82214631D01*
X102455249Y-82214630D01*
X102276004Y-82194435D01*
X102275996Y-82194435D01*
X102096750Y-82214630D01*
X102096745Y-82214631D01*
X101926474Y-82274212D01*
X101916477Y-82280494D01*
X101850506Y-82299500D01*
X95587979Y-82299500D01*
X95566914Y-82297698D01*
X95133065Y-82222909D01*
X95113184Y-82217756D01*
X95104250Y-82214630D01*
X95052395Y-82208788D01*
X95045218Y-82207766D01*
X95024518Y-82204198D01*
X94982436Y-82198750D01*
X94980484Y-82198581D01*
X94970597Y-82198665D01*
X94955676Y-82197890D01*
X94925000Y-82194435D01*
X94924996Y-82194435D01*
X94745746Y-82214631D01*
X94745745Y-82214631D01*
X94666764Y-82242267D01*
X94651338Y-82246569D01*
X94626314Y-82251833D01*
X94242503Y-82391978D01*
X94199972Y-82399500D01*
X91086669Y-82399500D01*
X91086653Y-82399499D01*
X91079057Y-82399499D01*
X90920943Y-82399499D01*
X90768215Y-82440423D01*
X90768214Y-82440423D01*
X90768212Y-82440424D01*
X90749157Y-82451426D01*
X90749155Y-82451427D01*
X90631290Y-82519475D01*
X90631282Y-82519481D01*
X86019481Y-87131282D01*
X86019480Y-87131284D01*
X85980083Y-87199522D01*
X85940423Y-87268215D01*
X85899499Y-87420943D01*
X85899499Y-87420945D01*
X85899499Y-87589046D01*
X85899500Y-87589059D01*
X85899500Y-97663330D01*
X85899499Y-97663348D01*
X85899499Y-97829054D01*
X85899498Y-97829054D01*
X85940423Y-97981785D01*
X85950663Y-97999522D01*
X85962593Y-98020184D01*
X86019479Y-98118714D01*
X86019481Y-98118717D01*
X86138349Y-98237585D01*
X86138355Y-98237590D01*
X89812711Y-101911946D01*
X89837466Y-101947338D01*
X90009764Y-102317831D01*
X90009766Y-102317834D01*
X90016124Y-102330126D01*
X90023026Y-102346137D01*
X90024209Y-102349518D01*
X90024212Y-102349524D01*
X90053304Y-102395823D01*
X90120184Y-102502262D01*
X90247738Y-102629816D01*
X90283461Y-102652262D01*
X90351563Y-102695054D01*
X90400478Y-102725789D01*
X90554878Y-102779816D01*
X90570745Y-102785368D01*
X90570750Y-102785369D01*
X90749996Y-102805565D01*
X90750000Y-102805565D01*
X90750004Y-102805565D01*
X90929249Y-102785369D01*
X90929252Y-102785368D01*
X90929255Y-102785368D01*
X91099522Y-102725789D01*
X91252262Y-102629816D01*
X91379816Y-102502262D01*
X91475789Y-102349522D01*
X91535368Y-102179255D01*
X91535369Y-102179249D01*
X91555565Y-102000003D01*
X91555565Y-101999996D01*
X91535369Y-101820750D01*
X91535368Y-101820745D01*
X91475788Y-101650476D01*
X91436582Y-101588080D01*
X91379816Y-101497738D01*
X91344759Y-101462681D01*
X91311274Y-101401358D01*
X91316258Y-101331666D01*
X91344759Y-101287319D01*
X91379816Y-101252262D01*
X91475789Y-101099522D01*
X91535368Y-100929255D01*
X91538608Y-100900500D01*
X91555565Y-100750003D01*
X91555565Y-100749996D01*
X91535369Y-100570750D01*
X91535368Y-100570745D01*
X91520236Y-100527500D01*
X91475789Y-100400478D01*
X91379816Y-100247738D01*
X91252262Y-100120184D01*
X91099524Y-100024212D01*
X91099523Y-100024211D01*
X91099522Y-100024211D01*
X91093125Y-100021972D01*
X91071911Y-100011532D01*
X91071701Y-100011912D01*
X91067830Y-100009763D01*
X90697337Y-99837465D01*
X90661945Y-99812710D01*
X87886819Y-97037584D01*
X87853334Y-96976261D01*
X87850500Y-96949903D01*
X87850500Y-88300097D01*
X87870185Y-88233058D01*
X87886819Y-88212416D01*
X91712417Y-84386819D01*
X91773740Y-84353334D01*
X91800098Y-84350500D01*
X94750903Y-84350500D01*
X94817942Y-84370185D01*
X94863697Y-84422989D01*
X94873641Y-84492147D01*
X94844616Y-84555703D01*
X94838584Y-84562180D01*
X93352466Y-86048298D01*
X91881286Y-87519478D01*
X91769481Y-87631282D01*
X91769475Y-87631290D01*
X91730158Y-87699391D01*
X91730158Y-87699392D01*
X91690423Y-87768215D01*
X91649499Y-87920943D01*
X91649499Y-87920945D01*
X91649499Y-88089046D01*
X91649500Y-88089059D01*
X91649500Y-91949901D01*
X91629815Y-92016940D01*
X91613179Y-92037584D01*
X91588052Y-92062710D01*
X91552662Y-92087463D01*
X91182159Y-92259767D01*
X91169870Y-92266125D01*
X91153870Y-92273024D01*
X91150476Y-92274211D01*
X90997737Y-92370184D01*
X90870184Y-92497737D01*
X90774211Y-92650476D01*
X90714631Y-92820745D01*
X90714630Y-92820750D01*
X90694435Y-92999996D01*
X90694435Y-93000003D01*
X90714630Y-93179249D01*
X90714631Y-93179254D01*
X90774211Y-93349523D01*
X90870184Y-93502262D01*
X90870185Y-93502263D01*
X90921662Y-93553741D01*
X90955146Y-93615064D01*
X90950161Y-93684756D01*
X90921661Y-93729102D01*
X89885891Y-94764872D01*
X89882493Y-94768144D01*
X89879722Y-94770711D01*
X89879595Y-94770855D01*
X89874527Y-94776234D01*
X89769481Y-94881281D01*
X89746366Y-94921318D01*
X89733020Y-94944435D01*
X89717428Y-94971441D01*
X89690422Y-95018215D01*
X89690421Y-95018218D01*
X89656778Y-95143772D01*
X89646734Y-95169429D01*
X89532091Y-95387253D01*
X89527365Y-95395457D01*
X89524210Y-95400479D01*
X89522424Y-95405582D01*
X89521260Y-95408766D01*
X89493757Y-95480938D01*
X89493050Y-95483648D01*
X89488176Y-95503456D01*
X89464631Y-95570745D01*
X89464631Y-95570746D01*
X89444435Y-95749996D01*
X89444435Y-95750003D01*
X89464630Y-95929249D01*
X89464631Y-95929254D01*
X89524211Y-96099523D01*
X89557886Y-96153116D01*
X89620184Y-96252262D01*
X89747738Y-96379816D01*
X89900478Y-96475789D01*
X89948130Y-96492463D01*
X90004906Y-96533184D01*
X90030654Y-96598137D01*
X90024216Y-96650463D01*
X90008488Y-96695407D01*
X90006713Y-96700165D01*
X89994401Y-96731206D01*
X89992539Y-96738157D01*
X89992306Y-96738094D01*
X89989354Y-96750087D01*
X89964632Y-96820742D01*
X89964631Y-96820746D01*
X89944435Y-96999996D01*
X89944435Y-97000003D01*
X89964630Y-97179249D01*
X89964631Y-97179254D01*
X90024211Y-97349523D01*
X90100384Y-97470750D01*
X90120184Y-97502262D01*
X90247738Y-97629816D01*
X90400478Y-97725789D01*
X90522636Y-97768534D01*
X90570745Y-97785368D01*
X90570750Y-97785369D01*
X90749996Y-97805565D01*
X90750000Y-97805565D01*
X90750004Y-97805565D01*
X90929249Y-97785369D01*
X90929252Y-97785368D01*
X90929255Y-97785368D01*
X91099522Y-97725789D01*
X91252262Y-97629816D01*
X91379816Y-97502262D01*
X91475789Y-97349522D01*
X91535368Y-97179255D01*
X91549986Y-97049522D01*
X91555565Y-97000002D01*
X91555565Y-96999999D01*
X91549920Y-96949903D01*
X91546862Y-96922766D01*
X91546131Y-96912340D01*
X91545801Y-96900491D01*
X91545801Y-96900486D01*
X91542232Y-96879787D01*
X91541214Y-96872640D01*
X91535368Y-96820745D01*
X91532242Y-96811812D01*
X91527087Y-96791931D01*
X91452302Y-96358088D01*
X91450500Y-96337024D01*
X91450500Y-96200096D01*
X91470185Y-96133057D01*
X91486814Y-96112420D01*
X94108506Y-93490727D01*
X94108511Y-93490724D01*
X94118714Y-93480520D01*
X94118716Y-93480520D01*
X94230520Y-93368716D01*
X94309577Y-93231784D01*
X94340968Y-93114632D01*
X94350500Y-93079058D01*
X94350500Y-92920943D01*
X94350500Y-89011661D01*
X94370185Y-88944622D01*
X94422989Y-88898867D01*
X94492147Y-88888923D01*
X94540473Y-88906668D01*
X94650475Y-88975788D01*
X94820745Y-89035368D01*
X94820750Y-89035369D01*
X94999996Y-89055565D01*
X95000000Y-89055565D01*
X95000004Y-89055565D01*
X95179249Y-89035369D01*
X95179250Y-89035368D01*
X95179255Y-89035368D01*
X95258251Y-89007725D01*
X95273651Y-89003431D01*
X95298687Y-88998166D01*
X95682495Y-88858022D01*
X95725026Y-88850500D01*
X101662346Y-88850500D01*
X101727777Y-88869168D01*
X101856708Y-88949261D01*
X101869595Y-88956543D01*
X101874554Y-88959500D01*
X101900478Y-88975789D01*
X101958173Y-88995977D01*
X101962892Y-88997738D01*
X101984227Y-89006203D01*
X101984232Y-89006203D01*
X101991368Y-89008092D01*
X101991232Y-89008602D01*
X102001086Y-89010992D01*
X102070745Y-89035368D01*
X102070749Y-89035368D01*
X102070751Y-89035369D01*
X102070748Y-89035369D01*
X102168240Y-89046353D01*
X102232654Y-89073419D01*
X102272209Y-89131013D01*
X102274348Y-89200850D01*
X102242039Y-89257254D01*
X102168009Y-89331284D01*
X100900085Y-90599208D01*
X100838762Y-90632693D01*
X100769070Y-90627709D01*
X100746432Y-90616521D01*
X100599523Y-90524211D01*
X100429254Y-90464631D01*
X100429249Y-90464630D01*
X100250004Y-90444435D01*
X100249996Y-90444435D01*
X100070750Y-90464630D01*
X100070745Y-90464631D01*
X99900476Y-90524211D01*
X99747736Y-90620185D01*
X99744903Y-90622445D01*
X99742724Y-90623334D01*
X99741842Y-90623889D01*
X99741744Y-90623734D01*
X99680217Y-90648855D01*
X99667588Y-90649500D01*
X98436670Y-90649500D01*
X98436654Y-90649499D01*
X98429058Y-90649499D01*
X98270943Y-90649499D01*
X98194579Y-90669961D01*
X98118214Y-90690423D01*
X98118209Y-90690426D01*
X97981290Y-90769475D01*
X97981282Y-90769481D01*
X96719481Y-92031282D01*
X96719475Y-92031290D01*
X96679531Y-92100477D01*
X96679531Y-92100478D01*
X96640423Y-92168215D01*
X96599499Y-92320943D01*
X96599499Y-92320945D01*
X96599499Y-92489046D01*
X96599500Y-92489059D01*
X96599500Y-102313330D01*
X96599499Y-102313348D01*
X96599499Y-102479054D01*
X96599498Y-102479054D01*
X96605105Y-102499980D01*
X96640423Y-102631785D01*
X96652246Y-102652262D01*
X96682763Y-102705119D01*
X96719479Y-102768715D01*
X96838349Y-102887585D01*
X96838355Y-102887590D01*
X97269298Y-103318533D01*
X97302783Y-103379856D01*
X97304837Y-103392330D01*
X97314630Y-103479249D01*
X97374210Y-103649521D01*
X97389724Y-103674211D01*
X97470184Y-103802262D01*
X97597738Y-103929816D01*
X97661983Y-103970184D01*
X97730412Y-104013181D01*
X97750478Y-104025789D01*
X97920745Y-104085368D01*
X97920750Y-104085369D01*
X98099996Y-104105565D01*
X98100000Y-104105565D01*
X98100004Y-104105565D01*
X98279249Y-104085369D01*
X98279252Y-104085368D01*
X98279255Y-104085368D01*
X98449522Y-104025789D01*
X98602262Y-103929816D01*
X98729816Y-103802262D01*
X98825789Y-103649522D01*
X98885368Y-103479255D01*
X98885369Y-103479249D01*
X98905565Y-103300003D01*
X98905565Y-103299996D01*
X98885369Y-103120750D01*
X98885368Y-103120745D01*
X98825788Y-102950476D01*
X98729815Y-102797737D01*
X98602262Y-102670184D01*
X98449521Y-102574210D01*
X98279249Y-102514630D01*
X98192330Y-102504837D01*
X98127916Y-102477770D01*
X98118533Y-102469298D01*
X97836819Y-102187584D01*
X97803334Y-102126261D01*
X97800500Y-102099903D01*
X97800500Y-92700097D01*
X97820185Y-92633058D01*
X97836819Y-92612416D01*
X98562417Y-91886819D01*
X98623740Y-91853334D01*
X98650098Y-91850500D01*
X99056921Y-91850500D01*
X99123960Y-91870185D01*
X99169715Y-91922989D01*
X99179659Y-91992147D01*
X99161915Y-92040472D01*
X99124211Y-92100476D01*
X99064631Y-92270745D01*
X99064630Y-92270750D01*
X99044435Y-92449996D01*
X99044435Y-92450003D01*
X99064630Y-92629249D01*
X99064631Y-92629254D01*
X99124211Y-92799523D01*
X99213897Y-92942257D01*
X99220184Y-92952262D01*
X99347738Y-93079816D01*
X99403149Y-93114633D01*
X99497966Y-93174211D01*
X99500478Y-93175789D01*
X99550839Y-93193411D01*
X99670745Y-93235368D01*
X99670750Y-93235369D01*
X99849996Y-93255565D01*
X99850000Y-93255565D01*
X99850004Y-93255565D01*
X100029249Y-93235369D01*
X100029252Y-93235368D01*
X100029255Y-93235368D01*
X100199522Y-93175789D01*
X100352262Y-93079816D01*
X100479816Y-92952262D01*
X100575789Y-92799522D01*
X100635368Y-92629255D01*
X100638999Y-92597022D01*
X100666063Y-92532611D01*
X100674521Y-92523241D01*
X100687824Y-92509938D01*
X100749146Y-92476458D01*
X100818838Y-92481445D01*
X100874770Y-92523318D01*
X100899184Y-92588784D01*
X100899500Y-92597625D01*
X100899500Y-98656552D01*
X100879815Y-98723591D01*
X100827011Y-98769346D01*
X100823440Y-98770910D01*
X100820553Y-98772120D01*
X100820540Y-98772126D01*
X100792229Y-98785769D01*
X100779359Y-98791103D01*
X100770482Y-98794209D01*
X100770478Y-98794211D01*
X100617737Y-98890184D01*
X100490184Y-99017737D01*
X100394211Y-99170476D01*
X100334631Y-99340745D01*
X100334630Y-99340750D01*
X100314435Y-99519996D01*
X100314435Y-99520003D01*
X100334630Y-99699249D01*
X100334631Y-99699254D01*
X100394211Y-99869523D01*
X100456424Y-99968533D01*
X100490184Y-100022262D01*
X100617738Y-100149816D01*
X100770478Y-100245789D01*
X100924035Y-100299521D01*
X100940745Y-100305368D01*
X100940750Y-100305369D01*
X101119996Y-100325565D01*
X101120000Y-100325565D01*
X101120004Y-100325565D01*
X101299249Y-100305369D01*
X101299252Y-100305368D01*
X101299255Y-100305368D01*
X101469522Y-100245789D01*
X101622262Y-100149816D01*
X101749816Y-100022262D01*
X101845789Y-99869522D01*
X101859002Y-99831759D01*
X101866729Y-99814183D01*
X101876356Y-99796214D01*
X101978041Y-99516776D01*
X101987176Y-99497185D01*
X102030639Y-99421904D01*
X102059577Y-99371785D01*
X102100500Y-99219057D01*
X102100500Y-99060943D01*
X102100500Y-94249996D01*
X102694435Y-94249996D01*
X102694435Y-94250003D01*
X102714630Y-94429249D01*
X102714631Y-94429254D01*
X102774211Y-94599523D01*
X102844181Y-94710879D01*
X102870184Y-94752262D01*
X102997738Y-94879816D01*
X103150478Y-94975789D01*
X103320745Y-95035368D01*
X103407669Y-95045161D01*
X103472080Y-95072226D01*
X103481465Y-95080700D01*
X104115139Y-95714374D01*
X104115149Y-95714385D01*
X104119479Y-95718715D01*
X104119480Y-95718716D01*
X104231284Y-95830520D01*
X104318095Y-95880639D01*
X104318097Y-95880641D01*
X104356151Y-95902611D01*
X104368215Y-95909577D01*
X104520943Y-95950501D01*
X104520946Y-95950501D01*
X104686653Y-95950501D01*
X104686669Y-95950500D01*
X133749903Y-95950500D01*
X133816942Y-95970185D01*
X133837584Y-95986819D01*
X137819298Y-99968533D01*
X137852783Y-100029856D01*
X137854837Y-100042330D01*
X137864630Y-100129249D01*
X137924210Y-100299521D01*
X137927884Y-100305368D01*
X138020184Y-100452262D01*
X138147738Y-100579816D01*
X138218572Y-100624324D01*
X138260192Y-100650476D01*
X138300478Y-100675789D01*
X138470745Y-100735368D01*
X138470750Y-100735369D01*
X138649996Y-100755565D01*
X138650000Y-100755565D01*
X138650004Y-100755565D01*
X138829249Y-100735369D01*
X138829252Y-100735368D01*
X138829255Y-100735368D01*
X138999522Y-100675789D01*
X139152262Y-100579816D01*
X139279816Y-100452262D01*
X139375789Y-100299522D01*
X139435368Y-100129255D01*
X139441960Y-100070750D01*
X139455565Y-99950003D01*
X139455565Y-99949996D01*
X139435369Y-99770750D01*
X139435368Y-99770745D01*
X139375789Y-99600478D01*
X139375174Y-99599500D01*
X139316791Y-99506584D01*
X139279816Y-99447738D01*
X139152262Y-99320184D01*
X139114751Y-99296614D01*
X138999521Y-99224210D01*
X138829249Y-99164630D01*
X138742330Y-99154837D01*
X138677916Y-99127770D01*
X138668533Y-99119298D01*
X134537590Y-94988355D01*
X134537588Y-94988352D01*
X134418717Y-94869481D01*
X134418716Y-94869480D01*
X134314960Y-94809577D01*
X134314959Y-94809576D01*
X134281783Y-94790422D01*
X134208757Y-94770855D01*
X134129057Y-94749499D01*
X133970943Y-94749499D01*
X133963347Y-94749499D01*
X133963331Y-94749500D01*
X104900097Y-94749500D01*
X104833058Y-94729815D01*
X104812416Y-94713181D01*
X104330700Y-94231465D01*
X104297215Y-94170142D01*
X104295163Y-94157686D01*
X104285368Y-94070745D01*
X104225789Y-93900478D01*
X104129816Y-93747738D01*
X104002262Y-93620184D01*
X103891326Y-93550478D01*
X103849523Y-93524211D01*
X103679254Y-93464631D01*
X103679249Y-93464630D01*
X103500004Y-93444435D01*
X103499996Y-93444435D01*
X103320750Y-93464630D01*
X103320745Y-93464631D01*
X103150476Y-93524211D01*
X102997737Y-93620184D01*
X102870184Y-93747737D01*
X102774211Y-93900476D01*
X102714631Y-94070745D01*
X102714630Y-94070750D01*
X102694435Y-94249996D01*
X102100500Y-94249996D01*
X102100500Y-92474500D01*
X102120185Y-92407461D01*
X102172989Y-92361706D01*
X102224500Y-92350500D01*
X126163331Y-92350500D01*
X126163347Y-92350501D01*
X126170943Y-92350501D01*
X126329054Y-92350501D01*
X126329057Y-92350501D01*
X126481785Y-92309577D01*
X126543040Y-92274211D01*
X126618716Y-92230520D01*
X126661953Y-92187281D01*
X126697333Y-92162535D01*
X127067830Y-91990236D01*
X127080117Y-91983878D01*
X127096135Y-91976973D01*
X127099522Y-91975789D01*
X127252262Y-91879816D01*
X127379816Y-91752262D01*
X127475789Y-91599522D01*
X127535368Y-91429255D01*
X127535369Y-91429249D01*
X127555565Y-91250003D01*
X127555565Y-91249996D01*
X127535369Y-91070750D01*
X127535368Y-91070745D01*
X127491122Y-90944297D01*
X127475789Y-90900478D01*
X127379816Y-90747738D01*
X127252262Y-90620184D01*
X127141326Y-90550478D01*
X127107930Y-90529494D01*
X127061639Y-90477159D01*
X127050991Y-90408105D01*
X127079366Y-90344257D01*
X127137756Y-90305885D01*
X127173902Y-90300500D01*
X130700903Y-90300500D01*
X130767942Y-90320185D01*
X130813697Y-90372989D01*
X130823641Y-90442147D01*
X130794616Y-90505703D01*
X130788584Y-90512181D01*
X129464426Y-91836337D01*
X129417699Y-91865697D01*
X129394820Y-91873703D01*
X129250478Y-91924210D01*
X129097737Y-92020184D01*
X128970184Y-92147737D01*
X128874211Y-92300476D01*
X128814631Y-92470745D01*
X128814630Y-92470750D01*
X128794435Y-92649996D01*
X128794435Y-92650003D01*
X128814630Y-92829249D01*
X128814631Y-92829254D01*
X128874211Y-92999523D01*
X128924187Y-93079058D01*
X128970184Y-93152262D01*
X129097738Y-93279816D01*
X129250478Y-93375789D01*
X129389683Y-93424499D01*
X129420745Y-93435368D01*
X129420750Y-93435369D01*
X129599996Y-93455565D01*
X129600000Y-93455565D01*
X129600004Y-93455565D01*
X129779249Y-93435369D01*
X129779252Y-93435368D01*
X129779255Y-93435368D01*
X129949522Y-93375789D01*
X130102262Y-93279816D01*
X130229816Y-93152262D01*
X130325789Y-92999522D01*
X130385368Y-92829255D01*
X130386327Y-92820750D01*
X130405565Y-92650002D01*
X130405565Y-92645031D01*
X130425250Y-92577992D01*
X130441884Y-92557350D01*
X132974537Y-90024698D01*
X135512416Y-87486819D01*
X135573739Y-87453334D01*
X135600097Y-87450500D01*
X199162719Y-87450500D01*
X199229758Y-87470185D01*
X199275513Y-87522989D01*
X199285457Y-87592147D01*
X199256432Y-87655703D01*
X199250400Y-87662181D01*
X196859286Y-90053293D01*
X196829443Y-90075297D01*
X196463829Y-90268090D01*
X196456741Y-90271179D01*
X196456748Y-90271192D01*
X196450474Y-90274213D01*
X196297737Y-90370184D01*
X196170184Y-90497737D01*
X196074211Y-90650476D01*
X196014631Y-90820745D01*
X196014630Y-90820750D01*
X195994435Y-90999996D01*
X195994435Y-91000003D01*
X196014630Y-91179249D01*
X196014631Y-91179254D01*
X196074211Y-91349523D01*
X196170184Y-91502262D01*
X196297738Y-91629816D01*
X196386148Y-91685368D01*
X196441557Y-91720184D01*
X196450478Y-91725789D01*
X196620745Y-91785368D01*
X196620750Y-91785369D01*
X196799996Y-91805565D01*
X196800000Y-91805565D01*
X196800004Y-91805565D01*
X196979249Y-91785369D01*
X196979252Y-91785368D01*
X196979255Y-91785368D01*
X197149522Y-91725789D01*
X197302262Y-91629816D01*
X197429816Y-91502262D01*
X197525789Y-91349522D01*
X197525791Y-91349514D01*
X197528809Y-91343248D01*
X197528822Y-91343254D01*
X197531909Y-91336167D01*
X197724700Y-90970554D01*
X197746699Y-90940718D01*
X198271595Y-90415822D01*
X198332916Y-90382339D01*
X198402608Y-90387323D01*
X198458541Y-90429195D01*
X198482958Y-90494659D01*
X198476316Y-90544459D01*
X198414632Y-90720742D01*
X198414630Y-90720750D01*
X198394435Y-90899996D01*
X198394435Y-90900003D01*
X198414630Y-91079249D01*
X198414631Y-91079254D01*
X198474211Y-91249523D01*
X198474511Y-91250000D01*
X198570184Y-91402262D01*
X198697738Y-91529816D01*
X198754844Y-91565698D01*
X198847966Y-91624211D01*
X198850478Y-91625789D01*
X198861984Y-91629815D01*
X199020745Y-91685368D01*
X199020750Y-91685369D01*
X199199996Y-91705565D01*
X199200000Y-91705565D01*
X199200004Y-91705565D01*
X199379249Y-91685369D01*
X199379252Y-91685368D01*
X199379255Y-91685368D01*
X199549522Y-91625789D01*
X199702262Y-91529816D01*
X199829816Y-91402262D01*
X199859677Y-91354736D01*
X199863165Y-91349490D01*
X200153068Y-90936959D01*
X200166831Y-90920586D01*
X202123600Y-88963819D01*
X202184923Y-88930334D01*
X202211281Y-88927500D01*
X207976216Y-88927500D01*
X208043255Y-88947185D01*
X208089010Y-88999989D01*
X208098954Y-89069147D01*
X208085899Y-89109340D01*
X208081133Y-89118377D01*
X208075296Y-89129447D01*
X208053295Y-89159284D01*
X204076400Y-93136181D01*
X204015077Y-93169666D01*
X203988719Y-93172500D01*
X195347903Y-93172500D01*
X195289185Y-93157716D01*
X195083415Y-93047087D01*
X194965528Y-92983707D01*
X194965525Y-92983705D01*
X194964224Y-92983006D01*
X194964249Y-92982958D01*
X194956088Y-92978337D01*
X194949522Y-92974211D01*
X194949519Y-92974209D01*
X194933956Y-92968764D01*
X194930413Y-92967464D01*
X194869017Y-92943861D01*
X194862898Y-92942257D01*
X194847087Y-92938366D01*
X194779254Y-92914631D01*
X194600004Y-92894435D01*
X194599996Y-92894435D01*
X194420750Y-92914630D01*
X194420745Y-92914631D01*
X194250476Y-92974211D01*
X194097739Y-93070183D01*
X194007995Y-93159927D01*
X193946671Y-93193411D01*
X193876980Y-93188427D01*
X193854349Y-93177243D01*
X193849521Y-93174210D01*
X193679262Y-93114633D01*
X193679249Y-93114630D01*
X193500004Y-93094435D01*
X193499996Y-93094435D01*
X193320750Y-93114630D01*
X193320745Y-93114631D01*
X193150476Y-93174211D01*
X192997737Y-93270184D01*
X192870184Y-93397737D01*
X192774211Y-93550476D01*
X192714631Y-93720745D01*
X192714630Y-93720750D01*
X192694435Y-93899996D01*
X192694435Y-93900003D01*
X192714630Y-94079249D01*
X192714631Y-94079254D01*
X192774211Y-94249523D01*
X192811915Y-94309528D01*
X192830915Y-94376765D01*
X192810547Y-94443600D01*
X192757279Y-94488814D01*
X192706921Y-94499500D01*
X189229057Y-94499500D01*
X189070943Y-94499500D01*
X188918215Y-94540423D01*
X188918214Y-94540423D01*
X188918212Y-94540424D01*
X188918209Y-94540425D01*
X188881185Y-94561802D01*
X188881183Y-94561803D01*
X188781290Y-94619475D01*
X188781282Y-94619481D01*
X185400988Y-97999776D01*
X185339665Y-98033261D01*
X185269973Y-98028277D01*
X185247337Y-98017089D01*
X185207053Y-97991777D01*
X185099524Y-97924211D01*
X184929254Y-97864631D01*
X184929249Y-97864630D01*
X184750004Y-97844435D01*
X184749996Y-97844435D01*
X184570750Y-97864630D01*
X184570745Y-97864631D01*
X184400476Y-97924211D01*
X184247737Y-98020184D01*
X184120184Y-98147737D01*
X184024211Y-98300476D01*
X183964631Y-98470745D01*
X183964630Y-98470750D01*
X183944435Y-98649996D01*
X183944435Y-98650003D01*
X183964630Y-98829249D01*
X183964631Y-98829254D01*
X184024211Y-98999523D01*
X184076367Y-99082528D01*
X184095367Y-99149765D01*
X184074999Y-99216600D01*
X184021731Y-99261814D01*
X183971373Y-99272500D01*
X183738192Y-99272500D01*
X183616972Y-99296612D01*
X183616964Y-99296614D01*
X183546531Y-99325789D01*
X183502770Y-99343915D01*
X183502760Y-99343920D01*
X183422218Y-99397738D01*
X183422217Y-99397739D01*
X183399989Y-99412590D01*
X182638432Y-100174147D01*
X182577109Y-100207632D01*
X182564637Y-100209686D01*
X182520745Y-100214632D01*
X182350478Y-100274210D01*
X182197737Y-100370184D01*
X182070184Y-100497737D01*
X181974211Y-100650476D01*
X181914631Y-100820745D01*
X181914630Y-100820750D01*
X181894435Y-100999996D01*
X181894435Y-101000003D01*
X181914630Y-101179249D01*
X181914631Y-101179254D01*
X181974211Y-101349523D01*
X182067341Y-101497737D01*
X182070184Y-101502262D01*
X182197738Y-101629816D01*
X182350478Y-101725789D01*
X182503258Y-101779249D01*
X182520745Y-101785368D01*
X182520750Y-101785369D01*
X182699996Y-101805565D01*
X182700000Y-101805565D01*
X182700004Y-101805565D01*
X182879249Y-101785369D01*
X182879252Y-101785368D01*
X182879255Y-101785368D01*
X183049522Y-101725789D01*
X183202262Y-101629816D01*
X183329816Y-101502262D01*
X183425789Y-101349522D01*
X183485368Y-101179255D01*
X183490313Y-101135361D01*
X183517378Y-101070951D01*
X183525842Y-101061575D01*
X184023600Y-100563819D01*
X184084923Y-100530334D01*
X184111281Y-100527500D01*
X186608328Y-100527500D01*
X186674300Y-100546506D01*
X186798144Y-100624323D01*
X186800478Y-100625789D01*
X186943367Y-100675788D01*
X186970745Y-100685368D01*
X186970750Y-100685369D01*
X187149996Y-100705565D01*
X187150000Y-100705565D01*
X187150004Y-100705565D01*
X187329249Y-100685369D01*
X187329252Y-100685368D01*
X187329255Y-100685368D01*
X187499522Y-100625789D01*
X187625700Y-100546505D01*
X187691672Y-100527500D01*
X189088719Y-100527500D01*
X189155758Y-100547185D01*
X189176400Y-100563819D01*
X192211449Y-103598868D01*
X192244934Y-103660191D01*
X192246988Y-103672665D01*
X192264630Y-103829250D01*
X192264633Y-103829262D01*
X192283978Y-103884545D01*
X192287540Y-103954324D01*
X192252812Y-104014951D01*
X192190818Y-104047179D01*
X192166937Y-104049500D01*
X158343707Y-104049500D01*
X158276668Y-104029815D01*
X158238713Y-103991472D01*
X158190277Y-103914387D01*
X158179816Y-103897738D01*
X158052262Y-103770184D01*
X157972185Y-103719868D01*
X157899523Y-103674211D01*
X157729254Y-103614631D01*
X157729249Y-103614630D01*
X157550004Y-103594435D01*
X157549996Y-103594435D01*
X157370750Y-103614630D01*
X157370745Y-103614631D01*
X157200476Y-103674211D01*
X157047737Y-103770184D01*
X156920184Y-103897737D01*
X156824211Y-104050476D01*
X156764631Y-104220745D01*
X156764630Y-104220749D01*
X156751264Y-104339384D01*
X156724197Y-104403798D01*
X156666603Y-104443353D01*
X156628044Y-104449500D01*
X154871956Y-104449500D01*
X154804917Y-104429815D01*
X154759162Y-104377011D01*
X154748736Y-104339384D01*
X154735369Y-104220749D01*
X154735368Y-104220745D01*
X154717872Y-104170744D01*
X154675789Y-104050478D01*
X154675174Y-104049500D01*
X154608504Y-103943395D01*
X154579816Y-103897738D01*
X154452262Y-103770184D01*
X154372185Y-103719868D01*
X154299523Y-103674211D01*
X154129254Y-103614631D01*
X154129249Y-103614630D01*
X153950004Y-103594435D01*
X153949996Y-103594435D01*
X153770750Y-103614630D01*
X153770745Y-103614631D01*
X153600476Y-103674211D01*
X153447737Y-103770184D01*
X153320184Y-103897737D01*
X153224211Y-104050476D01*
X153164631Y-104220745D01*
X153164630Y-104220750D01*
X153144435Y-104399996D01*
X153144435Y-104400003D01*
X153164630Y-104579249D01*
X153164633Y-104579262D01*
X153201474Y-104684545D01*
X153205036Y-104754324D01*
X153170308Y-104814951D01*
X153108314Y-104847179D01*
X153084433Y-104849500D01*
X151800097Y-104849500D01*
X151733058Y-104829815D01*
X151712416Y-104813181D01*
X151280700Y-104381465D01*
X151247215Y-104320142D01*
X151245163Y-104307686D01*
X151235368Y-104220745D01*
X151175789Y-104050478D01*
X151079816Y-103897738D01*
X150952262Y-103770184D01*
X150872185Y-103719868D01*
X150799523Y-103674211D01*
X150629254Y-103614631D01*
X150629249Y-103614630D01*
X150450004Y-103594435D01*
X150449996Y-103594435D01*
X150270750Y-103614630D01*
X150270745Y-103614631D01*
X150100476Y-103674211D01*
X149947737Y-103770184D01*
X149820184Y-103897737D01*
X149724211Y-104050476D01*
X149664631Y-104220745D01*
X149664630Y-104220750D01*
X149644435Y-104399996D01*
X149644435Y-104400003D01*
X149664630Y-104579249D01*
X149664631Y-104579254D01*
X149724211Y-104749523D01*
X149820184Y-104902262D01*
X149952662Y-105034740D01*
X149951390Y-105036011D01*
X149986295Y-105085740D01*
X149989145Y-105155552D01*
X149953800Y-105215822D01*
X149891482Y-105247416D01*
X149868842Y-105249500D01*
X148350097Y-105249500D01*
X148283058Y-105229815D01*
X148262416Y-105213181D01*
X147631959Y-104582724D01*
X147598474Y-104521401D01*
X147596420Y-104481158D01*
X147600421Y-104445657D01*
X147605565Y-104400000D01*
X147605565Y-104399996D01*
X147585369Y-104220750D01*
X147585368Y-104220745D01*
X147567872Y-104170744D01*
X147525789Y-104050478D01*
X147525174Y-104049500D01*
X147458504Y-103943395D01*
X147429816Y-103897738D01*
X147302262Y-103770184D01*
X147222185Y-103719868D01*
X147149523Y-103674211D01*
X146979254Y-103614631D01*
X146979249Y-103614630D01*
X146800004Y-103594435D01*
X146799996Y-103594435D01*
X146620750Y-103614630D01*
X146620745Y-103614631D01*
X146450476Y-103674211D01*
X146297737Y-103770184D01*
X146170184Y-103897737D01*
X146074211Y-104050476D01*
X146014631Y-104220745D01*
X146014630Y-104220750D01*
X145994435Y-104399996D01*
X145994435Y-104400003D01*
X146014630Y-104579249D01*
X146014631Y-104579254D01*
X146074211Y-104749523D01*
X146124662Y-104829815D01*
X146170184Y-104902262D01*
X146297738Y-105029816D01*
X146450478Y-105125789D01*
X146463871Y-105130475D01*
X146510602Y-105159837D01*
X146788584Y-105437819D01*
X146822069Y-105499142D01*
X146817085Y-105568834D01*
X146775213Y-105624767D01*
X146709749Y-105649184D01*
X146700903Y-105649500D01*
X145050097Y-105649500D01*
X144983058Y-105629815D01*
X144962416Y-105613181D01*
X143940486Y-104591251D01*
X143907001Y-104529928D01*
X143904947Y-104489685D01*
X143909908Y-104445658D01*
X143909908Y-104445653D01*
X143889712Y-104266407D01*
X143889711Y-104266402D01*
X143859217Y-104179255D01*
X143830132Y-104096135D01*
X143734159Y-103943395D01*
X143606605Y-103815841D01*
X143584994Y-103802262D01*
X143453866Y-103719868D01*
X143283597Y-103660288D01*
X143283592Y-103660287D01*
X143104347Y-103640092D01*
X143104339Y-103640092D01*
X142925093Y-103660287D01*
X142925088Y-103660288D01*
X142754819Y-103719868D01*
X142602080Y-103815841D01*
X142474527Y-103943394D01*
X142378554Y-104096133D01*
X142318974Y-104266402D01*
X142318973Y-104266407D01*
X142298778Y-104445653D01*
X142298778Y-104445660D01*
X142318973Y-104624906D01*
X142318974Y-104624911D01*
X142378554Y-104795180D01*
X142444415Y-104899996D01*
X142474527Y-104947919D01*
X142602081Y-105075473D01*
X142682158Y-105125789D01*
X142729546Y-105155565D01*
X142754821Y-105171446D01*
X142831771Y-105198371D01*
X142878497Y-105227732D01*
X143488584Y-105837819D01*
X143522069Y-105899142D01*
X143517085Y-105968834D01*
X143475213Y-106024767D01*
X143409749Y-106049184D01*
X143400903Y-106049500D01*
X142100097Y-106049500D01*
X142033058Y-106029815D01*
X142012416Y-106013181D01*
X140274351Y-104275116D01*
X140240866Y-104213793D01*
X140238813Y-104201332D01*
X140235368Y-104170745D01*
X140175789Y-104000478D01*
X140079816Y-103847738D01*
X139952262Y-103720184D01*
X139951759Y-103719868D01*
X139799523Y-103624211D01*
X139629254Y-103564631D01*
X139629249Y-103564630D01*
X139450004Y-103544435D01*
X139449996Y-103544435D01*
X139270750Y-103564630D01*
X139270745Y-103564631D01*
X139100476Y-103624211D01*
X138947737Y-103720184D01*
X138820184Y-103847737D01*
X138724211Y-104000476D01*
X138664631Y-104170745D01*
X138664630Y-104170750D01*
X138644435Y-104349996D01*
X138644435Y-104350003D01*
X138664630Y-104529249D01*
X138664631Y-104529254D01*
X138724211Y-104699523D01*
X138784316Y-104795179D01*
X138820184Y-104852262D01*
X138947738Y-104979816D01*
X139100478Y-105075789D01*
X139243370Y-105125789D01*
X139270745Y-105135368D01*
X139270750Y-105135369D01*
X139414017Y-105151511D01*
X139478431Y-105178577D01*
X139487815Y-105187050D01*
X141315139Y-107014374D01*
X141315149Y-107014385D01*
X141319479Y-107018715D01*
X141319480Y-107018716D01*
X141431284Y-107130520D01*
X141518095Y-107180639D01*
X141518097Y-107180641D01*
X141568213Y-107209576D01*
X141568215Y-107209577D01*
X141639677Y-107228725D01*
X141699338Y-107265090D01*
X141729867Y-107327937D01*
X141721572Y-107397312D01*
X141677087Y-107451190D01*
X141610535Y-107472465D01*
X141607584Y-107472500D01*
X87236281Y-107472500D01*
X87169242Y-107452815D01*
X87148600Y-107436181D01*
X83550941Y-103838522D01*
X83530827Y-103812129D01*
X83478550Y-103720184D01*
X83331109Y-103460862D01*
X83327185Y-103453377D01*
X83325788Y-103450476D01*
X83318245Y-103438471D01*
X83316840Y-103436179D01*
X83310448Y-103425484D01*
X83310442Y-103425477D01*
X83309620Y-103424327D01*
X83305488Y-103418169D01*
X83229816Y-103297738D01*
X83102262Y-103170184D01*
X82949523Y-103074211D01*
X82779254Y-103014631D01*
X82779249Y-103014630D01*
X82600004Y-102994435D01*
X82599996Y-102994435D01*
X82420750Y-103014630D01*
X82420745Y-103014631D01*
X82250476Y-103074211D01*
X82097737Y-103170184D01*
X81970184Y-103297737D01*
X81874211Y-103450476D01*
X81814631Y-103620745D01*
X81814630Y-103620750D01*
X81794435Y-103799996D01*
X81794435Y-103800003D01*
X81814630Y-103979249D01*
X81814631Y-103979254D01*
X81874211Y-104149523D01*
X81947655Y-104266407D01*
X81970184Y-104302262D01*
X82097738Y-104429816D01*
X82250478Y-104525789D01*
X82252442Y-104526476D01*
X82273269Y-104536004D01*
X82275184Y-104537104D01*
X82275189Y-104537108D01*
X82275193Y-104537110D01*
X82275195Y-104537111D01*
X82302860Y-104550478D01*
X82642311Y-104714494D01*
X82676044Y-104738463D01*
X85798400Y-107860819D01*
X85831885Y-107922142D01*
X85826901Y-107991834D01*
X85785029Y-108047767D01*
X85719565Y-108072184D01*
X85710719Y-108072500D01*
X84811281Y-108072500D01*
X84744242Y-108052815D01*
X84723600Y-108036181D01*
X81346703Y-104659284D01*
X81324699Y-104629441D01*
X81309176Y-104600003D01*
X81131909Y-104263830D01*
X81128822Y-104256744D01*
X81128810Y-104256751D01*
X81125789Y-104250477D01*
X81029815Y-104097737D01*
X80902262Y-103970184D01*
X80749523Y-103874211D01*
X80579254Y-103814631D01*
X80579249Y-103814630D01*
X80400004Y-103794435D01*
X80399996Y-103794435D01*
X80220750Y-103814630D01*
X80220745Y-103814631D01*
X80050476Y-103874211D01*
X79897737Y-103970184D01*
X79770184Y-104097737D01*
X79674211Y-104250476D01*
X79614631Y-104420745D01*
X79614630Y-104420750D01*
X79594435Y-104599996D01*
X79594435Y-104600003D01*
X79614630Y-104779249D01*
X79614631Y-104779254D01*
X79674211Y-104949523D01*
X79770184Y-105102262D01*
X79897738Y-105229816D01*
X80050478Y-105325789D01*
X80050482Y-105325790D01*
X80056746Y-105328807D01*
X80056739Y-105328819D01*
X80063824Y-105331905D01*
X80380974Y-105499142D01*
X80429441Y-105524699D01*
X80459284Y-105546703D01*
X83323400Y-108410819D01*
X83356885Y-108472142D01*
X83351901Y-108541834D01*
X83310029Y-108597767D01*
X83244565Y-108622184D01*
X83235719Y-108622500D01*
X77511281Y-108622500D01*
X77444242Y-108602815D01*
X77423600Y-108586181D01*
X71851852Y-103014433D01*
X71818367Y-102953110D01*
X71816314Y-102940648D01*
X71811368Y-102896745D01*
X71751789Y-102726478D01*
X71751355Y-102725788D01*
X71691052Y-102629816D01*
X71655816Y-102573738D01*
X71528262Y-102446184D01*
X71375523Y-102350211D01*
X71205254Y-102290631D01*
X71205249Y-102290630D01*
X71026004Y-102270435D01*
X71025996Y-102270435D01*
X70846750Y-102290630D01*
X70846745Y-102290631D01*
X70669905Y-102352511D01*
X70669311Y-102350814D01*
X70609348Y-102360683D01*
X70545216Y-102332955D01*
X70506256Y-102274956D01*
X70500499Y-102237612D01*
X70500499Y-97213576D01*
X79025500Y-97213576D01*
X79025500Y-97410421D01*
X79056290Y-97604825D01*
X79117117Y-97792028D01*
X79154111Y-97864632D01*
X79206476Y-97967404D01*
X79322172Y-98126645D01*
X79461354Y-98265827D01*
X79620595Y-98381523D01*
X79703455Y-98423742D01*
X79795970Y-98470881D01*
X79795972Y-98470881D01*
X79795975Y-98470883D01*
X79892454Y-98502231D01*
X79983173Y-98531708D01*
X80177578Y-98562499D01*
X80177583Y-98562499D01*
X80374422Y-98562499D01*
X80568826Y-98531708D01*
X80756025Y-98470883D01*
X80931405Y-98381523D01*
X81090646Y-98265827D01*
X81229828Y-98126645D01*
X81345524Y-97967404D01*
X81434884Y-97792024D01*
X81495709Y-97604825D01*
X81497131Y-97595847D01*
X81526500Y-97410421D01*
X81526500Y-97213576D01*
X81495709Y-97019172D01*
X81464853Y-96924210D01*
X81434884Y-96831974D01*
X81434882Y-96831971D01*
X81434882Y-96831969D01*
X81377925Y-96720185D01*
X81345524Y-96656594D01*
X81229828Y-96497353D01*
X81090646Y-96358171D01*
X80931405Y-96242475D01*
X80868880Y-96210617D01*
X80756029Y-96153116D01*
X80568826Y-96092289D01*
X80374422Y-96061499D01*
X80374417Y-96061499D01*
X80177583Y-96061499D01*
X80177578Y-96061499D01*
X79983173Y-96092289D01*
X79795970Y-96153116D01*
X79620594Y-96242475D01*
X79607124Y-96252262D01*
X79461354Y-96358171D01*
X79461352Y-96358173D01*
X79461351Y-96358173D01*
X79322174Y-96497350D01*
X79322174Y-96497351D01*
X79322172Y-96497353D01*
X79292859Y-96537699D01*
X79206476Y-96656593D01*
X79117117Y-96831969D01*
X79056290Y-97019172D01*
X79025500Y-97213576D01*
X70500499Y-97213576D01*
X70500499Y-83213576D01*
X79025500Y-83213576D01*
X79025500Y-83410421D01*
X79056290Y-83604825D01*
X79117117Y-83792028D01*
X79206476Y-83967404D01*
X79322172Y-84126645D01*
X79461354Y-84265827D01*
X79620595Y-84381523D01*
X79701977Y-84422989D01*
X79795970Y-84470881D01*
X79795972Y-84470881D01*
X79795975Y-84470883D01*
X79887052Y-84500476D01*
X79983173Y-84531708D01*
X80177578Y-84562499D01*
X80177583Y-84562499D01*
X80374422Y-84562499D01*
X80568826Y-84531708D01*
X80756025Y-84470883D01*
X80931405Y-84381523D01*
X81090646Y-84265827D01*
X81229828Y-84126645D01*
X81345524Y-83967404D01*
X81434884Y-83792024D01*
X81495709Y-83604825D01*
X81504540Y-83549069D01*
X81526500Y-83410421D01*
X81526500Y-83213576D01*
X81495709Y-83019172D01*
X81434882Y-82831969D01*
X81375095Y-82714631D01*
X81345524Y-82656594D01*
X81229828Y-82497353D01*
X81090646Y-82358171D01*
X80931405Y-82242475D01*
X80930997Y-82242267D01*
X80756029Y-82153116D01*
X80568826Y-82092289D01*
X80374422Y-82061499D01*
X80374417Y-82061499D01*
X80177583Y-82061499D01*
X80177578Y-82061499D01*
X79983173Y-82092289D01*
X79795970Y-82153116D01*
X79620594Y-82242475D01*
X79554116Y-82290775D01*
X79461354Y-82358171D01*
X79461352Y-82358173D01*
X79461351Y-82358173D01*
X79322174Y-82497350D01*
X79322174Y-82497351D01*
X79322172Y-82497353D01*
X79306096Y-82519480D01*
X79206476Y-82656593D01*
X79117117Y-82831969D01*
X79056290Y-83019172D01*
X79025500Y-83213576D01*
X70500499Y-83213576D01*
X70500499Y-82004427D01*
X70500815Y-81995581D01*
X70506572Y-81915084D01*
X70515129Y-81795436D01*
X70517645Y-81777938D01*
X70559355Y-81586199D01*
X70564332Y-81569248D01*
X70632910Y-81385385D01*
X70640258Y-81369298D01*
X70702814Y-81254734D01*
X70734290Y-81197089D01*
X70743844Y-81182221D01*
X70861447Y-81025123D01*
X70873019Y-81011769D01*
X71011769Y-80873019D01*
X71025123Y-80861447D01*
X71182221Y-80743844D01*
X71197089Y-80734290D01*
X71369298Y-80640257D01*
X71385385Y-80632910D01*
X71569248Y-80564332D01*
X71586199Y-80559355D01*
X71777938Y-80517645D01*
X71795436Y-80515129D01*
X71995582Y-80500815D01*
X72004428Y-80500499D01*
X72065892Y-80500499D01*
X190938771Y-80500499D01*
X191005810Y-80520184D01*
G37*
%TD.AperFunction*%
%TA.AperFunction,Conductor*%
G36*
X208202757Y-102547185D02*
G01*
X208248512Y-102599989D01*
X208258456Y-102669147D01*
X208229431Y-102732703D01*
X208223399Y-102739181D01*
X202376400Y-108586181D01*
X202315077Y-108619666D01*
X202288719Y-108622500D01*
X200464281Y-108622500D01*
X200397242Y-108602815D01*
X200351487Y-108550011D01*
X200341543Y-108480853D01*
X200370568Y-108417297D01*
X200376600Y-108410819D01*
X206223600Y-102563819D01*
X206284923Y-102530334D01*
X206311281Y-102527500D01*
X208135718Y-102527500D01*
X208202757Y-102547185D01*
G37*
%TD.AperFunction*%
%TA.AperFunction,Conductor*%
G36*
X209316942Y-96120185D02*
G01*
X209337583Y-96136818D01*
X210177025Y-96976261D01*
X210969298Y-97768534D01*
X211002783Y-97829857D01*
X211004837Y-97842331D01*
X211014630Y-97929249D01*
X211074210Y-98099521D01*
X211104507Y-98147738D01*
X211170184Y-98252262D01*
X211297738Y-98379816D01*
X211300455Y-98381523D01*
X211442450Y-98470745D01*
X211450478Y-98475789D01*
X211510250Y-98496704D01*
X211620745Y-98535368D01*
X211620750Y-98535369D01*
X211799996Y-98555565D01*
X211800000Y-98555565D01*
X211800004Y-98555565D01*
X211979249Y-98535369D01*
X211979252Y-98535368D01*
X211979255Y-98535368D01*
X212149522Y-98475789D01*
X212302262Y-98379816D01*
X212429816Y-98252262D01*
X212429816Y-98252261D01*
X212434740Y-98247338D01*
X212436271Y-98248869D01*
X212484932Y-98214702D01*
X212554743Y-98211841D01*
X212612390Y-98244468D01*
X212647738Y-98279816D01*
X212800478Y-98375789D01*
X212965255Y-98433447D01*
X212970745Y-98435368D01*
X212970750Y-98435369D01*
X213149996Y-98455565D01*
X213150000Y-98455565D01*
X213150004Y-98455565D01*
X213329249Y-98435369D01*
X213329252Y-98435368D01*
X213329255Y-98435368D01*
X213499522Y-98375789D01*
X213604929Y-98309556D01*
X213672166Y-98290556D01*
X213739001Y-98310923D01*
X213784216Y-98364191D01*
X213793454Y-98433447D01*
X213763782Y-98496704D01*
X213758583Y-98502231D01*
X212697634Y-99563181D01*
X212636311Y-99596666D01*
X212609953Y-99599500D01*
X207405068Y-99599500D01*
X207339096Y-99580494D01*
X207249522Y-99524210D01*
X207249518Y-99524209D01*
X207079262Y-99464633D01*
X207079249Y-99464630D01*
X206900004Y-99444435D01*
X206899996Y-99444435D01*
X206720750Y-99464630D01*
X206720745Y-99464631D01*
X206550476Y-99524211D01*
X206397737Y-99620184D01*
X206270184Y-99747737D01*
X206174211Y-99900476D01*
X206114631Y-100070745D01*
X206114630Y-100070750D01*
X206094435Y-100249996D01*
X206094435Y-100250003D01*
X206115235Y-100434617D01*
X206103180Y-100503439D01*
X206055831Y-100554818D01*
X205992015Y-100572500D01*
X205638192Y-100572500D01*
X205516973Y-100596611D01*
X205516973Y-100596612D01*
X205516970Y-100596613D01*
X205516966Y-100596614D01*
X205450070Y-100624323D01*
X205450068Y-100624323D01*
X205402768Y-100643916D01*
X205402764Y-100643918D01*
X205325601Y-100695477D01*
X205325601Y-100695478D01*
X205299989Y-100712590D01*
X201017158Y-104995421D01*
X200955835Y-105028906D01*
X200886143Y-105023922D01*
X200830210Y-104982050D01*
X200805793Y-104916586D01*
X200805993Y-104906964D01*
X200805565Y-104906964D01*
X200805565Y-104899996D01*
X200785369Y-104720750D01*
X200785368Y-104720745D01*
X200725788Y-104550475D01*
X200704108Y-104515973D01*
X200685107Y-104448737D01*
X200704108Y-104384027D01*
X200725788Y-104349524D01*
X200729336Y-104339384D01*
X200785368Y-104179255D01*
X200785369Y-104179249D01*
X200805565Y-104000003D01*
X200805565Y-103999996D01*
X200785369Y-103820750D01*
X200785368Y-103820745D01*
X200725788Y-103650475D01*
X200704108Y-103615973D01*
X200685107Y-103548737D01*
X200704108Y-103484027D01*
X200725788Y-103449524D01*
X200730057Y-103437324D01*
X200785368Y-103279255D01*
X200797391Y-103172548D01*
X200805565Y-103100003D01*
X200805565Y-103099996D01*
X200785369Y-102920750D01*
X200785368Y-102920745D01*
X200742326Y-102797738D01*
X200725789Y-102750478D01*
X200629816Y-102597738D01*
X200502262Y-102470184D01*
X200500852Y-102469298D01*
X200349523Y-102374211D01*
X200179254Y-102314631D01*
X200179249Y-102314630D01*
X200000004Y-102294435D01*
X199999996Y-102294435D01*
X199963108Y-102298591D01*
X199894286Y-102286536D01*
X199842907Y-102239187D01*
X199825283Y-102171576D01*
X199847010Y-102105171D01*
X199861539Y-102087695D01*
X204325750Y-97623484D01*
X204367849Y-97595848D01*
X204732739Y-97451637D01*
X204735799Y-97450415D01*
X204735943Y-97450357D01*
X204769261Y-97434680D01*
X204781082Y-97429848D01*
X204792683Y-97425789D01*
X204945423Y-97329816D01*
X205072977Y-97202262D01*
X205168950Y-97049522D01*
X205228529Y-96879255D01*
X205231281Y-96854837D01*
X205236263Y-96810617D01*
X205263329Y-96746203D01*
X205320924Y-96706648D01*
X205359483Y-96700500D01*
X207267588Y-96700500D01*
X207334627Y-96720185D01*
X207344903Y-96727555D01*
X207347736Y-96729814D01*
X207347738Y-96729816D01*
X207446582Y-96791924D01*
X207492450Y-96820745D01*
X207500478Y-96825789D01*
X207611479Y-96864630D01*
X207670745Y-96885368D01*
X207670750Y-96885369D01*
X207849996Y-96905565D01*
X207850000Y-96905565D01*
X207850004Y-96905565D01*
X208029249Y-96885369D01*
X208029252Y-96885368D01*
X208029255Y-96885368D01*
X208199522Y-96825789D01*
X208352262Y-96729816D01*
X208479816Y-96602262D01*
X208575789Y-96449522D01*
X208635368Y-96279255D01*
X208638410Y-96252262D01*
X208643102Y-96210617D01*
X208670168Y-96146203D01*
X208727763Y-96106648D01*
X208766322Y-96100500D01*
X209249903Y-96100500D01*
X209316942Y-96120185D01*
G37*
%TD.AperFunction*%
%TA.AperFunction,Conductor*%
G36*
X202169413Y-96120185D02*
G01*
X202215168Y-96172989D01*
X202225112Y-96242147D01*
X202196087Y-96305703D01*
X202190055Y-96312181D01*
X194489055Y-104013181D01*
X194427732Y-104046666D01*
X194401374Y-104049500D01*
X193933063Y-104049500D01*
X193866024Y-104029815D01*
X193820269Y-103977011D01*
X193810325Y-103907853D01*
X193816022Y-103884545D01*
X193835366Y-103829262D01*
X193835369Y-103829249D01*
X193855565Y-103650003D01*
X193855565Y-103649996D01*
X193835369Y-103470750D01*
X193835368Y-103470745D01*
X193807929Y-103392330D01*
X193775789Y-103300478D01*
X193774067Y-103297738D01*
X193695405Y-103172548D01*
X193679816Y-103147738D01*
X193552262Y-103020184D01*
X193449422Y-102955565D01*
X193399521Y-102924210D01*
X193294865Y-102887590D01*
X193291033Y-102886249D01*
X193244308Y-102856889D01*
X189800011Y-99412591D01*
X189800010Y-99412590D01*
X189777783Y-99397739D01*
X189777782Y-99397738D01*
X189697239Y-99343920D01*
X189697226Y-99343913D01*
X189653469Y-99325789D01*
X189583035Y-99296614D01*
X189583027Y-99296612D01*
X189461807Y-99272500D01*
X189461803Y-99272500D01*
X187691672Y-99272500D01*
X187625700Y-99253494D01*
X187499520Y-99174209D01*
X187470110Y-99163919D01*
X187413333Y-99123198D01*
X187387585Y-99058245D01*
X187401041Y-98989684D01*
X187406071Y-98980903D01*
X187425788Y-98949523D01*
X187425789Y-98949522D01*
X187485368Y-98779255D01*
X187495161Y-98692329D01*
X187522226Y-98627918D01*
X187530690Y-98618543D01*
X190012416Y-96136819D01*
X190073739Y-96103334D01*
X190100097Y-96100500D01*
X202102374Y-96100500D01*
X202169413Y-96120185D01*
G37*
%TD.AperFunction*%
%TD*%
%TA.AperFunction,Conductor*%
%TO.N,/Display/SG_A*%
G36*
X121427635Y-83952350D02*
G01*
X121984398Y-84048326D01*
X121991967Y-84053107D01*
X121994109Y-84059855D01*
X121994109Y-84243350D01*
X121990682Y-84251623D01*
X121988396Y-84253402D01*
X121540389Y-84520262D01*
X121531528Y-84521552D01*
X121524350Y-84516197D01*
X121523606Y-84514721D01*
X121414421Y-84253402D01*
X121413910Y-84252178D01*
X121413007Y-84247636D01*
X121413953Y-83963839D01*
X121417407Y-83955580D01*
X121425692Y-83952181D01*
X121427635Y-83952350D01*
G37*
%TD.AperFunction*%
%TD*%
%TA.AperFunction,Conductor*%
%TO.N,/Display/SG_C*%
G36*
X114592313Y-86647193D02*
G01*
X114598909Y-86653249D01*
X114600000Y-86658183D01*
X114600000Y-86841816D01*
X114596573Y-86850089D01*
X114592313Y-86852806D01*
X114125305Y-87023330D01*
X114116358Y-87022949D01*
X114110496Y-87016851D01*
X114000883Y-86754509D01*
X114000857Y-86745556D01*
X114000862Y-86745542D01*
X114110496Y-86483147D01*
X114116848Y-86476836D01*
X114125302Y-86476669D01*
X114592313Y-86647193D01*
G37*
%TD.AperFunction*%
%TD*%
%TA.AperFunction,Conductor*%
%TO.N,/Display/SG_C*%
G36*
X99842313Y-86647193D02*
G01*
X99848909Y-86653249D01*
X99850000Y-86658183D01*
X99850000Y-86841816D01*
X99846573Y-86850089D01*
X99842313Y-86852806D01*
X99375305Y-87023330D01*
X99366358Y-87022949D01*
X99360496Y-87016851D01*
X99250883Y-86754509D01*
X99250857Y-86745556D01*
X99250862Y-86745542D01*
X99360496Y-86483147D01*
X99366848Y-86476836D01*
X99375302Y-86476669D01*
X99842313Y-86647193D01*
G37*
%TD.AperFunction*%
%TD*%
%TA.AperFunction,Conductor*%
%TO.N,/Display/SG_G*%
G36*
X117072548Y-82816703D02*
G01*
X117075000Y-82823870D01*
X117075000Y-82988908D01*
X117071573Y-82997181D01*
X117063924Y-83000591D01*
X116835210Y-83012808D01*
X116826766Y-83009828D01*
X116822903Y-83001749D01*
X116825883Y-82993305D01*
X116827413Y-82991882D01*
X117056133Y-82814621D01*
X117064771Y-82812263D01*
X117072548Y-82816703D01*
G37*
%TD.AperFunction*%
%TD*%
%TA.AperFunction,Conductor*%
%TO.N,/Display/SG_C*%
G36*
X121133641Y-86477050D02*
G01*
X121139503Y-86483148D01*
X121249115Y-86745489D01*
X121249142Y-86754444D01*
X121249115Y-86754511D01*
X121139503Y-87016851D01*
X121133151Y-87023163D01*
X121124694Y-87023329D01*
X120990947Y-86974493D01*
X120657687Y-86852806D01*
X120651091Y-86846750D01*
X120650000Y-86841816D01*
X120650000Y-86658183D01*
X120653427Y-86649910D01*
X120657687Y-86647193D01*
X121124697Y-86476669D01*
X121133641Y-86477050D01*
G37*
%TD.AperFunction*%
%TD*%
%TA.AperFunction,Conductor*%
%TO.N,/Display/SG_C*%
G36*
X128663641Y-86477050D02*
G01*
X128669503Y-86483148D01*
X128779115Y-86745489D01*
X128779142Y-86754444D01*
X128779115Y-86754511D01*
X128669503Y-87016851D01*
X128663151Y-87023163D01*
X128654694Y-87023329D01*
X128520947Y-86974493D01*
X128187687Y-86852806D01*
X128181091Y-86846750D01*
X128180000Y-86841816D01*
X128180000Y-86658183D01*
X128183427Y-86649910D01*
X128187687Y-86647193D01*
X128654697Y-86476669D01*
X128663641Y-86477050D01*
G37*
%TD.AperFunction*%
%TD*%
%TA.AperFunction,Conductor*%
%TO.N,MCU_A1*%
G36*
X82876593Y-103689133D02*
G01*
X82882253Y-103694146D01*
X83119673Y-104111724D01*
X83120783Y-104120609D01*
X83117775Y-104125779D01*
X82950353Y-104293201D01*
X82942080Y-104296628D01*
X82936990Y-104295463D01*
X82495111Y-104081955D01*
X82489153Y-104075270D01*
X82489378Y-104066976D01*
X82597436Y-103803815D01*
X82603746Y-103797464D01*
X82867639Y-103689106D01*
X82876593Y-103689133D01*
G37*
%TD.AperFunction*%
%TD*%
%TA.AperFunction,Conductor*%
%TO.N,/Display/SG_D*%
G36*
X103599641Y-87227050D02*
G01*
X103605503Y-87233148D01*
X103715115Y-87495489D01*
X103715142Y-87504444D01*
X103715115Y-87504511D01*
X103605503Y-87766851D01*
X103599151Y-87773163D01*
X103590694Y-87773329D01*
X103456947Y-87724493D01*
X103123687Y-87602806D01*
X103117091Y-87596750D01*
X103116000Y-87591816D01*
X103116000Y-87408183D01*
X103119427Y-87399910D01*
X103123687Y-87397193D01*
X103590697Y-87226669D01*
X103599641Y-87227050D01*
G37*
%TD.AperFunction*%
%TD*%
%TA.AperFunction,Conductor*%
%TO.N,/Display/SG_F*%
G36*
X111674313Y-83397193D02*
G01*
X111680909Y-83403249D01*
X111682000Y-83408183D01*
X111682000Y-83591816D01*
X111678573Y-83600089D01*
X111674313Y-83602806D01*
X111207305Y-83773330D01*
X111198358Y-83772949D01*
X111192496Y-83766851D01*
X111082883Y-83504509D01*
X111082857Y-83495556D01*
X111082862Y-83495542D01*
X111192496Y-83233147D01*
X111198848Y-83226836D01*
X111207302Y-83226669D01*
X111674313Y-83397193D01*
G37*
%TD.AperFunction*%
%TD*%
%TA.AperFunction,Conductor*%
%TO.N,/Display/SG_D*%
G36*
X96842313Y-87397193D02*
G01*
X96848909Y-87403249D01*
X96850000Y-87408183D01*
X96850000Y-87591816D01*
X96846573Y-87600089D01*
X96842313Y-87602806D01*
X96375305Y-87773330D01*
X96366358Y-87772949D01*
X96360496Y-87766851D01*
X96250883Y-87504509D01*
X96250857Y-87495556D01*
X96250862Y-87495542D01*
X96360496Y-87233147D01*
X96366848Y-87226836D01*
X96375302Y-87226669D01*
X96842313Y-87397193D01*
G37*
%TD.AperFunction*%
%TD*%
%TA.AperFunction,Conductor*%
%TO.N,/Display/SG_DP*%
G36*
X130103641Y-85727050D02*
G01*
X130109503Y-85733148D01*
X130219115Y-85995489D01*
X130219142Y-86004444D01*
X130219115Y-86004511D01*
X130109503Y-86266851D01*
X130103151Y-86273163D01*
X130094694Y-86273329D01*
X129960947Y-86224493D01*
X129627687Y-86102806D01*
X129621091Y-86096750D01*
X129620000Y-86091816D01*
X129620000Y-85908183D01*
X129623427Y-85899910D01*
X129627687Y-85897193D01*
X130094697Y-85726669D01*
X130103641Y-85727050D01*
G37*
%TD.AperFunction*%
%TD*%
%TA.AperFunction,Conductor*%
%TO.N,/Display/SG_F*%
G36*
X103539697Y-83283651D02*
G01*
X103539937Y-83284186D01*
X103649115Y-83545489D01*
X103649142Y-83554444D01*
X103649115Y-83554511D01*
X103539136Y-83817729D01*
X103532784Y-83824041D01*
X103525316Y-83824520D01*
X103068622Y-83702321D01*
X103061516Y-83696873D01*
X103059946Y-83691019D01*
X103059946Y-83507375D01*
X103063373Y-83499102D01*
X103066598Y-83496820D01*
X103524096Y-83278140D01*
X103533037Y-83277665D01*
X103539697Y-83283651D01*
G37*
%TD.AperFunction*%
%TD*%
%TA.AperFunction,Conductor*%
%TO.N,/Display/SG_DP*%
G36*
X101342313Y-85897193D02*
G01*
X101348909Y-85903249D01*
X101350000Y-85908183D01*
X101350000Y-86091816D01*
X101346573Y-86100089D01*
X101342313Y-86102806D01*
X100875305Y-86273330D01*
X100866358Y-86272949D01*
X100860496Y-86266851D01*
X100750883Y-86004509D01*
X100750857Y-85995556D01*
X100750862Y-85995542D01*
X100860496Y-85733147D01*
X100866848Y-85726836D01*
X100875302Y-85726669D01*
X101342313Y-85897193D01*
G37*
%TD.AperFunction*%
%TD*%
%TA.AperFunction,Conductor*%
%TO.N,MCU_PD6*%
G36*
X199733174Y-103889439D02*
G01*
X199896804Y-103956629D01*
X199996184Y-103997436D01*
X200002536Y-104003748D01*
X200002563Y-104003815D01*
X200110559Y-104266824D01*
X200110532Y-104275779D01*
X200104670Y-104281877D01*
X199653867Y-104491523D01*
X199644920Y-104491904D01*
X199640660Y-104489187D01*
X199510812Y-104359339D01*
X199507385Y-104351066D01*
X199508474Y-104346136D01*
X199718124Y-103895327D01*
X199724718Y-103889273D01*
X199733174Y-103889439D01*
G37*
%TD.AperFunction*%
%TD*%
%TA.AperFunction,Conductor*%
%TO.N,/Display/SG_DP*%
G36*
X108592313Y-85897193D02*
G01*
X108598909Y-85903249D01*
X108600000Y-85908183D01*
X108600000Y-86091816D01*
X108596573Y-86100089D01*
X108592313Y-86102806D01*
X108125305Y-86273330D01*
X108116358Y-86272949D01*
X108110496Y-86266851D01*
X108000883Y-86004509D01*
X108000857Y-85995556D01*
X108000862Y-85995542D01*
X108110496Y-85733147D01*
X108116848Y-85726836D01*
X108125302Y-85726669D01*
X108592313Y-85897193D01*
G37*
%TD.AperFunction*%
%TD*%
%TA.AperFunction,Conductor*%
%TO.N,MCU_PD3*%
G36*
X203284006Y-96589176D02*
G01*
X203474861Y-96667545D01*
X203547657Y-96697436D01*
X203554009Y-96703748D01*
X203554036Y-96703815D01*
X203661724Y-96966073D01*
X203661697Y-96975028D01*
X203655345Y-96981340D01*
X203655079Y-96981445D01*
X203184389Y-97161408D01*
X203175438Y-97161162D01*
X203171938Y-97158753D01*
X203042069Y-97028884D01*
X203038642Y-97020611D01*
X203040068Y-97015015D01*
X203269292Y-96594399D01*
X203276258Y-96588777D01*
X203284006Y-96589176D01*
G37*
%TD.AperFunction*%
%TD*%
%TA.AperFunction,Conductor*%
%TO.N,/Display/SG_A*%
G36*
X128575124Y-83795090D02*
G01*
X128777537Y-83996553D01*
X128780983Y-84004818D01*
X128780983Y-84004885D01*
X128780042Y-84287238D01*
X128776588Y-84295500D01*
X128768303Y-84298899D01*
X128767290Y-84298852D01*
X128237001Y-84250961D01*
X128229069Y-84246803D01*
X128226353Y-84239308D01*
X128226353Y-84055768D01*
X128229780Y-84047495D01*
X128230922Y-84046492D01*
X128559746Y-83794101D01*
X128568395Y-83791783D01*
X128575124Y-83795090D01*
G37*
%TD.AperFunction*%
%TD*%
%TA.AperFunction,Conductor*%
%TO.N,/Display/SG_B*%
G36*
X130033641Y-84577050D02*
G01*
X130039503Y-84583148D01*
X130149115Y-84845489D01*
X130149142Y-84854444D01*
X130149115Y-84854511D01*
X130039503Y-85116851D01*
X130033151Y-85123163D01*
X130024694Y-85123329D01*
X129890947Y-85074493D01*
X129557687Y-84952806D01*
X129551091Y-84946750D01*
X129550000Y-84941816D01*
X129550000Y-84758183D01*
X129553427Y-84749910D01*
X129557687Y-84747193D01*
X130024697Y-84576669D01*
X130033641Y-84577050D01*
G37*
%TD.AperFunction*%
%TD*%
%TA.AperFunction,Conductor*%
%TO.N,/Display/SG_DP*%
G36*
X116092313Y-85897193D02*
G01*
X116098909Y-85903249D01*
X116100000Y-85908183D01*
X116100000Y-86091816D01*
X116096573Y-86100089D01*
X116092313Y-86102806D01*
X115625305Y-86273330D01*
X115616358Y-86272949D01*
X115610496Y-86266851D01*
X115500883Y-86004509D01*
X115500857Y-85995556D01*
X115500862Y-85995542D01*
X115610496Y-85733147D01*
X115616848Y-85726836D01*
X115625302Y-85726669D01*
X116092313Y-85897193D01*
G37*
%TD.AperFunction*%
%TD*%
%TA.AperFunction,Conductor*%
%TO.N,/Display/SG_A*%
G36*
X106608972Y-83951474D02*
G01*
X107148624Y-84012820D01*
X107156457Y-84017159D01*
X107159002Y-84024445D01*
X107159002Y-84207943D01*
X107155575Y-84216216D01*
X107154058Y-84217496D01*
X106816166Y-84456449D01*
X106807432Y-84458428D01*
X106801156Y-84455189D01*
X106598462Y-84253446D01*
X106595016Y-84245181D01*
X106595016Y-84245114D01*
X106595108Y-84217496D01*
X106595956Y-83963059D01*
X106599410Y-83954799D01*
X106607695Y-83951400D01*
X106608972Y-83951474D01*
G37*
%TD.AperFunction*%
%TD*%
%TA.AperFunction,Conductor*%
%TO.N,/Display/SG_F*%
G36*
X110971697Y-83233651D02*
G01*
X110971937Y-83234186D01*
X111081115Y-83495489D01*
X111081142Y-83504444D01*
X111081115Y-83504511D01*
X110971136Y-83767729D01*
X110964784Y-83774041D01*
X110957316Y-83774520D01*
X110500622Y-83652321D01*
X110493516Y-83646873D01*
X110491946Y-83641019D01*
X110491946Y-83457375D01*
X110495373Y-83449102D01*
X110498598Y-83446820D01*
X110956096Y-83228140D01*
X110965037Y-83227665D01*
X110971697Y-83233651D01*
G37*
%TD.AperFunction*%
%TD*%
%TA.AperFunction,Conductor*%
%TO.N,/Display/SG_A*%
G36*
X99133641Y-83977050D02*
G01*
X99139503Y-83983148D01*
X99249115Y-84245489D01*
X99249142Y-84254444D01*
X99249115Y-84254511D01*
X99139503Y-84516851D01*
X99133151Y-84523163D01*
X99124694Y-84523329D01*
X98990947Y-84474493D01*
X98657687Y-84352806D01*
X98651091Y-84346750D01*
X98650000Y-84341816D01*
X98650000Y-84158183D01*
X98653427Y-84149910D01*
X98657687Y-84147193D01*
X99124697Y-83976669D01*
X99133641Y-83977050D01*
G37*
%TD.AperFunction*%
%TD*%
%TA.AperFunction,Conductor*%
%TO.N,/Display/SG_DP*%
G36*
X107883641Y-85727050D02*
G01*
X107889503Y-85733148D01*
X107999115Y-85995489D01*
X107999142Y-86004444D01*
X107999115Y-86004511D01*
X107889503Y-86266851D01*
X107883151Y-86273163D01*
X107874694Y-86273329D01*
X107740947Y-86224493D01*
X107407687Y-86102806D01*
X107401091Y-86096750D01*
X107400000Y-86091816D01*
X107400000Y-85908183D01*
X107403427Y-85899910D01*
X107407687Y-85897193D01*
X107874697Y-85726669D01*
X107883641Y-85727050D01*
G37*
%TD.AperFunction*%
%TD*%
%TA.AperFunction,Conductor*%
%TO.N,/Display/SG_C*%
G36*
X99133641Y-86477050D02*
G01*
X99139503Y-86483148D01*
X99249115Y-86745489D01*
X99249142Y-86754444D01*
X99249115Y-86754511D01*
X99139503Y-87016851D01*
X99133151Y-87023163D01*
X99124694Y-87023329D01*
X98990947Y-86974493D01*
X98657687Y-86852806D01*
X98651091Y-86846750D01*
X98650000Y-86841816D01*
X98650000Y-86658183D01*
X98653427Y-86649910D01*
X98657687Y-86647193D01*
X99124697Y-86476669D01*
X99133641Y-86477050D01*
G37*
%TD.AperFunction*%
%TD*%
%TA.AperFunction,Conductor*%
%TO.N,SD_MOSI*%
G36*
X194725138Y-93428453D02*
G01*
X194726156Y-93428939D01*
X195173949Y-93669688D01*
X195179613Y-93676624D01*
X195180109Y-93679993D01*
X195180109Y-93916680D01*
X195176682Y-93924953D01*
X195169870Y-93928288D01*
X194613116Y-93998349D01*
X194604480Y-93995982D01*
X194600047Y-93988202D01*
X194599955Y-93986795D01*
X194599007Y-93702362D01*
X194599909Y-93697822D01*
X194709832Y-93434736D01*
X194716183Y-93428426D01*
X194725138Y-93428453D01*
G37*
%TD.AperFunction*%
%TD*%
%TA.AperFunction,Conductor*%
%TO.N,/Display/SG_A*%
G36*
X113957629Y-83953945D02*
G01*
X113961968Y-83961778D01*
X113962043Y-83963061D01*
X113962983Y-84245114D01*
X113959584Y-84253399D01*
X113959537Y-84253446D01*
X113756843Y-84455189D01*
X113748561Y-84458596D01*
X113741833Y-84456449D01*
X113403942Y-84217496D01*
X113399166Y-84209921D01*
X113398998Y-84207943D01*
X113398998Y-84024445D01*
X113402425Y-84016172D01*
X113409375Y-84012820D01*
X113949022Y-83951475D01*
X113957629Y-83953945D01*
G37*
%TD.AperFunction*%
%TD*%
%TA.AperFunction,Conductor*%
%TO.N,/Display/SG_F*%
G36*
X104242313Y-83447193D02*
G01*
X104248909Y-83453249D01*
X104250000Y-83458183D01*
X104250000Y-83641816D01*
X104246573Y-83650089D01*
X104242313Y-83652806D01*
X103775305Y-83823330D01*
X103766358Y-83822949D01*
X103760496Y-83816851D01*
X103650883Y-83554509D01*
X103650857Y-83545556D01*
X103650862Y-83545542D01*
X103760496Y-83283147D01*
X103766848Y-83276836D01*
X103775302Y-83276669D01*
X104242313Y-83447193D01*
G37*
%TD.AperFunction*%
%TD*%
%TA.AperFunction,Conductor*%
%TO.N,/Display/SG_E*%
G36*
X102139562Y-87983896D02*
G01*
X102140447Y-87985626D01*
X102247175Y-88245556D01*
X102247175Y-88254444D01*
X102140447Y-88514373D01*
X102134135Y-88520725D01*
X102125180Y-88520752D01*
X102123450Y-88519867D01*
X101855526Y-88353431D01*
X101850307Y-88346155D01*
X101850000Y-88343493D01*
X101850000Y-88156506D01*
X101853427Y-88148233D01*
X101855526Y-88146568D01*
X102123450Y-87980132D01*
X102132286Y-87978677D01*
X102139562Y-87983896D01*
G37*
%TD.AperFunction*%
%TD*%
%TA.AperFunction,Conductor*%
%TO.N,/Display/SG_A*%
G36*
X99263635Y-83952350D02*
G01*
X99820398Y-84048326D01*
X99827967Y-84053107D01*
X99830109Y-84059855D01*
X99830109Y-84243350D01*
X99826682Y-84251623D01*
X99824396Y-84253402D01*
X99376389Y-84520262D01*
X99367528Y-84521552D01*
X99360350Y-84516197D01*
X99359606Y-84514721D01*
X99250421Y-84253402D01*
X99249910Y-84252178D01*
X99249007Y-84247636D01*
X99249953Y-83963839D01*
X99253407Y-83955580D01*
X99261692Y-83952181D01*
X99263635Y-83952350D01*
G37*
%TD.AperFunction*%
%TD*%
%TA.AperFunction,Conductor*%
%TO.N,SD_CS*%
G36*
X193776284Y-93789260D02*
G01*
X193782122Y-93794599D01*
X194010042Y-94226830D01*
X194010870Y-94235746D01*
X194007966Y-94240560D01*
X193840560Y-94407966D01*
X193832287Y-94411393D01*
X193826830Y-94410042D01*
X193394599Y-94182122D01*
X193388879Y-94175232D01*
X193389233Y-94167329D01*
X193497436Y-93903815D01*
X193503746Y-93897464D01*
X193767329Y-93789233D01*
X193776284Y-93789260D01*
G37*
%TD.AperFunction*%
%TD*%
%TA.AperFunction,Conductor*%
%TO.N,/Display/SG_B*%
G36*
X100653641Y-84577050D02*
G01*
X100659503Y-84583148D01*
X100769115Y-84845489D01*
X100769142Y-84854444D01*
X100769115Y-84854511D01*
X100659503Y-85116851D01*
X100653151Y-85123163D01*
X100644694Y-85123329D01*
X100510947Y-85074493D01*
X100177687Y-84952806D01*
X100171091Y-84946750D01*
X100170000Y-84941816D01*
X100170000Y-84758183D01*
X100173427Y-84749910D01*
X100177687Y-84747193D01*
X100644697Y-84576669D01*
X100653641Y-84577050D01*
G37*
%TD.AperFunction*%
%TD*%
%TA.AperFunction,Conductor*%
%TO.N,/Display/GR5*%
G36*
X101591564Y-99080828D02*
G01*
X101594991Y-99089101D01*
X101594286Y-99093102D01*
X101401330Y-99623354D01*
X101395280Y-99629956D01*
X101386334Y-99630348D01*
X101385891Y-99630176D01*
X101124510Y-99522852D01*
X101118160Y-99516542D01*
X101009634Y-99253591D01*
X101009645Y-99244638D01*
X101015925Y-99238339D01*
X101397831Y-99078310D01*
X101402353Y-99077401D01*
X101583291Y-99077401D01*
X101591564Y-99080828D01*
G37*
%TD.AperFunction*%
%TD*%
%TA.AperFunction,Conductor*%
%TO.N,MCU_A1*%
G36*
X211125920Y-101081338D02*
G01*
X211548516Y-101290091D01*
X211605017Y-101318001D01*
X211610917Y-101324738D01*
X211610658Y-101332935D01*
X211502852Y-101595489D01*
X211496540Y-101601840D01*
X211496510Y-101601852D01*
X211496493Y-101601860D01*
X211234863Y-101709840D01*
X211225908Y-101709829D01*
X211219584Y-101703489D01*
X211219172Y-101702319D01*
X211109513Y-101328611D01*
X211109040Y-101325317D01*
X211109040Y-101091829D01*
X211112467Y-101083556D01*
X211120740Y-101080129D01*
X211125920Y-101081338D01*
G37*
%TD.AperFunction*%
%TD*%
%TA.AperFunction,Conductor*%
%TO.N,/Display/SG_G*%
G36*
X90403864Y-101508475D02*
G01*
X90854671Y-101718123D01*
X90860726Y-101724718D01*
X90860559Y-101733175D01*
X90752563Y-101996184D01*
X90746251Y-102002536D01*
X90746184Y-102002563D01*
X90483175Y-102110559D01*
X90474220Y-102110532D01*
X90468123Y-102104671D01*
X90258475Y-101653865D01*
X90258095Y-101644920D01*
X90260810Y-101640662D01*
X90390661Y-101510811D01*
X90398933Y-101507385D01*
X90403864Y-101508475D01*
G37*
%TD.AperFunction*%
%TD*%
%TA.AperFunction,Conductor*%
%TO.N,/Display/SG_E*%
G36*
X102247548Y-88166703D02*
G01*
X102250000Y-88173870D01*
X102250000Y-88338908D01*
X102246573Y-88347181D01*
X102238924Y-88350591D01*
X102010210Y-88362808D01*
X102001766Y-88359828D01*
X101997903Y-88351749D01*
X102000883Y-88343305D01*
X102002413Y-88341882D01*
X102231133Y-88164621D01*
X102239771Y-88162263D01*
X102247548Y-88166703D01*
G37*
%TD.AperFunction*%
%TD*%
%TA.AperFunction,Conductor*%
%TO.N,/Display/SG_DP*%
G36*
X122633641Y-85727050D02*
G01*
X122639503Y-85733148D01*
X122749115Y-85995489D01*
X122749142Y-86004444D01*
X122749115Y-86004511D01*
X122639503Y-86266851D01*
X122633151Y-86273163D01*
X122624694Y-86273329D01*
X122490947Y-86224493D01*
X122157687Y-86102806D01*
X122151091Y-86096750D01*
X122150000Y-86091816D01*
X122150000Y-85908183D01*
X122153427Y-85899910D01*
X122157687Y-85897193D01*
X122624697Y-85726669D01*
X122633641Y-85727050D01*
G37*
%TD.AperFunction*%
%TD*%
%TA.AperFunction,Conductor*%
%TO.N,/Display/SG_E*%
G36*
X110092313Y-88147193D02*
G01*
X110098909Y-88153249D01*
X110100000Y-88158183D01*
X110100000Y-88341816D01*
X110096573Y-88350089D01*
X110092313Y-88352806D01*
X109625305Y-88523330D01*
X109616358Y-88522949D01*
X109610496Y-88516851D01*
X109500883Y-88254509D01*
X109500857Y-88245556D01*
X109500862Y-88245542D01*
X109610496Y-87983147D01*
X109616848Y-87976836D01*
X109625302Y-87976669D01*
X110092313Y-88147193D01*
G37*
%TD.AperFunction*%
%TD*%
%TA.AperFunction,Conductor*%
%TO.N,/Display/SG_DP*%
G36*
X115383641Y-85727050D02*
G01*
X115389503Y-85733148D01*
X115499115Y-85995489D01*
X115499142Y-86004444D01*
X115499115Y-86004511D01*
X115389503Y-86266851D01*
X115383151Y-86273163D01*
X115374694Y-86273329D01*
X115240947Y-86224493D01*
X114907687Y-86102806D01*
X114901091Y-86096750D01*
X114900000Y-86091816D01*
X114900000Y-85908183D01*
X114903427Y-85899910D01*
X114907687Y-85897193D01*
X115374697Y-85726669D01*
X115383641Y-85727050D01*
G37*
%TD.AperFunction*%
%TD*%
%TA.AperFunction,Conductor*%
%TO.N,SD_MISO*%
G36*
X211083954Y-88026807D02*
G01*
X211089293Y-88032645D01*
X211199115Y-88295489D01*
X211199142Y-88304444D01*
X211199115Y-88304511D01*
X211089293Y-88567354D01*
X211082941Y-88573666D01*
X211075038Y-88574020D01*
X210608241Y-88429550D01*
X210601351Y-88423830D01*
X210600000Y-88418373D01*
X210600000Y-88181626D01*
X210603427Y-88173353D01*
X210608239Y-88170449D01*
X211075039Y-88025979D01*
X211083954Y-88026807D01*
G37*
%TD.AperFunction*%
%TD*%
%TA.AperFunction,Conductor*%
%TO.N,/Display/SG_C*%
G36*
X107092313Y-86647193D02*
G01*
X107098909Y-86653249D01*
X107100000Y-86658183D01*
X107100000Y-86841816D01*
X107096573Y-86850089D01*
X107092313Y-86852806D01*
X106625305Y-87023330D01*
X106616358Y-87022949D01*
X106610496Y-87016851D01*
X106500883Y-86754509D01*
X106500857Y-86745556D01*
X106500862Y-86745542D01*
X106610496Y-86483147D01*
X106616848Y-86476836D01*
X106625302Y-86476669D01*
X107092313Y-86647193D01*
G37*
%TD.AperFunction*%
%TD*%
%TA.AperFunction,Conductor*%
%TO.N,/Display/SG_G*%
G36*
X94938635Y-82702350D02*
G01*
X95495398Y-82798326D01*
X95502967Y-82803107D01*
X95505109Y-82809855D01*
X95505109Y-82993350D01*
X95501682Y-83001623D01*
X95499396Y-83003402D01*
X95051389Y-83270262D01*
X95042528Y-83271552D01*
X95035350Y-83266197D01*
X95034606Y-83264721D01*
X94925421Y-83003402D01*
X94924910Y-83002178D01*
X94924007Y-82997636D01*
X94924953Y-82713839D01*
X94928407Y-82705580D01*
X94936692Y-82702181D01*
X94938635Y-82702350D01*
G37*
%TD.AperFunction*%
%TD*%
%TA.AperFunction,Conductor*%
%TO.N,MCU_A0*%
G36*
X210267035Y-101775091D02*
G01*
X210740127Y-101848468D01*
X210747776Y-101853123D01*
X210750033Y-101859991D01*
X210750983Y-102145114D01*
X210747584Y-102153399D01*
X210747537Y-102153446D01*
X210546847Y-102353194D01*
X210538565Y-102356601D01*
X210530300Y-102353155D01*
X210529671Y-102352470D01*
X210256331Y-102030274D01*
X210253553Y-102022705D01*
X210253553Y-101786654D01*
X210256980Y-101778381D01*
X210265253Y-101774954D01*
X210267035Y-101775091D01*
G37*
%TD.AperFunction*%
%TD*%
%TA.AperFunction,Conductor*%
%TO.N,/Display/SG_C*%
G36*
X121842313Y-86647193D02*
G01*
X121848909Y-86653249D01*
X121850000Y-86658183D01*
X121850000Y-86841816D01*
X121846573Y-86850089D01*
X121842313Y-86852806D01*
X121375305Y-87023330D01*
X121366358Y-87022949D01*
X121360496Y-87016851D01*
X121250883Y-86754509D01*
X121250857Y-86745556D01*
X121250862Y-86745542D01*
X121360496Y-86483147D01*
X121366848Y-86476836D01*
X121375302Y-86476669D01*
X121842313Y-86647193D01*
G37*
%TD.AperFunction*%
%TD*%
%TA.AperFunction,Conductor*%
%TO.N,/Display/SG_B*%
G36*
X101362313Y-84747193D02*
G01*
X101368909Y-84753249D01*
X101370000Y-84758183D01*
X101370000Y-84941816D01*
X101366573Y-84950089D01*
X101362313Y-84952806D01*
X100895305Y-85123330D01*
X100886358Y-85122949D01*
X100880496Y-85116851D01*
X100770883Y-84854509D01*
X100770857Y-84845556D01*
X100770862Y-84845542D01*
X100880496Y-84583147D01*
X100886848Y-84576836D01*
X100895302Y-84576669D01*
X101362313Y-84747193D01*
G37*
%TD.AperFunction*%
%TD*%
%TA.AperFunction,Conductor*%
%TO.N,/Display/SG_E*%
G36*
X124383641Y-87977050D02*
G01*
X124389503Y-87983148D01*
X124499115Y-88245489D01*
X124499142Y-88254444D01*
X124499115Y-88254511D01*
X124389503Y-88516851D01*
X124383151Y-88523163D01*
X124374694Y-88523329D01*
X124240947Y-88474493D01*
X123907687Y-88352806D01*
X123901091Y-88346750D01*
X123900000Y-88341816D01*
X123900000Y-88158183D01*
X123903427Y-88149910D01*
X123907687Y-88147193D01*
X124374697Y-87976669D01*
X124383641Y-87977050D01*
G37*
%TD.AperFunction*%
%TD*%
%TA.AperFunction,Conductor*%
%TO.N,/Display/SG_C*%
G36*
X106383641Y-86477050D02*
G01*
X106389503Y-86483148D01*
X106499115Y-86745489D01*
X106499142Y-86754444D01*
X106499115Y-86754511D01*
X106389503Y-87016851D01*
X106383151Y-87023163D01*
X106374694Y-87023329D01*
X106240947Y-86974493D01*
X105907687Y-86852806D01*
X105901091Y-86846750D01*
X105900000Y-86841816D01*
X105900000Y-86658183D01*
X105903427Y-86649910D01*
X105907687Y-86647193D01*
X106374697Y-86476669D01*
X106383641Y-86477050D01*
G37*
%TD.AperFunction*%
%TD*%
%TA.AperFunction,Conductor*%
%TO.N,/Display/SG_C*%
G36*
X90948417Y-96423318D02*
G01*
X90951674Y-96429603D01*
X91047648Y-96986358D01*
X91045676Y-96995093D01*
X91038106Y-96999876D01*
X91036157Y-97000046D01*
X90752367Y-97000992D01*
X90747817Y-97000088D01*
X90747716Y-97000046D01*
X90704955Y-96982179D01*
X90485278Y-96890393D01*
X90478966Y-96884041D01*
X90478993Y-96875086D01*
X90479737Y-96873609D01*
X90746598Y-96425603D01*
X90753776Y-96420249D01*
X90756650Y-96419891D01*
X90940144Y-96419891D01*
X90948417Y-96423318D01*
G37*
%TD.AperFunction*%
%TD*%
%TA.AperFunction,Conductor*%
%TO.N,/Display/SG_B*%
G36*
X108055641Y-84577050D02*
G01*
X108061503Y-84583148D01*
X108171115Y-84845489D01*
X108171142Y-84854444D01*
X108171115Y-84854511D01*
X108061503Y-85116851D01*
X108055151Y-85123163D01*
X108046694Y-85123329D01*
X107912947Y-85074493D01*
X107579687Y-84952806D01*
X107573091Y-84946750D01*
X107572000Y-84941816D01*
X107572000Y-84758183D01*
X107575427Y-84749910D01*
X107579687Y-84747193D01*
X108046697Y-84576669D01*
X108055641Y-84577050D01*
G37*
%TD.AperFunction*%
%TD*%
%TA.AperFunction,Conductor*%
%TO.N,SD_SCK*%
G36*
X212653647Y-88980427D02*
G01*
X212656550Y-88985239D01*
X212661118Y-88999999D01*
X212801020Y-89452038D01*
X212800192Y-89460954D01*
X212794354Y-89466293D01*
X212531511Y-89576115D01*
X212522556Y-89576142D01*
X212522489Y-89576115D01*
X212259645Y-89466293D01*
X212253333Y-89459941D01*
X212252979Y-89452039D01*
X212298048Y-89306415D01*
X212300376Y-89302225D01*
X212325377Y-89273373D01*
X212385165Y-89142457D01*
X212405647Y-89000000D01*
X212404262Y-88990365D01*
X212406477Y-88981688D01*
X212414178Y-88977119D01*
X212415843Y-88977000D01*
X212645374Y-88977000D01*
X212653647Y-88980427D01*
G37*
%TD.AperFunction*%
%TD*%
%TA.AperFunction,Conductor*%
%TO.N,/Display/SG_G*%
G36*
X109639548Y-82816703D02*
G01*
X109642000Y-82823870D01*
X109642000Y-82988908D01*
X109638573Y-82997181D01*
X109630924Y-83000591D01*
X109402210Y-83012808D01*
X109393766Y-83009828D01*
X109389903Y-83001749D01*
X109392883Y-82993305D01*
X109394413Y-82991882D01*
X109623133Y-82814621D01*
X109631771Y-82812263D01*
X109639548Y-82816703D01*
G37*
%TD.AperFunction*%
%TD*%
%TA.AperFunction,Conductor*%
%TO.N,/Display/SG_D*%
G36*
X118133641Y-87227050D02*
G01*
X118139503Y-87233148D01*
X118249115Y-87495489D01*
X118249142Y-87504444D01*
X118249115Y-87504511D01*
X118139503Y-87766851D01*
X118133151Y-87773163D01*
X118124694Y-87773329D01*
X117990947Y-87724493D01*
X117657687Y-87602806D01*
X117651091Y-87596750D01*
X117650000Y-87591816D01*
X117650000Y-87408183D01*
X117653427Y-87399910D01*
X117657687Y-87397193D01*
X118124697Y-87226669D01*
X118133641Y-87227050D01*
G37*
%TD.AperFunction*%
%TD*%
%TA.AperFunction,Conductor*%
%TO.N,/Display/SG_E*%
G36*
X116883641Y-87977050D02*
G01*
X116889503Y-87983148D01*
X116999115Y-88245489D01*
X116999142Y-88254444D01*
X116999115Y-88254511D01*
X116889503Y-88516851D01*
X116883151Y-88523163D01*
X116874694Y-88523329D01*
X116740947Y-88474493D01*
X116407687Y-88352806D01*
X116401091Y-88346750D01*
X116400000Y-88341816D01*
X116400000Y-88158183D01*
X116403427Y-88149910D01*
X116407687Y-88147193D01*
X116874697Y-87976669D01*
X116883641Y-87977050D01*
G37*
%TD.AperFunction*%
%TD*%
%TA.AperFunction,Conductor*%
%TO.N,/Display/SG_G*%
G36*
X124349134Y-82613163D02*
G01*
X124355287Y-82619391D01*
X124464779Y-82881446D01*
X124464806Y-82890401D01*
X124464779Y-82890468D01*
X124355065Y-83153053D01*
X124348713Y-83159365D01*
X124340521Y-83159625D01*
X123876409Y-83002688D01*
X123869670Y-82996792D01*
X123868457Y-82991605D01*
X123868457Y-82807948D01*
X123871884Y-82799675D01*
X123875844Y-82797071D01*
X124340181Y-82613025D01*
X124349134Y-82613163D01*
G37*
%TD.AperFunction*%
%TD*%
%TA.AperFunction,Conductor*%
%TO.N,MCU_PD3*%
G36*
X203284006Y-96589176D02*
G01*
X203474861Y-96667545D01*
X203547657Y-96697436D01*
X203554009Y-96703748D01*
X203554036Y-96703815D01*
X203661724Y-96966073D01*
X203661697Y-96975028D01*
X203655345Y-96981340D01*
X203655079Y-96981445D01*
X203184389Y-97161408D01*
X203175438Y-97161162D01*
X203171938Y-97158753D01*
X203042069Y-97028884D01*
X203038642Y-97020611D01*
X203040068Y-97015015D01*
X203269292Y-96594399D01*
X203276258Y-96588777D01*
X203284006Y-96589176D01*
G37*
%TD.AperFunction*%
%TD*%
%TA.AperFunction,Conductor*%
%TO.N,/Display/GR5*%
G36*
X126483174Y-91139439D02*
G01*
X126646804Y-91206629D01*
X126746184Y-91247436D01*
X126752536Y-91253748D01*
X126752563Y-91253815D01*
X126860559Y-91516824D01*
X126860532Y-91525779D01*
X126854670Y-91531877D01*
X126403867Y-91741523D01*
X126394920Y-91741904D01*
X126390660Y-91739187D01*
X126260812Y-91609339D01*
X126257385Y-91601066D01*
X126258474Y-91596136D01*
X126468124Y-91145327D01*
X126474718Y-91139273D01*
X126483174Y-91139439D01*
G37*
%TD.AperFunction*%
%TD*%
%TA.AperFunction,Conductor*%
%TO.N,SD_CS*%
G36*
X211632670Y-88889233D02*
G01*
X211896184Y-88997436D01*
X211902536Y-89003748D01*
X211902563Y-89003815D01*
X212010766Y-89267329D01*
X212010739Y-89276284D01*
X212005400Y-89282122D01*
X211573169Y-89510042D01*
X211564253Y-89510870D01*
X211559439Y-89507966D01*
X211392033Y-89340560D01*
X211388606Y-89332287D01*
X211389956Y-89326833D01*
X211617877Y-88894598D01*
X211624767Y-88888879D01*
X211632670Y-88889233D01*
G37*
%TD.AperFunction*%
%TD*%
%TA.AperFunction,Conductor*%
%TO.N,/Display/SG_B*%
G36*
X115383641Y-84577050D02*
G01*
X115389503Y-84583148D01*
X115499115Y-84845489D01*
X115499142Y-84854444D01*
X115499115Y-84854511D01*
X115389503Y-85116851D01*
X115383151Y-85123163D01*
X115374694Y-85123329D01*
X115240947Y-85074493D01*
X114907687Y-84952806D01*
X114901091Y-84946750D01*
X114900000Y-84941816D01*
X114900000Y-84758183D01*
X114903427Y-84749910D01*
X114907687Y-84747193D01*
X115374697Y-84576669D01*
X115383641Y-84577050D01*
G37*
%TD.AperFunction*%
%TD*%
%TA.AperFunction,Conductor*%
%TO.N,MCU_A0*%
G36*
X80676284Y-104489260D02*
G01*
X80682122Y-104494599D01*
X80910042Y-104926830D01*
X80910870Y-104935746D01*
X80907966Y-104940560D01*
X80740560Y-105107966D01*
X80732287Y-105111393D01*
X80726830Y-105110042D01*
X80294599Y-104882122D01*
X80288879Y-104875232D01*
X80289233Y-104867329D01*
X80397436Y-104603815D01*
X80403746Y-104597464D01*
X80667329Y-104489233D01*
X80676284Y-104489260D01*
G37*
%TD.AperFunction*%
%TD*%
%TA.AperFunction,Conductor*%
%TO.N,/Display/SG_F*%
G36*
X125783641Y-83227050D02*
G01*
X125789503Y-83233148D01*
X125899115Y-83495489D01*
X125899142Y-83504444D01*
X125899115Y-83504511D01*
X125789503Y-83766851D01*
X125783151Y-83773163D01*
X125774694Y-83773329D01*
X125640947Y-83724493D01*
X125307687Y-83602806D01*
X125301091Y-83596750D01*
X125300000Y-83591816D01*
X125300000Y-83408183D01*
X125303427Y-83399910D01*
X125307687Y-83397193D01*
X125774697Y-83226669D01*
X125783641Y-83227050D01*
G37*
%TD.AperFunction*%
%TD*%
%TA.AperFunction,Conductor*%
%TO.N,MCU_PD7*%
G36*
X199733174Y-104789439D02*
G01*
X199896804Y-104856629D01*
X199996184Y-104897436D01*
X200002536Y-104903748D01*
X200002563Y-104903815D01*
X200110559Y-105166824D01*
X200110532Y-105175779D01*
X200104670Y-105181877D01*
X199653867Y-105391523D01*
X199644920Y-105391904D01*
X199640660Y-105389187D01*
X199510812Y-105259339D01*
X199507385Y-105251066D01*
X199508474Y-105246136D01*
X199718124Y-104795327D01*
X199724718Y-104789273D01*
X199733174Y-104789439D01*
G37*
%TD.AperFunction*%
%TD*%
%TA.AperFunction,Conductor*%
%TO.N,/Display/SG_B*%
G36*
X123442313Y-84747193D02*
G01*
X123448909Y-84753249D01*
X123450000Y-84758183D01*
X123450000Y-84941816D01*
X123446573Y-84950089D01*
X123442313Y-84952806D01*
X122975305Y-85123330D01*
X122966358Y-85122949D01*
X122960496Y-85116851D01*
X122850883Y-84854509D01*
X122850857Y-84845556D01*
X122850862Y-84845542D01*
X122960496Y-84583147D01*
X122966848Y-84576836D01*
X122975302Y-84576669D01*
X123442313Y-84747193D01*
G37*
%TD.AperFunction*%
%TD*%
%TA.AperFunction,Conductor*%
%TO.N,/Display/SG_DP*%
G36*
X123342313Y-85897193D02*
G01*
X123348909Y-85903249D01*
X123350000Y-85908183D01*
X123350000Y-86091816D01*
X123346573Y-86100089D01*
X123342313Y-86102806D01*
X122875305Y-86273330D01*
X122866358Y-86272949D01*
X122860496Y-86266851D01*
X122750883Y-86004509D01*
X122750857Y-85995556D01*
X122750862Y-85995542D01*
X122860496Y-85733147D01*
X122866848Y-85726836D01*
X122875302Y-85726669D01*
X123342313Y-85897193D01*
G37*
%TD.AperFunction*%
%TD*%
%TA.AperFunction,Conductor*%
%TO.N,/Display/SG_F*%
G36*
X96146167Y-83296242D02*
G01*
X96147196Y-83297152D01*
X96347537Y-83496553D01*
X96350983Y-83504818D01*
X96350983Y-83504885D01*
X96350035Y-83789454D01*
X96346581Y-83797716D01*
X96339507Y-83801056D01*
X95866425Y-83848703D01*
X95857851Y-83846123D01*
X95853612Y-83838234D01*
X95853553Y-83837062D01*
X95853553Y-83654044D01*
X95856050Y-83646819D01*
X96129741Y-83298218D01*
X96137544Y-83293829D01*
X96146167Y-83296242D01*
G37*
%TD.AperFunction*%
%TD*%
%TA.AperFunction,Conductor*%
%TO.N,/Display/SG_G*%
G36*
X94808641Y-82727050D02*
G01*
X94814503Y-82733148D01*
X94924115Y-82995489D01*
X94924142Y-83004444D01*
X94924115Y-83004511D01*
X94814503Y-83266851D01*
X94808151Y-83273163D01*
X94799694Y-83273329D01*
X94665947Y-83224493D01*
X94332687Y-83102806D01*
X94326091Y-83096750D01*
X94325000Y-83091816D01*
X94325000Y-82908183D01*
X94328427Y-82899910D01*
X94332687Y-82897193D01*
X94799697Y-82726669D01*
X94808641Y-82727050D01*
G37*
%TD.AperFunction*%
%TD*%
%TA.AperFunction,Conductor*%
%TO.N,/Display/SG_B*%
G36*
X108764313Y-84747193D02*
G01*
X108770909Y-84753249D01*
X108772000Y-84758183D01*
X108772000Y-84941816D01*
X108768573Y-84950089D01*
X108764313Y-84952806D01*
X108297305Y-85123330D01*
X108288358Y-85122949D01*
X108282496Y-85116851D01*
X108172883Y-84854509D01*
X108172857Y-84845556D01*
X108172862Y-84845542D01*
X108282496Y-84583147D01*
X108288848Y-84576836D01*
X108297302Y-84576669D01*
X108764313Y-84747193D01*
G37*
%TD.AperFunction*%
%TD*%
%TA.AperFunction,Conductor*%
%TO.N,/Display/SG_D*%
G36*
X104308313Y-87397193D02*
G01*
X104314909Y-87403249D01*
X104316000Y-87408183D01*
X104316000Y-87591816D01*
X104312573Y-87600089D01*
X104308313Y-87602806D01*
X103841305Y-87773330D01*
X103832358Y-87772949D01*
X103826496Y-87766851D01*
X103716883Y-87504509D01*
X103716857Y-87495556D01*
X103716862Y-87495542D01*
X103826496Y-87233147D01*
X103832848Y-87226836D01*
X103841302Y-87226669D01*
X104308313Y-87397193D01*
G37*
%TD.AperFunction*%
%TD*%
%TA.AperFunction,Conductor*%
%TO.N,/Display/SG_B*%
G36*
X122733641Y-84577050D02*
G01*
X122739503Y-84583148D01*
X122849115Y-84845489D01*
X122849142Y-84854444D01*
X122849115Y-84854511D01*
X122739503Y-85116851D01*
X122733151Y-85123163D01*
X122724694Y-85123329D01*
X122590947Y-85074493D01*
X122257687Y-84952806D01*
X122251091Y-84946750D01*
X122250000Y-84941816D01*
X122250000Y-84758183D01*
X122253427Y-84749910D01*
X122257687Y-84747193D01*
X122724697Y-84576669D01*
X122733641Y-84577050D01*
G37*
%TD.AperFunction*%
%TD*%
%TA.AperFunction,Conductor*%
%TO.N,/Display/SG_D*%
G36*
X110883641Y-87227050D02*
G01*
X110889503Y-87233148D01*
X110999115Y-87495489D01*
X110999142Y-87504444D01*
X110999115Y-87504511D01*
X110889503Y-87766851D01*
X110883151Y-87773163D01*
X110874694Y-87773329D01*
X110740947Y-87724493D01*
X110407687Y-87602806D01*
X110401091Y-87596750D01*
X110400000Y-87591816D01*
X110400000Y-87408183D01*
X110403427Y-87399910D01*
X110407687Y-87397193D01*
X110874697Y-87226669D01*
X110883641Y-87227050D01*
G37*
%TD.AperFunction*%
%TD*%
%TA.AperFunction,Conductor*%
%TO.N,/Display/SG_G*%
G36*
X102292221Y-82820937D02*
G01*
X102295886Y-82829108D01*
X102295891Y-82829447D01*
X102295891Y-82991978D01*
X102292464Y-83000251D01*
X102288409Y-83002891D01*
X102047005Y-83096188D01*
X102038053Y-83095974D01*
X102031874Y-83089493D01*
X102032088Y-83080541D01*
X102034274Y-83077249D01*
X102275682Y-82821416D01*
X102283852Y-82817752D01*
X102292221Y-82820937D01*
G37*
%TD.AperFunction*%
%TD*%
%TA.AperFunction,Conductor*%
%TO.N,MCU_PD5*%
G36*
X199733174Y-102989439D02*
G01*
X199896804Y-103056629D01*
X199996184Y-103097436D01*
X200002536Y-103103748D01*
X200002563Y-103103815D01*
X200110559Y-103366824D01*
X200110532Y-103375779D01*
X200104670Y-103381877D01*
X199653867Y-103591523D01*
X199644920Y-103591904D01*
X199640660Y-103589187D01*
X199510812Y-103459339D01*
X199507385Y-103451066D01*
X199508474Y-103446136D01*
X199718124Y-102995327D01*
X199724718Y-102989273D01*
X199733174Y-102989439D01*
G37*
%TD.AperFunction*%
%TD*%
%TA.AperFunction,Conductor*%
%TO.N,/Display/SG_E*%
G36*
X109383641Y-87977050D02*
G01*
X109389503Y-87983148D01*
X109499115Y-88245489D01*
X109499142Y-88254444D01*
X109499115Y-88254511D01*
X109389503Y-88516851D01*
X109383151Y-88523163D01*
X109374694Y-88523329D01*
X109240947Y-88474493D01*
X108907687Y-88352806D01*
X108901091Y-88346750D01*
X108900000Y-88341816D01*
X108900000Y-88158183D01*
X108903427Y-88149910D01*
X108907687Y-88147193D01*
X109374697Y-87976669D01*
X109383641Y-87977050D01*
G37*
%TD.AperFunction*%
%TD*%
%TA.AperFunction,Conductor*%
%TO.N,/Display/SG_F*%
G36*
X119126313Y-83397193D02*
G01*
X119132909Y-83403249D01*
X119134000Y-83408183D01*
X119134000Y-83591816D01*
X119130573Y-83600089D01*
X119126313Y-83602806D01*
X118659305Y-83773330D01*
X118650358Y-83772949D01*
X118644496Y-83766851D01*
X118534883Y-83504509D01*
X118534857Y-83495556D01*
X118534862Y-83495542D01*
X118644496Y-83233147D01*
X118650848Y-83226836D01*
X118659302Y-83226669D01*
X119126313Y-83397193D01*
G37*
%TD.AperFunction*%
%TD*%
%TA.AperFunction,Conductor*%
%TO.N,/Display/SG_E*%
G36*
X117592313Y-88147193D02*
G01*
X117598909Y-88153249D01*
X117600000Y-88158183D01*
X117600000Y-88341816D01*
X117596573Y-88350089D01*
X117592313Y-88352806D01*
X117125305Y-88523330D01*
X117116358Y-88522949D01*
X117110496Y-88516851D01*
X117000883Y-88254509D01*
X117000857Y-88245556D01*
X117000862Y-88245542D01*
X117110496Y-87983147D01*
X117116848Y-87976836D01*
X117125302Y-87976669D01*
X117592313Y-88147193D01*
G37*
%TD.AperFunction*%
%TD*%
%TA.AperFunction,Conductor*%
%TO.N,SD_MOSI*%
G36*
X208732670Y-88989233D02*
G01*
X208996184Y-89097436D01*
X209002536Y-89103748D01*
X209002563Y-89103815D01*
X209110766Y-89367329D01*
X209110739Y-89376284D01*
X209105400Y-89382122D01*
X208673169Y-89610042D01*
X208664253Y-89610870D01*
X208659439Y-89607966D01*
X208492033Y-89440560D01*
X208488606Y-89432287D01*
X208489956Y-89426833D01*
X208717877Y-88994598D01*
X208724767Y-88988879D01*
X208732670Y-88989233D01*
G37*
%TD.AperFunction*%
%TD*%
%TA.AperFunction,Conductor*%
%TO.N,/Display/SG_F*%
G36*
X96474913Y-83228993D02*
G01*
X96476389Y-83229737D01*
X96924396Y-83496597D01*
X96929751Y-83503775D01*
X96930109Y-83506649D01*
X96930109Y-83690144D01*
X96926682Y-83698417D01*
X96920397Y-83701674D01*
X96363641Y-83797648D01*
X96354905Y-83795676D01*
X96350123Y-83788106D01*
X96349953Y-83786167D01*
X96349007Y-83502362D01*
X96349909Y-83497822D01*
X96459606Y-83235277D01*
X96465958Y-83228966D01*
X96474913Y-83228993D01*
G37*
%TD.AperFunction*%
%TD*%
%TA.AperFunction,Conductor*%
%TO.N,/Display/SG_A*%
G36*
X91859339Y-92510812D02*
G01*
X91989187Y-92640660D01*
X91992614Y-92648933D01*
X91991523Y-92653867D01*
X91781877Y-93104670D01*
X91775281Y-93110726D01*
X91766824Y-93110559D01*
X91503815Y-93002563D01*
X91497463Y-92996251D01*
X91497436Y-92996184D01*
X91389440Y-92733175D01*
X91389467Y-92724220D01*
X91395326Y-92718124D01*
X91846134Y-92508475D01*
X91855079Y-92508095D01*
X91859339Y-92510812D01*
G37*
%TD.AperFunction*%
%TD*%
%TA.AperFunction,Conductor*%
%TO.N,/Display/SG_F*%
G36*
X90403864Y-100258475D02*
G01*
X90854671Y-100468123D01*
X90860726Y-100474718D01*
X90860559Y-100483175D01*
X90752563Y-100746184D01*
X90746251Y-100752536D01*
X90746184Y-100752563D01*
X90483175Y-100860559D01*
X90474220Y-100860532D01*
X90468123Y-100854671D01*
X90258475Y-100403865D01*
X90258095Y-100394920D01*
X90260810Y-100390662D01*
X90390661Y-100260811D01*
X90398933Y-100257385D01*
X90403864Y-100258475D01*
G37*
%TD.AperFunction*%
%TD*%
%TA.AperFunction,Conductor*%
%TO.N,/Display/SG_B*%
G36*
X116092313Y-84747193D02*
G01*
X116098909Y-84753249D01*
X116100000Y-84758183D01*
X116100000Y-84941816D01*
X116096573Y-84950089D01*
X116092313Y-84952806D01*
X115625305Y-85123330D01*
X115616358Y-85122949D01*
X115610496Y-85116851D01*
X115500883Y-84854509D01*
X115500857Y-84845556D01*
X115500862Y-84845542D01*
X115610496Y-84583147D01*
X115616848Y-84576836D01*
X115625302Y-84576669D01*
X116092313Y-84747193D01*
G37*
%TD.AperFunction*%
%TD*%
%TA.AperFunction,Conductor*%
%TO.N,SD_SCK*%
G36*
X197140560Y-90492033D02*
G01*
X197307966Y-90659439D01*
X197311393Y-90667712D01*
X197310042Y-90673169D01*
X197082122Y-91105400D01*
X197075232Y-91111120D01*
X197067329Y-91110766D01*
X196803815Y-91002563D01*
X196797463Y-90996251D01*
X196797436Y-90996184D01*
X196689233Y-90732670D01*
X196689260Y-90723715D01*
X196694599Y-90717877D01*
X197126832Y-90489956D01*
X197135746Y-90489129D01*
X197140560Y-90492033D01*
G37*
%TD.AperFunction*%
%TD*%
%TA.AperFunction,Conductor*%
%TO.N,/Display/SG_A*%
G36*
X106591093Y-83954323D02*
G01*
X106595876Y-83961893D01*
X106596046Y-83963842D01*
X106596992Y-84247632D01*
X106596088Y-84252182D01*
X106486393Y-84514721D01*
X106480041Y-84521033D01*
X106471086Y-84521006D01*
X106469609Y-84520262D01*
X106021603Y-84253402D01*
X106016249Y-84246224D01*
X106015891Y-84243350D01*
X106015891Y-84059855D01*
X106019318Y-84051582D01*
X106025600Y-84048326D01*
X106582359Y-83952351D01*
X106591093Y-83954323D01*
G37*
%TD.AperFunction*%
%TD*%
%TA.AperFunction,Conductor*%
%TO.N,SD_MISO*%
G36*
X199576466Y-90448817D02*
G01*
X199579773Y-90451138D01*
X199747165Y-90618530D01*
X199750592Y-90626803D01*
X199748465Y-90633530D01*
X199420108Y-91100781D01*
X199412547Y-91105580D01*
X199403808Y-91103627D01*
X199402292Y-91102358D01*
X199200969Y-90902372D01*
X199198393Y-90898516D01*
X199089832Y-90634130D01*
X199089859Y-90625175D01*
X199096211Y-90618863D01*
X199096634Y-90618698D01*
X199567524Y-90448408D01*
X199576466Y-90448817D01*
G37*
%TD.AperFunction*%
%TD*%
%TA.AperFunction,Conductor*%
%TO.N,/Display/SG_D*%
G36*
X118842313Y-87397193D02*
G01*
X118848909Y-87403249D01*
X118850000Y-87408183D01*
X118850000Y-87591816D01*
X118846573Y-87600089D01*
X118842313Y-87602806D01*
X118375305Y-87773330D01*
X118366358Y-87772949D01*
X118360496Y-87766851D01*
X118250883Y-87504509D01*
X118250857Y-87495556D01*
X118250862Y-87495542D01*
X118360496Y-87233147D01*
X118366848Y-87226836D01*
X118375302Y-87226669D01*
X118842313Y-87397193D01*
G37*
%TD.AperFunction*%
%TD*%
%TA.AperFunction,Conductor*%
%TO.N,/Display/SG_D*%
G36*
X125633641Y-87227050D02*
G01*
X125639503Y-87233148D01*
X125749115Y-87495489D01*
X125749142Y-87504444D01*
X125749115Y-87504511D01*
X125639503Y-87766851D01*
X125633151Y-87773163D01*
X125624694Y-87773329D01*
X125490947Y-87724493D01*
X125157687Y-87602806D01*
X125151091Y-87596750D01*
X125150000Y-87591816D01*
X125150000Y-87408183D01*
X125153427Y-87399910D01*
X125157687Y-87397193D01*
X125624697Y-87226669D01*
X125633641Y-87227050D01*
G37*
%TD.AperFunction*%
%TD*%
%TA.AperFunction,Conductor*%
%TO.N,/Display/SG_A*%
G36*
X121409093Y-83954323D02*
G01*
X121413876Y-83961893D01*
X121414046Y-83963842D01*
X121414992Y-84247632D01*
X121414088Y-84252182D01*
X121304393Y-84514721D01*
X121298041Y-84521033D01*
X121289086Y-84521006D01*
X121287609Y-84520262D01*
X120839603Y-84253402D01*
X120834249Y-84246224D01*
X120833891Y-84243350D01*
X120833891Y-84059855D01*
X120837318Y-84051582D01*
X120843600Y-84048326D01*
X121400359Y-83952351D01*
X121409093Y-83954323D01*
G37*
%TD.AperFunction*%
%TD*%
%TA.AperFunction,Conductor*%
%TO.N,/Display/SG_C*%
G36*
X113883641Y-86477050D02*
G01*
X113889503Y-86483148D01*
X113999115Y-86745489D01*
X113999142Y-86754444D01*
X113999115Y-86754511D01*
X113889503Y-87016851D01*
X113883151Y-87023163D01*
X113874694Y-87023329D01*
X113740947Y-86974493D01*
X113407687Y-86852806D01*
X113401091Y-86846750D01*
X113400000Y-86841816D01*
X113400000Y-86658183D01*
X113403427Y-86649910D01*
X113407687Y-86647193D01*
X113874697Y-86476669D01*
X113883641Y-86477050D01*
G37*
%TD.AperFunction*%
%TD*%
%TA.AperFunction,Conductor*%
%TO.N,/Display/SG_B*%
G36*
X90258406Y-95117728D02*
G01*
X90261230Y-95119809D01*
X90389541Y-95248120D01*
X90392303Y-95252504D01*
X90523483Y-95624752D01*
X90523001Y-95633694D01*
X90516939Y-95639445D01*
X90253795Y-95748835D01*
X90244840Y-95748846D01*
X90244810Y-95748833D01*
X90167718Y-95716622D01*
X89984634Y-95640124D01*
X89978322Y-95633772D01*
X89978349Y-95624817D01*
X89978784Y-95623892D01*
X90242603Y-95122632D01*
X90249489Y-95116908D01*
X90258406Y-95117728D01*
G37*
%TD.AperFunction*%
%TD*%
%TA.AperFunction,Conductor*%
%TO.N,/Display/SG_A*%
G36*
X113975635Y-83952350D02*
G01*
X114532398Y-84048326D01*
X114539967Y-84053107D01*
X114542109Y-84059855D01*
X114542109Y-84243350D01*
X114538682Y-84251623D01*
X114536396Y-84253402D01*
X114088389Y-84520262D01*
X114079528Y-84521552D01*
X114072350Y-84516197D01*
X114071606Y-84514721D01*
X113962421Y-84253402D01*
X113961910Y-84252178D01*
X113961007Y-84247636D01*
X113961953Y-83963839D01*
X113965407Y-83955580D01*
X113973692Y-83952181D01*
X113975635Y-83952350D01*
G37*
%TD.AperFunction*%
%TD*%
%TA.AperFunction,Conductor*%
%TO.N,/Display/SG_D*%
G36*
X111592313Y-87397193D02*
G01*
X111598909Y-87403249D01*
X111600000Y-87408183D01*
X111600000Y-87591816D01*
X111596573Y-87600089D01*
X111592313Y-87602806D01*
X111125305Y-87773330D01*
X111116358Y-87772949D01*
X111110496Y-87766851D01*
X111000883Y-87504509D01*
X111000857Y-87495556D01*
X111000862Y-87495542D01*
X111110496Y-87233147D01*
X111116848Y-87226836D01*
X111125302Y-87226669D01*
X111592313Y-87397193D01*
G37*
%TD.AperFunction*%
%TD*%
%TA.AperFunction,Conductor*%
%TO.N,/Display/SG_F*%
G36*
X118417641Y-83227050D02*
G01*
X118423503Y-83233148D01*
X118533115Y-83495489D01*
X118533142Y-83504444D01*
X118533115Y-83504511D01*
X118423503Y-83766851D01*
X118417151Y-83773163D01*
X118408694Y-83773329D01*
X118274947Y-83724493D01*
X117941687Y-83602806D01*
X117935091Y-83596750D01*
X117934000Y-83591816D01*
X117934000Y-83408183D01*
X117937427Y-83399910D01*
X117941687Y-83397193D01*
X118408697Y-83226669D01*
X118417641Y-83227050D01*
G37*
%TD.AperFunction*%
%TD*%
%TA.AperFunction,Conductor*%
%TO.N,/Display/SG_E*%
G36*
X95592313Y-88147193D02*
G01*
X95598909Y-88153249D01*
X95600000Y-88158183D01*
X95600000Y-88341816D01*
X95596573Y-88350089D01*
X95592313Y-88352806D01*
X95125305Y-88523330D01*
X95116358Y-88522949D01*
X95110496Y-88516851D01*
X95000883Y-88254509D01*
X95000857Y-88245556D01*
X95000862Y-88245542D01*
X95110496Y-87983147D01*
X95116848Y-87976836D01*
X95125302Y-87976669D01*
X95592313Y-88147193D01*
G37*
%TD.AperFunction*%
%TD*%
%TA.AperFunction,Conductor*%
%TO.N,MCU_PD4*%
G36*
X204175799Y-96589219D02*
G01*
X204320789Y-96648755D01*
X204439345Y-96697436D01*
X204445697Y-96703748D01*
X204445724Y-96703815D01*
X204553462Y-96966196D01*
X204553435Y-96975151D01*
X204547083Y-96981463D01*
X204546939Y-96981521D01*
X204079462Y-97166278D01*
X204070509Y-97166132D01*
X204066889Y-97163670D01*
X203938008Y-97034789D01*
X203934581Y-97026516D01*
X203937437Y-97018857D01*
X203976850Y-96973373D01*
X204036638Y-96842457D01*
X204039066Y-96825562D01*
X204040310Y-96821752D01*
X204161025Y-96594551D01*
X204167932Y-96588855D01*
X204175799Y-96589219D01*
G37*
%TD.AperFunction*%
%TD*%
D14*
X148950000Y-104400000D03*
X214600000Y-95250000D03*
X135250000Y-98800000D03*
X198150000Y-90900000D03*
X135700000Y-93600000D03*
X138650000Y-98750000D03*
X214500000Y-99600000D03*
X206650000Y-103600000D03*
X141900000Y-104400000D03*
X126000000Y-92650000D03*
X152475000Y-104400000D03*
X153150000Y-98750000D03*
X201350000Y-101600000D03*
X187087310Y-103169160D03*
X164497800Y-101632974D03*
X84770437Y-83050744D03*
X113300000Y-92950000D03*
X104875000Y-92950000D03*
X188700000Y-101050000D03*
X88100000Y-106050000D03*
X220250000Y-105750000D03*
X215200000Y-103000000D03*
X217200000Y-89300000D03*
X149500000Y-98750000D03*
X74300000Y-90700000D03*
X78275000Y-100625000D03*
X98000000Y-100800000D03*
X193100000Y-102600000D03*
X145425000Y-104400000D03*
X193100000Y-100800000D03*
X109025000Y-92950000D03*
X156000000Y-104400000D03*
X117550000Y-92950000D03*
X102700000Y-95100000D03*
X91600000Y-85600000D03*
X101150000Y-100775000D03*
X80850000Y-103625000D03*
X84200000Y-90700000D03*
X189100000Y-83450000D03*
X96700000Y-106050000D03*
X145850000Y-98800000D03*
X175900000Y-102500000D03*
X142250000Y-98800000D03*
X217300000Y-81600000D03*
X207750000Y-99400000D03*
X183250000Y-103550000D03*
X188475000Y-103950000D03*
X209700000Y-103350000D03*
X204400000Y-101100000D03*
X121700000Y-92950000D03*
X107900000Y-106000000D03*
X132550000Y-81550000D03*
X76400000Y-106050000D03*
X132540000Y-104580000D03*
X92300000Y-81200000D03*
X205850000Y-90550000D03*
X73600000Y-82600000D03*
X189750000Y-89550000D03*
X206900000Y-100250000D03*
X182700000Y-101000000D03*
X193050000Y-103650000D03*
X187150000Y-99900000D03*
X219950000Y-94050000D03*
X207850000Y-96100000D03*
X157550000Y-104400000D03*
X203551473Y-96700000D03*
X153950000Y-104400000D03*
X204443161Y-96700000D03*
X150450000Y-104400000D03*
X200000000Y-103100000D03*
X146800000Y-104400000D03*
X200000000Y-104000000D03*
X143104343Y-104445657D03*
X139450000Y-104350000D03*
X200000000Y-104900000D03*
X128780000Y-86750000D03*
X90750000Y-97000000D03*
X121250000Y-86750000D03*
X99250000Y-86750000D03*
X106500000Y-86750000D03*
X114000000Y-86750000D03*
X128780000Y-84000000D03*
X99250000Y-84250000D03*
X106596000Y-84250000D03*
X121414000Y-84250000D03*
X113962000Y-84250000D03*
X91500000Y-93000000D03*
X130150000Y-84850000D03*
X115500000Y-84850000D03*
X122850000Y-84850000D03*
X100770000Y-84850000D03*
X108172000Y-84850000D03*
X90250000Y-95750000D03*
X111000000Y-87500000D03*
X125750000Y-87500000D03*
X118250000Y-87500000D03*
X103716000Y-87500000D03*
X96250000Y-87500000D03*
X102250000Y-88250000D03*
X95000000Y-88250000D03*
X117000000Y-88250000D03*
X124500000Y-88250000D03*
X109500000Y-88250000D03*
X96350000Y-83500000D03*
X125900000Y-83500000D03*
X90750000Y-100750000D03*
X103650000Y-83550000D03*
X118534000Y-83500000D03*
X111082000Y-83500000D03*
X102276000Y-83000000D03*
X94925000Y-83000000D03*
X117075000Y-82900000D03*
X124465664Y-82885957D03*
X90750000Y-102000000D03*
X109642000Y-82900000D03*
X130220000Y-86000000D03*
X98100000Y-103300000D03*
X122750000Y-86000000D03*
X100250000Y-91250000D03*
X108000000Y-86000000D03*
X100750000Y-86000000D03*
X115500000Y-86000000D03*
X99850000Y-92450000D03*
X211300000Y-92350000D03*
X213150000Y-97650000D03*
X184750000Y-98650000D03*
X186700000Y-98600000D03*
X211800000Y-97750000D03*
X80400000Y-104600000D03*
X210750000Y-102150000D03*
X211500000Y-101600000D03*
X82600000Y-103800000D03*
X209150000Y-102700000D03*
X71026000Y-103076000D03*
X126750000Y-91250000D03*
X101120000Y-99520000D03*
X129600000Y-92650000D03*
X208850000Y-86850000D03*
X193500000Y-93900000D03*
X211900000Y-89000000D03*
X194600000Y-93700000D03*
X209000000Y-89100000D03*
X199200000Y-90900000D03*
X211200000Y-88300000D03*
X212527000Y-89577000D03*
X196800000Y-91000000D03*
X103500000Y-94250000D03*
X138650000Y-99950000D03*
D15*
X80276000Y-83311999D03*
X80276000Y-97311999D03*
X199550000Y-81250000D03*
X191550000Y-81250000D03*
M02*
