M48
; DRILL file {KiCad 8.0.4} date 2024-11-23T17:51:10-0500
; FORMAT={-:-/ absolute / metric / decimal}
; #@! TF.CreationDate,2024-11-23T17:51:10-05:00
; #@! TF.GenerationSoftware,Kicad,Pcbnew,8.0.4
; #@! TF.FileFunction,Plated,1,2,PTH
FMAT,2
METRIC
; #@! TA.AperFunction,Plated,PTH,ViaDrill
T1C0.300
%
G90
G05
T1
X71.026Y-103.076
X73.6Y-82.6
X74.3Y-90.7
X76.4Y-106.05
X78.275Y-100.625
X80.4Y-104.6
X80.85Y-103.625
X82.6Y-103.8
X84.2Y-90.7
X84.77Y-83.051
X88.1Y-106.05
X90.25Y-95.75
X90.75Y-97.0
X90.75Y-100.75
X90.75Y-102.0
X91.5Y-93.0
X91.6Y-85.6
X92.3Y-81.2
X94.925Y-83.0
X95.0Y-88.25
X96.25Y-87.5
X96.35Y-83.5
X96.7Y-106.05
X98.0Y-100.8
X98.1Y-103.3
X99.25Y-84.25
X99.25Y-86.75
X99.85Y-92.45
X100.25Y-91.25
X100.75Y-86.0
X100.77Y-84.85
X101.12Y-99.52
X101.15Y-100.775
X102.25Y-88.25
X102.276Y-83.0
X102.7Y-95.1
X103.5Y-94.25
X103.65Y-83.55
X103.716Y-87.5
X104.875Y-92.95
X106.5Y-86.75
X106.596Y-84.25
X107.9Y-106.0
X108.0Y-86.0
X108.172Y-84.85
X109.025Y-92.95
X109.5Y-88.25
X109.642Y-82.9
X111.0Y-87.5
X111.082Y-83.5
X113.3Y-92.95
X113.962Y-84.25
X114.0Y-86.75
X115.5Y-84.85
X115.5Y-86.0
X117.0Y-88.25
X117.075Y-82.9
X117.55Y-92.95
X118.25Y-87.5
X118.534Y-83.5
X121.25Y-86.75
X121.414Y-84.25
X121.7Y-92.95
X122.75Y-86.0
X122.85Y-84.85
X124.466Y-82.886
X124.5Y-88.25
X125.75Y-87.5
X125.9Y-83.5
X126.0Y-92.65
X126.75Y-91.25
X128.78Y-84.0
X128.78Y-86.75
X129.6Y-92.65
X130.15Y-84.85
X130.22Y-86.0
X132.54Y-104.58
X132.55Y-81.55
X135.25Y-98.8
X135.7Y-93.6
X138.65Y-98.75
X138.65Y-99.95
X139.45Y-104.35
X141.9Y-104.4
X142.25Y-98.8
X143.104Y-104.446
X145.425Y-104.4
X145.85Y-98.8
X146.8Y-104.4
X148.95Y-104.4
X149.5Y-98.75
X150.45Y-104.4
X152.475Y-104.4
X153.15Y-98.75
X153.95Y-104.4
X156.0Y-104.4
X157.55Y-104.4
X164.498Y-101.633
X175.9Y-102.5
X182.7Y-101.0
X183.25Y-103.55
X184.75Y-98.65
X186.7Y-98.6
X187.087Y-103.169
X187.15Y-99.9
X188.475Y-103.95
X188.7Y-101.05
X189.1Y-83.45
X189.75Y-89.55
X193.05Y-103.65
X193.1Y-100.8
X193.1Y-102.6
X193.5Y-93.9
X194.6Y-93.7
X196.8Y-91.0
X198.15Y-90.9
X199.2Y-90.9
X200.0Y-103.1
X200.0Y-104.0
X200.0Y-104.9
X201.35Y-101.6
X203.551Y-96.7
X204.4Y-101.1
X204.443Y-96.7
X205.85Y-90.55
X206.65Y-103.6
X206.9Y-100.25
X207.75Y-99.4
X207.85Y-96.1
X208.85Y-86.85
X209.0Y-89.1
X209.15Y-102.7
X209.7Y-103.35
X210.75Y-102.15
X211.2Y-88.3
X211.3Y-92.35
X211.5Y-101.6
X211.8Y-97.75
X211.9Y-89.0
X212.527Y-89.577
X213.15Y-97.65
X214.5Y-99.6
X214.6Y-95.25
X215.2Y-103.0
X217.2Y-89.3
X217.3Y-81.6
X219.95Y-94.05
X220.25Y-105.75
M30
