%TF.GenerationSoftware,KiCad,Pcbnew,8.0.4*%
%TF.CreationDate,2024-11-23T17:51:10-05:00*%
%TF.ProjectId,Ruler_PowerCouple,52756c65-725f-4506-9f77-6572436f7570,rev?*%
%TF.SameCoordinates,Original*%
%TF.FileFunction,Legend,Top*%
%TF.FilePolarity,Positive*%
%FSLAX46Y46*%
G04 Gerber Fmt 4.6, Leading zero omitted, Abs format (unit mm)*
G04 Created by KiCad (PCBNEW 8.0.4) date 2024-11-23 17:51:10*
%MOMM*%
%LPD*%
G01*
G04 APERTURE LIST*
%ADD10C,0.100000*%
%ADD11C,0.120000*%
%ADD12C,0.150000*%
%ADD13C,0.000000*%
%ADD14C,0.127000*%
%ADD15C,0.200000*%
%ADD16C,0.250000*%
%ADD17C,0.350000*%
G04 APERTURE END LIST*
D10*
X121500000Y-109500000D02*
X121500000Y-109000000D01*
X111500000Y-109500000D02*
X111500000Y-109000000D01*
X139500000Y-109500000D02*
X139500000Y-109000000D01*
X199500000Y-109500000D02*
X199500000Y-109000000D01*
X213500000Y-109500000D02*
X213500000Y-109000000D01*
X131500000Y-109500000D02*
X131500000Y-109000000D01*
X142500000Y-109500000D02*
X142500000Y-107000000D01*
X172500000Y-109500000D02*
X172500000Y-107000000D01*
X174500000Y-109500000D02*
X174500000Y-109000000D01*
X114500000Y-109500000D02*
X114500000Y-109000000D01*
X73000000Y-109500000D02*
X73000000Y-109300000D01*
X153500000Y-109500000D02*
X153500000Y-109000000D01*
X190500000Y-109500000D02*
X190500000Y-109000000D01*
X187500000Y-109500000D02*
X187500000Y-108000000D01*
X72500000Y-109500000D02*
X75000000Y-109500000D01*
X101500000Y-109500000D02*
X101500000Y-109000000D01*
X173500000Y-109500000D02*
X173500000Y-109000000D01*
X113500000Y-109500000D02*
X113500000Y-109000000D01*
X204500000Y-109500000D02*
X204500000Y-109000000D01*
X196500000Y-109500000D02*
X196500000Y-109000000D01*
X86500000Y-109500000D02*
X86500000Y-109000000D01*
X198500000Y-109500000D02*
X198500000Y-109000000D01*
X82500000Y-109500000D02*
X82500000Y-107000000D01*
X96500000Y-109500000D02*
X96500000Y-109000000D01*
X84500000Y-109500000D02*
X84500000Y-109000000D01*
X200500000Y-109500000D02*
X200500000Y-109000000D01*
X222500000Y-109500000D02*
X222500000Y-107000000D01*
X159500000Y-109500000D02*
X159500000Y-109000000D01*
X75000000Y-109500000D02*
X75000000Y-109300000D01*
X127500000Y-109500000D02*
X127500000Y-108000000D01*
X201500000Y-109500000D02*
X201500000Y-109000000D01*
X150500000Y-109500000D02*
X150500000Y-109000000D01*
X78000000Y-109500000D02*
X78000000Y-109300000D01*
X122500000Y-109500000D02*
X122500000Y-107000000D01*
X83500000Y-109500000D02*
X83500000Y-109000000D01*
X166500000Y-109500000D02*
X166500000Y-109000000D01*
X73500000Y-109500000D02*
X73500000Y-109000000D01*
X191500000Y-109500000D02*
X191500000Y-109000000D01*
X85500000Y-109500000D02*
X85500000Y-109000000D01*
X211500000Y-109500000D02*
X211500000Y-109000000D01*
X218500000Y-109500000D02*
X218500000Y-109000000D01*
X162500000Y-109500000D02*
X162500000Y-107000000D01*
X80500000Y-109500000D02*
X80500000Y-109000000D01*
X137500000Y-109500000D02*
X137500000Y-108000000D01*
X176500000Y-109500000D02*
X176500000Y-109000000D01*
X106500000Y-109500000D02*
X106500000Y-109000000D01*
X209500000Y-109500000D02*
X209500000Y-109000000D01*
X123500000Y-109500000D02*
X123500000Y-109000000D01*
X189500000Y-109500000D02*
X189500000Y-109000000D01*
X133500000Y-109500000D02*
X133500000Y-109000000D01*
X160500000Y-109500000D02*
X160500000Y-109000000D01*
X194500000Y-109500000D02*
X194500000Y-109000000D01*
X149500000Y-109500000D02*
X149500000Y-109000000D01*
X120500000Y-109500000D02*
X120500000Y-109000000D01*
X197500000Y-109500000D02*
X197500000Y-108000000D01*
X164500000Y-109500000D02*
X164500000Y-109000000D01*
X109500000Y-109500000D02*
X109500000Y-109000000D01*
X102500000Y-109500000D02*
X102500000Y-107000000D01*
X205500000Y-109500000D02*
X205500000Y-109000000D01*
X81500000Y-109500000D02*
X81500000Y-109000000D01*
X72500000Y-109500000D02*
X222500000Y-109500000D01*
X81000000Y-109500000D02*
X81000000Y-109300000D01*
X75500000Y-109500000D02*
X75500000Y-109000000D01*
X207500000Y-109500000D02*
X207500000Y-108000000D01*
X79000000Y-109500000D02*
X79000000Y-109300000D01*
X157500000Y-109500000D02*
X157500000Y-108000000D01*
X208500000Y-109500000D02*
X208500000Y-109000000D01*
X118500000Y-109500000D02*
X118500000Y-109000000D01*
X87500000Y-109500000D02*
X87500000Y-108000000D01*
X155500000Y-109500000D02*
X155500000Y-109000000D01*
X184500000Y-109500000D02*
X184500000Y-109000000D01*
X99500000Y-109500000D02*
X99500000Y-109000000D01*
X77500000Y-109500000D02*
X77500000Y-108000000D01*
X146500000Y-109500000D02*
X146500000Y-109000000D01*
X177500000Y-109500000D02*
X177500000Y-108000000D01*
X165500000Y-109500000D02*
X165500000Y-109000000D01*
X94500000Y-109500000D02*
X94500000Y-109000000D01*
G36*
X134124797Y-83056866D02*
G01*
X135000000Y-83056866D01*
X135000000Y-83817771D01*
X134124797Y-83817771D01*
X134124797Y-83056866D01*
G37*
X210500000Y-109500000D02*
X210500000Y-109000000D01*
X72500000Y-109500000D02*
X72500000Y-105000000D01*
X130500000Y-109500000D02*
X130500000Y-109000000D01*
X141500000Y-109500000D02*
X141500000Y-109000000D01*
X161500000Y-109500000D02*
X161500000Y-109000000D01*
X117500000Y-109500000D02*
X117500000Y-108000000D01*
X220500000Y-109500000D02*
X220500000Y-109000000D01*
X135500000Y-109500000D02*
X135500000Y-109000000D01*
G36*
X134505250Y-81782229D02*
G01*
X135266155Y-81782229D01*
X135266155Y-82543134D01*
X134505250Y-82543134D01*
X134505250Y-81782229D01*
G37*
X214500000Y-109500000D02*
X214500000Y-109000000D01*
X74500000Y-109500000D02*
X74500000Y-109000000D01*
X119500000Y-109500000D02*
X119500000Y-109000000D01*
X88500000Y-109500000D02*
X88500000Y-109000000D01*
X193500000Y-109500000D02*
X193500000Y-109000000D01*
X217500000Y-109500000D02*
X217500000Y-108000000D01*
X183500000Y-109500000D02*
X183500000Y-109000000D01*
X126500000Y-109500000D02*
X126500000Y-109000000D01*
X89500000Y-109500000D02*
X89500000Y-109000000D01*
X132500000Y-109500000D02*
X132500000Y-107000000D01*
X128500000Y-109500000D02*
X128500000Y-109000000D01*
X144500000Y-109500000D02*
X144500000Y-109000000D01*
X206500000Y-109500000D02*
X206500000Y-109000000D01*
X145500000Y-109500000D02*
X145500000Y-109000000D01*
X170500000Y-109500000D02*
X170500000Y-109000000D01*
X181500000Y-109500000D02*
X181500000Y-109000000D01*
X79500000Y-109500000D02*
X79500000Y-109000000D01*
X74000000Y-109500000D02*
X74000000Y-109300000D01*
X167500000Y-109500000D02*
X167500000Y-108000000D01*
X180500000Y-109500000D02*
X180500000Y-109000000D01*
X168500000Y-109500000D02*
X168500000Y-109000000D01*
X163500000Y-109500000D02*
X163500000Y-109000000D01*
X219500000Y-109500000D02*
X219500000Y-109000000D01*
X125500000Y-109500000D02*
X125500000Y-109000000D01*
X80000000Y-109500000D02*
X80000000Y-109300000D01*
X98500000Y-109500000D02*
X98500000Y-109000000D01*
X136500000Y-109500000D02*
X136500000Y-109000000D01*
X143500000Y-109500000D02*
X143500000Y-109000000D01*
X222500000Y-109500000D02*
X222500000Y-105000000D01*
X76000000Y-109500000D02*
X76000000Y-109300000D01*
X152500000Y-109500000D02*
X152500000Y-107000000D01*
X97500000Y-109500000D02*
X97500000Y-108000000D01*
X95500000Y-109500000D02*
X95500000Y-109000000D01*
X203500000Y-109500000D02*
X203500000Y-109000000D01*
X103500000Y-109500000D02*
X103500000Y-109000000D01*
X105500000Y-109500000D02*
X105500000Y-109000000D01*
X78500000Y-109500000D02*
X78500000Y-109000000D01*
X82000000Y-109500000D02*
X82000000Y-109300000D01*
X124500000Y-109500000D02*
X124500000Y-109000000D01*
X90500000Y-109500000D02*
X90500000Y-109000000D01*
X158500000Y-109500000D02*
X158500000Y-109000000D01*
X192500000Y-109500000D02*
X192500000Y-107000000D01*
X93500000Y-109500000D02*
X93500000Y-109000000D01*
X169500000Y-109500000D02*
X169500000Y-109000000D01*
X92500000Y-109500000D02*
X92500000Y-107000000D01*
X134500000Y-109500000D02*
X134500000Y-109000000D01*
X151500000Y-109500000D02*
X151500000Y-109000000D01*
X100500000Y-109500000D02*
X100500000Y-109000000D01*
X175500000Y-109500000D02*
X175500000Y-109000000D01*
X215500000Y-109500000D02*
X215500000Y-109000000D01*
X129500000Y-109500000D02*
X129500000Y-109000000D01*
X185500000Y-109500000D02*
X185500000Y-109000000D01*
X156500000Y-109500000D02*
X156500000Y-109000000D01*
X188500000Y-109500000D02*
X188500000Y-109000000D01*
X171500000Y-109500000D02*
X171500000Y-109000000D01*
X108500000Y-109500000D02*
X108500000Y-109000000D01*
X212500000Y-109500000D02*
X212500000Y-107000000D01*
X115500000Y-109500000D02*
X115500000Y-109000000D01*
X91500000Y-109500000D02*
X91500000Y-109000000D01*
X202500000Y-109500000D02*
X202500000Y-107000000D01*
X107500000Y-109500000D02*
X107500000Y-108000000D01*
X186500000Y-109500000D02*
X186500000Y-109000000D01*
X110500000Y-109500000D02*
X110500000Y-109000000D01*
X104500000Y-109500000D02*
X104500000Y-109000000D01*
X154500000Y-109500000D02*
X154500000Y-109000000D01*
X147500000Y-109500000D02*
X147500000Y-108000000D01*
X216500000Y-109500000D02*
X216500000Y-109000000D01*
X112500000Y-109500000D02*
X112500000Y-107000000D01*
X76500000Y-109500000D02*
X76500000Y-109000000D01*
X140500000Y-109500000D02*
X140500000Y-109000000D01*
X195500000Y-109500000D02*
X195500000Y-109000000D01*
X221500000Y-109500000D02*
X221500000Y-109000000D01*
X178500000Y-109500000D02*
X178500000Y-109000000D01*
X138500000Y-109500000D02*
X138500000Y-109000000D01*
X182500000Y-109500000D02*
X182500000Y-107000000D01*
X116500000Y-109500000D02*
X116500000Y-109000000D01*
X179500000Y-109500000D02*
X179500000Y-109000000D01*
X77000000Y-109500000D02*
X77000000Y-109300000D01*
X148500000Y-109500000D02*
X148500000Y-109000000D01*
D11*
X182180851Y-106731379D02*
X181609423Y-106731379D01*
X181895137Y-106731379D02*
X181895137Y-105731379D01*
X181895137Y-105731379D02*
X181799899Y-105874236D01*
X181799899Y-105874236D02*
X181704661Y-105969474D01*
X181704661Y-105969474D02*
X181609423Y-106017093D01*
X183133232Y-106731379D02*
X182561804Y-106731379D01*
X182847518Y-106731379D02*
X182847518Y-105731379D01*
X182847518Y-105731379D02*
X182752280Y-105874236D01*
X182752280Y-105874236D02*
X182657042Y-105969474D01*
X182657042Y-105969474D02*
X182561804Y-106017093D01*
X112635613Y-106064712D02*
X112635613Y-106731379D01*
X112397518Y-105683760D02*
X112159423Y-106398045D01*
X112159423Y-106398045D02*
X112778470Y-106398045D01*
X102201804Y-105731379D02*
X102820851Y-105731379D01*
X102820851Y-105731379D02*
X102487518Y-106112331D01*
X102487518Y-106112331D02*
X102630375Y-106112331D01*
X102630375Y-106112331D02*
X102725613Y-106159950D01*
X102725613Y-106159950D02*
X102773232Y-106207569D01*
X102773232Y-106207569D02*
X102820851Y-106302807D01*
X102820851Y-106302807D02*
X102820851Y-106540902D01*
X102820851Y-106540902D02*
X102773232Y-106636140D01*
X102773232Y-106636140D02*
X102725613Y-106683760D01*
X102725613Y-106683760D02*
X102630375Y-106731379D01*
X102630375Y-106731379D02*
X102344661Y-106731379D01*
X102344661Y-106731379D02*
X102249423Y-106683760D01*
X102249423Y-106683760D02*
X102201804Y-106636140D01*
X162254661Y-106731379D02*
X162445137Y-106731379D01*
X162445137Y-106731379D02*
X162540375Y-106683760D01*
X162540375Y-106683760D02*
X162587994Y-106636140D01*
X162587994Y-106636140D02*
X162683232Y-106493283D01*
X162683232Y-106493283D02*
X162730851Y-106302807D01*
X162730851Y-106302807D02*
X162730851Y-105921855D01*
X162730851Y-105921855D02*
X162683232Y-105826617D01*
X162683232Y-105826617D02*
X162635613Y-105778998D01*
X162635613Y-105778998D02*
X162540375Y-105731379D01*
X162540375Y-105731379D02*
X162349899Y-105731379D01*
X162349899Y-105731379D02*
X162254661Y-105778998D01*
X162254661Y-105778998D02*
X162207042Y-105826617D01*
X162207042Y-105826617D02*
X162159423Y-105921855D01*
X162159423Y-105921855D02*
X162159423Y-106159950D01*
X162159423Y-106159950D02*
X162207042Y-106255188D01*
X162207042Y-106255188D02*
X162254661Y-106302807D01*
X162254661Y-106302807D02*
X162349899Y-106350426D01*
X162349899Y-106350426D02*
X162540375Y-106350426D01*
X162540375Y-106350426D02*
X162635613Y-106302807D01*
X162635613Y-106302807D02*
X162683232Y-106255188D01*
X162683232Y-106255188D02*
X162730851Y-106159950D01*
D12*
X124402200Y-101829411D02*
X124449819Y-101686554D01*
X124449819Y-101686554D02*
X124449819Y-101448459D01*
X124449819Y-101448459D02*
X124402200Y-101353221D01*
X124402200Y-101353221D02*
X124354580Y-101305602D01*
X124354580Y-101305602D02*
X124259342Y-101257983D01*
X124259342Y-101257983D02*
X124164104Y-101257983D01*
X124164104Y-101257983D02*
X124068866Y-101305602D01*
X124068866Y-101305602D02*
X124021247Y-101353221D01*
X124021247Y-101353221D02*
X123973628Y-101448459D01*
X123973628Y-101448459D02*
X123926009Y-101638935D01*
X123926009Y-101638935D02*
X123878390Y-101734173D01*
X123878390Y-101734173D02*
X123830771Y-101781792D01*
X123830771Y-101781792D02*
X123735533Y-101829411D01*
X123735533Y-101829411D02*
X123640295Y-101829411D01*
X123640295Y-101829411D02*
X123545057Y-101781792D01*
X123545057Y-101781792D02*
X123497438Y-101734173D01*
X123497438Y-101734173D02*
X123449819Y-101638935D01*
X123449819Y-101638935D02*
X123449819Y-101400840D01*
X123449819Y-101400840D02*
X123497438Y-101257983D01*
X124164104Y-100877030D02*
X124164104Y-100400840D01*
X124449819Y-100972268D02*
X123449819Y-100638935D01*
X123449819Y-100638935D02*
X124449819Y-100305602D01*
X123449819Y-100115125D02*
X124449819Y-99781792D01*
X124449819Y-99781792D02*
X123449819Y-99448459D01*
X123926009Y-99115125D02*
X123926009Y-98781792D01*
X124449819Y-98638935D02*
X124449819Y-99115125D01*
X124449819Y-99115125D02*
X123449819Y-99115125D01*
X123449819Y-99115125D02*
X123449819Y-98638935D01*
D11*
X132615613Y-105731379D02*
X132425137Y-105731379D01*
X132425137Y-105731379D02*
X132329899Y-105778998D01*
X132329899Y-105778998D02*
X132282280Y-105826617D01*
X132282280Y-105826617D02*
X132187042Y-105969474D01*
X132187042Y-105969474D02*
X132139423Y-106159950D01*
X132139423Y-106159950D02*
X132139423Y-106540902D01*
X132139423Y-106540902D02*
X132187042Y-106636140D01*
X132187042Y-106636140D02*
X132234661Y-106683760D01*
X132234661Y-106683760D02*
X132329899Y-106731379D01*
X132329899Y-106731379D02*
X132520375Y-106731379D01*
X132520375Y-106731379D02*
X132615613Y-106683760D01*
X132615613Y-106683760D02*
X132663232Y-106636140D01*
X132663232Y-106636140D02*
X132710851Y-106540902D01*
X132710851Y-106540902D02*
X132710851Y-106302807D01*
X132710851Y-106302807D02*
X132663232Y-106207569D01*
X132663232Y-106207569D02*
X132615613Y-106159950D01*
X132615613Y-106159950D02*
X132520375Y-106112331D01*
X132520375Y-106112331D02*
X132329899Y-106112331D01*
X132329899Y-106112331D02*
X132234661Y-106159950D01*
X132234661Y-106159950D02*
X132187042Y-106207569D01*
X132187042Y-106207569D02*
X132139423Y-106302807D01*
X152349899Y-106159950D02*
X152254661Y-106112331D01*
X152254661Y-106112331D02*
X152207042Y-106064712D01*
X152207042Y-106064712D02*
X152159423Y-105969474D01*
X152159423Y-105969474D02*
X152159423Y-105921855D01*
X152159423Y-105921855D02*
X152207042Y-105826617D01*
X152207042Y-105826617D02*
X152254661Y-105778998D01*
X152254661Y-105778998D02*
X152349899Y-105731379D01*
X152349899Y-105731379D02*
X152540375Y-105731379D01*
X152540375Y-105731379D02*
X152635613Y-105778998D01*
X152635613Y-105778998D02*
X152683232Y-105826617D01*
X152683232Y-105826617D02*
X152730851Y-105921855D01*
X152730851Y-105921855D02*
X152730851Y-105969474D01*
X152730851Y-105969474D02*
X152683232Y-106064712D01*
X152683232Y-106064712D02*
X152635613Y-106112331D01*
X152635613Y-106112331D02*
X152540375Y-106159950D01*
X152540375Y-106159950D02*
X152349899Y-106159950D01*
X152349899Y-106159950D02*
X152254661Y-106207569D01*
X152254661Y-106207569D02*
X152207042Y-106255188D01*
X152207042Y-106255188D02*
X152159423Y-106350426D01*
X152159423Y-106350426D02*
X152159423Y-106540902D01*
X152159423Y-106540902D02*
X152207042Y-106636140D01*
X152207042Y-106636140D02*
X152254661Y-106683760D01*
X152254661Y-106683760D02*
X152349899Y-106731379D01*
X152349899Y-106731379D02*
X152540375Y-106731379D01*
X152540375Y-106731379D02*
X152635613Y-106683760D01*
X152635613Y-106683760D02*
X152683232Y-106636140D01*
X152683232Y-106636140D02*
X152730851Y-106540902D01*
X152730851Y-106540902D02*
X152730851Y-106350426D01*
X152730851Y-106350426D02*
X152683232Y-106255188D01*
X152683232Y-106255188D02*
X152635613Y-106207569D01*
X152635613Y-106207569D02*
X152540375Y-106159950D01*
X222570851Y-104571379D02*
X221999423Y-104571379D01*
X222285137Y-104571379D02*
X222285137Y-103571379D01*
X222285137Y-103571379D02*
X222189899Y-103714236D01*
X222189899Y-103714236D02*
X222094661Y-103809474D01*
X222094661Y-103809474D02*
X221999423Y-103857093D01*
X223475613Y-103571379D02*
X222999423Y-103571379D01*
X222999423Y-103571379D02*
X222951804Y-104047569D01*
X222951804Y-104047569D02*
X222999423Y-103999950D01*
X222999423Y-103999950D02*
X223094661Y-103952331D01*
X223094661Y-103952331D02*
X223332756Y-103952331D01*
X223332756Y-103952331D02*
X223427994Y-103999950D01*
X223427994Y-103999950D02*
X223475613Y-104047569D01*
X223475613Y-104047569D02*
X223523232Y-104142807D01*
X223523232Y-104142807D02*
X223523232Y-104380902D01*
X223523232Y-104380902D02*
X223475613Y-104476140D01*
X223475613Y-104476140D02*
X223427994Y-104523760D01*
X223427994Y-104523760D02*
X223332756Y-104571379D01*
X223332756Y-104571379D02*
X223094661Y-104571379D01*
X223094661Y-104571379D02*
X222999423Y-104523760D01*
X222999423Y-104523760D02*
X222951804Y-104476140D01*
D12*
X115894580Y-101781792D02*
X115942200Y-101829411D01*
X115942200Y-101829411D02*
X115989819Y-101972268D01*
X115989819Y-101972268D02*
X115989819Y-102067506D01*
X115989819Y-102067506D02*
X115942200Y-102210363D01*
X115942200Y-102210363D02*
X115846961Y-102305601D01*
X115846961Y-102305601D02*
X115751723Y-102353220D01*
X115751723Y-102353220D02*
X115561247Y-102400839D01*
X115561247Y-102400839D02*
X115418390Y-102400839D01*
X115418390Y-102400839D02*
X115227914Y-102353220D01*
X115227914Y-102353220D02*
X115132676Y-102305601D01*
X115132676Y-102305601D02*
X115037438Y-102210363D01*
X115037438Y-102210363D02*
X114989819Y-102067506D01*
X114989819Y-102067506D02*
X114989819Y-101972268D01*
X114989819Y-101972268D02*
X115037438Y-101829411D01*
X115037438Y-101829411D02*
X115085057Y-101781792D01*
X115704104Y-101400839D02*
X115704104Y-100924649D01*
X115989819Y-101496077D02*
X114989819Y-101162744D01*
X114989819Y-101162744D02*
X115989819Y-100829411D01*
X115989819Y-100019887D02*
X115989819Y-100496077D01*
X115989819Y-100496077D02*
X114989819Y-100496077D01*
X115989819Y-99686553D02*
X114989819Y-99686553D01*
X115466009Y-98877030D02*
X115513628Y-98734173D01*
X115513628Y-98734173D02*
X115561247Y-98686554D01*
X115561247Y-98686554D02*
X115656485Y-98638935D01*
X115656485Y-98638935D02*
X115799342Y-98638935D01*
X115799342Y-98638935D02*
X115894580Y-98686554D01*
X115894580Y-98686554D02*
X115942200Y-98734173D01*
X115942200Y-98734173D02*
X115989819Y-98829411D01*
X115989819Y-98829411D02*
X115989819Y-99210363D01*
X115989819Y-99210363D02*
X114989819Y-99210363D01*
X114989819Y-99210363D02*
X114989819Y-98877030D01*
X114989819Y-98877030D02*
X115037438Y-98781792D01*
X115037438Y-98781792D02*
X115085057Y-98734173D01*
X115085057Y-98734173D02*
X115180295Y-98686554D01*
X115180295Y-98686554D02*
X115275533Y-98686554D01*
X115275533Y-98686554D02*
X115370771Y-98734173D01*
X115370771Y-98734173D02*
X115418390Y-98781792D01*
X115418390Y-98781792D02*
X115466009Y-98877030D01*
X115466009Y-98877030D02*
X115466009Y-99210363D01*
X111474104Y-105162744D02*
X111474104Y-104686554D01*
X111759819Y-105257982D02*
X110759819Y-104924649D01*
X110759819Y-104924649D02*
X111759819Y-104591316D01*
X111759819Y-104257982D02*
X110759819Y-104257982D01*
X110759819Y-104257982D02*
X110759819Y-104019887D01*
X110759819Y-104019887D02*
X110807438Y-103877030D01*
X110807438Y-103877030D02*
X110902676Y-103781792D01*
X110902676Y-103781792D02*
X110997914Y-103734173D01*
X110997914Y-103734173D02*
X111188390Y-103686554D01*
X111188390Y-103686554D02*
X111331247Y-103686554D01*
X111331247Y-103686554D02*
X111521723Y-103734173D01*
X111521723Y-103734173D02*
X111616961Y-103781792D01*
X111616961Y-103781792D02*
X111712200Y-103877030D01*
X111712200Y-103877030D02*
X111759819Y-104019887D01*
X111759819Y-104019887D02*
X111759819Y-104257982D01*
X111759819Y-103257982D02*
X110759819Y-103257982D01*
X110759819Y-103257982D02*
X110759819Y-103019887D01*
X110759819Y-103019887D02*
X110807438Y-102877030D01*
X110807438Y-102877030D02*
X110902676Y-102781792D01*
X110902676Y-102781792D02*
X110997914Y-102734173D01*
X110997914Y-102734173D02*
X111188390Y-102686554D01*
X111188390Y-102686554D02*
X111331247Y-102686554D01*
X111331247Y-102686554D02*
X111521723Y-102734173D01*
X111521723Y-102734173D02*
X111616961Y-102781792D01*
X111616961Y-102781792D02*
X111712200Y-102877030D01*
X111712200Y-102877030D02*
X111759819Y-103019887D01*
X111759819Y-103019887D02*
X111759819Y-103257982D01*
X110712200Y-101543697D02*
X111997914Y-102400839D01*
X111712200Y-101257982D02*
X111759819Y-101115125D01*
X111759819Y-101115125D02*
X111759819Y-100877030D01*
X111759819Y-100877030D02*
X111712200Y-100781792D01*
X111712200Y-100781792D02*
X111664580Y-100734173D01*
X111664580Y-100734173D02*
X111569342Y-100686554D01*
X111569342Y-100686554D02*
X111474104Y-100686554D01*
X111474104Y-100686554D02*
X111378866Y-100734173D01*
X111378866Y-100734173D02*
X111331247Y-100781792D01*
X111331247Y-100781792D02*
X111283628Y-100877030D01*
X111283628Y-100877030D02*
X111236009Y-101067506D01*
X111236009Y-101067506D02*
X111188390Y-101162744D01*
X111188390Y-101162744D02*
X111140771Y-101210363D01*
X111140771Y-101210363D02*
X111045533Y-101257982D01*
X111045533Y-101257982D02*
X110950295Y-101257982D01*
X110950295Y-101257982D02*
X110855057Y-101210363D01*
X110855057Y-101210363D02*
X110807438Y-101162744D01*
X110807438Y-101162744D02*
X110759819Y-101067506D01*
X110759819Y-101067506D02*
X110759819Y-100829411D01*
X110759819Y-100829411D02*
X110807438Y-100686554D01*
X110759819Y-100257982D02*
X111569342Y-100257982D01*
X111569342Y-100257982D02*
X111664580Y-100210363D01*
X111664580Y-100210363D02*
X111712200Y-100162744D01*
X111712200Y-100162744D02*
X111759819Y-100067506D01*
X111759819Y-100067506D02*
X111759819Y-99877030D01*
X111759819Y-99877030D02*
X111712200Y-99781792D01*
X111712200Y-99781792D02*
X111664580Y-99734173D01*
X111664580Y-99734173D02*
X111569342Y-99686554D01*
X111569342Y-99686554D02*
X110759819Y-99686554D01*
X111236009Y-98877030D02*
X111283628Y-98734173D01*
X111283628Y-98734173D02*
X111331247Y-98686554D01*
X111331247Y-98686554D02*
X111426485Y-98638935D01*
X111426485Y-98638935D02*
X111569342Y-98638935D01*
X111569342Y-98638935D02*
X111664580Y-98686554D01*
X111664580Y-98686554D02*
X111712200Y-98734173D01*
X111712200Y-98734173D02*
X111759819Y-98829411D01*
X111759819Y-98829411D02*
X111759819Y-99210363D01*
X111759819Y-99210363D02*
X110759819Y-99210363D01*
X110759819Y-99210363D02*
X110759819Y-98877030D01*
X110759819Y-98877030D02*
X110807438Y-98781792D01*
X110807438Y-98781792D02*
X110855057Y-98734173D01*
X110855057Y-98734173D02*
X110950295Y-98686554D01*
X110950295Y-98686554D02*
X111045533Y-98686554D01*
X111045533Y-98686554D02*
X111140771Y-98734173D01*
X111140771Y-98734173D02*
X111188390Y-98781792D01*
X111188390Y-98781792D02*
X111236009Y-98877030D01*
X111236009Y-98877030D02*
X111236009Y-99210363D01*
D11*
X212160851Y-106731379D02*
X211589423Y-106731379D01*
X211875137Y-106731379D02*
X211875137Y-105731379D01*
X211875137Y-105731379D02*
X211779899Y-105874236D01*
X211779899Y-105874236D02*
X211684661Y-105969474D01*
X211684661Y-105969474D02*
X211589423Y-106017093D01*
X213017994Y-106064712D02*
X213017994Y-106731379D01*
X212779899Y-105683760D02*
X212541804Y-106398045D01*
X212541804Y-106398045D02*
X213160851Y-106398045D01*
X172140851Y-106731379D02*
X171569423Y-106731379D01*
X171855137Y-106731379D02*
X171855137Y-105731379D01*
X171855137Y-105731379D02*
X171759899Y-105874236D01*
X171759899Y-105874236D02*
X171664661Y-105969474D01*
X171664661Y-105969474D02*
X171569423Y-106017093D01*
X172759899Y-105731379D02*
X172855137Y-105731379D01*
X172855137Y-105731379D02*
X172950375Y-105778998D01*
X172950375Y-105778998D02*
X172997994Y-105826617D01*
X172997994Y-105826617D02*
X173045613Y-105921855D01*
X173045613Y-105921855D02*
X173093232Y-106112331D01*
X173093232Y-106112331D02*
X173093232Y-106350426D01*
X173093232Y-106350426D02*
X173045613Y-106540902D01*
X173045613Y-106540902D02*
X172997994Y-106636140D01*
X172997994Y-106636140D02*
X172950375Y-106683760D01*
X172950375Y-106683760D02*
X172855137Y-106731379D01*
X172855137Y-106731379D02*
X172759899Y-106731379D01*
X172759899Y-106731379D02*
X172664661Y-106683760D01*
X172664661Y-106683760D02*
X172617042Y-106636140D01*
X172617042Y-106636140D02*
X172569423Y-106540902D01*
X172569423Y-106540902D02*
X172521804Y-106350426D01*
X172521804Y-106350426D02*
X172521804Y-106112331D01*
X172521804Y-106112331D02*
X172569423Y-105921855D01*
X172569423Y-105921855D02*
X172617042Y-105826617D01*
X172617042Y-105826617D02*
X172664661Y-105778998D01*
X172664661Y-105778998D02*
X172759899Y-105731379D01*
D12*
X127236779Y-101039819D02*
X127236779Y-100039819D01*
X127236779Y-100039819D02*
X127474874Y-100039819D01*
X127474874Y-100039819D02*
X127617731Y-100087438D01*
X127617731Y-100087438D02*
X127712969Y-100182676D01*
X127712969Y-100182676D02*
X127760588Y-100277914D01*
X127760588Y-100277914D02*
X127808207Y-100468390D01*
X127808207Y-100468390D02*
X127808207Y-100611247D01*
X127808207Y-100611247D02*
X127760588Y-100801723D01*
X127760588Y-100801723D02*
X127712969Y-100896961D01*
X127712969Y-100896961D02*
X127617731Y-100992200D01*
X127617731Y-100992200D02*
X127474874Y-101039819D01*
X127474874Y-101039819D02*
X127236779Y-101039819D01*
X128236779Y-100516009D02*
X128570112Y-100516009D01*
X128712969Y-101039819D02*
X128236779Y-101039819D01*
X128236779Y-101039819D02*
X128236779Y-100039819D01*
X128236779Y-100039819D02*
X128712969Y-100039819D01*
X128998684Y-100039819D02*
X129332017Y-101039819D01*
X129332017Y-101039819D02*
X129665350Y-100039819D01*
X130712969Y-99992200D02*
X129855827Y-101277914D01*
X131046303Y-100039819D02*
X131046303Y-100849342D01*
X131046303Y-100849342D02*
X131093922Y-100944580D01*
X131093922Y-100944580D02*
X131141541Y-100992200D01*
X131141541Y-100992200D02*
X131236779Y-101039819D01*
X131236779Y-101039819D02*
X131427255Y-101039819D01*
X131427255Y-101039819D02*
X131522493Y-100992200D01*
X131522493Y-100992200D02*
X131570112Y-100944580D01*
X131570112Y-100944580D02*
X131617731Y-100849342D01*
X131617731Y-100849342D02*
X131617731Y-100039819D01*
X132046303Y-100992200D02*
X132189160Y-101039819D01*
X132189160Y-101039819D02*
X132427255Y-101039819D01*
X132427255Y-101039819D02*
X132522493Y-100992200D01*
X132522493Y-100992200D02*
X132570112Y-100944580D01*
X132570112Y-100944580D02*
X132617731Y-100849342D01*
X132617731Y-100849342D02*
X132617731Y-100754104D01*
X132617731Y-100754104D02*
X132570112Y-100658866D01*
X132570112Y-100658866D02*
X132522493Y-100611247D01*
X132522493Y-100611247D02*
X132427255Y-100563628D01*
X132427255Y-100563628D02*
X132236779Y-100516009D01*
X132236779Y-100516009D02*
X132141541Y-100468390D01*
X132141541Y-100468390D02*
X132093922Y-100420771D01*
X132093922Y-100420771D02*
X132046303Y-100325533D01*
X132046303Y-100325533D02*
X132046303Y-100230295D01*
X132046303Y-100230295D02*
X132093922Y-100135057D01*
X132093922Y-100135057D02*
X132141541Y-100087438D01*
X132141541Y-100087438D02*
X132236779Y-100039819D01*
X132236779Y-100039819D02*
X132474874Y-100039819D01*
X132474874Y-100039819D02*
X132617731Y-100087438D01*
X133046303Y-100516009D02*
X133379636Y-100516009D01*
X133522493Y-101039819D02*
X133046303Y-101039819D01*
X133046303Y-101039819D02*
X133046303Y-100039819D01*
X133046303Y-100039819D02*
X133522493Y-100039819D01*
X134522493Y-101039819D02*
X134189160Y-100563628D01*
X133951065Y-101039819D02*
X133951065Y-100039819D01*
X133951065Y-100039819D02*
X134332017Y-100039819D01*
X134332017Y-100039819D02*
X134427255Y-100087438D01*
X134427255Y-100087438D02*
X134474874Y-100135057D01*
X134474874Y-100135057D02*
X134522493Y-100230295D01*
X134522493Y-100230295D02*
X134522493Y-100373152D01*
X134522493Y-100373152D02*
X134474874Y-100468390D01*
X134474874Y-100468390D02*
X134427255Y-100516009D01*
X134427255Y-100516009D02*
X134332017Y-100563628D01*
X134332017Y-100563628D02*
X133951065Y-100563628D01*
D11*
X92169423Y-105826617D02*
X92217042Y-105778998D01*
X92217042Y-105778998D02*
X92312280Y-105731379D01*
X92312280Y-105731379D02*
X92550375Y-105731379D01*
X92550375Y-105731379D02*
X92645613Y-105778998D01*
X92645613Y-105778998D02*
X92693232Y-105826617D01*
X92693232Y-105826617D02*
X92740851Y-105921855D01*
X92740851Y-105921855D02*
X92740851Y-106017093D01*
X92740851Y-106017093D02*
X92693232Y-106159950D01*
X92693232Y-106159950D02*
X92121804Y-106731379D01*
X92121804Y-106731379D02*
X92740851Y-106731379D01*
X192432938Y-106731379D02*
X191861510Y-106731379D01*
X192147224Y-106731379D02*
X192147224Y-105731379D01*
X192147224Y-105731379D02*
X192051986Y-105874236D01*
X192051986Y-105874236D02*
X191956748Y-105969474D01*
X191956748Y-105969474D02*
X191861510Y-106017093D01*
X192813891Y-105826617D02*
X192861510Y-105778998D01*
X192861510Y-105778998D02*
X192956748Y-105731379D01*
X192956748Y-105731379D02*
X193194843Y-105731379D01*
X193194843Y-105731379D02*
X193290081Y-105778998D01*
X193290081Y-105778998D02*
X193337700Y-105826617D01*
X193337700Y-105826617D02*
X193385319Y-105921855D01*
X193385319Y-105921855D02*
X193385319Y-106017093D01*
X193385319Y-106017093D02*
X193337700Y-106159950D01*
X193337700Y-106159950D02*
X192766272Y-106731379D01*
X192766272Y-106731379D02*
X193385319Y-106731379D01*
X82810851Y-106741379D02*
X82239423Y-106741379D01*
X82525137Y-106741379D02*
X82525137Y-105741379D01*
X82525137Y-105741379D02*
X82429899Y-105884236D01*
X82429899Y-105884236D02*
X82334661Y-105979474D01*
X82334661Y-105979474D02*
X82239423Y-106027093D01*
X122703232Y-105731379D02*
X122227042Y-105731379D01*
X122227042Y-105731379D02*
X122179423Y-106207569D01*
X122179423Y-106207569D02*
X122227042Y-106159950D01*
X122227042Y-106159950D02*
X122322280Y-106112331D01*
X122322280Y-106112331D02*
X122560375Y-106112331D01*
X122560375Y-106112331D02*
X122655613Y-106159950D01*
X122655613Y-106159950D02*
X122703232Y-106207569D01*
X122703232Y-106207569D02*
X122750851Y-106302807D01*
X122750851Y-106302807D02*
X122750851Y-106540902D01*
X122750851Y-106540902D02*
X122703232Y-106636140D01*
X122703232Y-106636140D02*
X122655613Y-106683760D01*
X122655613Y-106683760D02*
X122560375Y-106731379D01*
X122560375Y-106731379D02*
X122322280Y-106731379D01*
X122322280Y-106731379D02*
X122227042Y-106683760D01*
X122227042Y-106683760D02*
X122179423Y-106636140D01*
D12*
X120219819Y-102162745D02*
X119743628Y-102496078D01*
X120219819Y-102734173D02*
X119219819Y-102734173D01*
X119219819Y-102734173D02*
X119219819Y-102353221D01*
X119219819Y-102353221D02*
X119267438Y-102257983D01*
X119267438Y-102257983D02*
X119315057Y-102210364D01*
X119315057Y-102210364D02*
X119410295Y-102162745D01*
X119410295Y-102162745D02*
X119553152Y-102162745D01*
X119553152Y-102162745D02*
X119648390Y-102210364D01*
X119648390Y-102210364D02*
X119696009Y-102257983D01*
X119696009Y-102257983D02*
X119743628Y-102353221D01*
X119743628Y-102353221D02*
X119743628Y-102734173D01*
X119696009Y-101734173D02*
X119696009Y-101400840D01*
X120219819Y-101257983D02*
X120219819Y-101734173D01*
X120219819Y-101734173D02*
X119219819Y-101734173D01*
X119219819Y-101734173D02*
X119219819Y-101257983D01*
X120172200Y-100877030D02*
X120219819Y-100734173D01*
X120219819Y-100734173D02*
X120219819Y-100496078D01*
X120219819Y-100496078D02*
X120172200Y-100400840D01*
X120172200Y-100400840D02*
X120124580Y-100353221D01*
X120124580Y-100353221D02*
X120029342Y-100305602D01*
X120029342Y-100305602D02*
X119934104Y-100305602D01*
X119934104Y-100305602D02*
X119838866Y-100353221D01*
X119838866Y-100353221D02*
X119791247Y-100400840D01*
X119791247Y-100400840D02*
X119743628Y-100496078D01*
X119743628Y-100496078D02*
X119696009Y-100686554D01*
X119696009Y-100686554D02*
X119648390Y-100781792D01*
X119648390Y-100781792D02*
X119600771Y-100829411D01*
X119600771Y-100829411D02*
X119505533Y-100877030D01*
X119505533Y-100877030D02*
X119410295Y-100877030D01*
X119410295Y-100877030D02*
X119315057Y-100829411D01*
X119315057Y-100829411D02*
X119267438Y-100781792D01*
X119267438Y-100781792D02*
X119219819Y-100686554D01*
X119219819Y-100686554D02*
X119219819Y-100448459D01*
X119219819Y-100448459D02*
X119267438Y-100305602D01*
X119696009Y-99877030D02*
X119696009Y-99543697D01*
X120219819Y-99400840D02*
X120219819Y-99877030D01*
X120219819Y-99877030D02*
X119219819Y-99877030D01*
X119219819Y-99877030D02*
X119219819Y-99400840D01*
X119219819Y-99115125D02*
X119219819Y-98543697D01*
X120219819Y-98829411D02*
X119219819Y-98829411D01*
X107529819Y-106496077D02*
X106529819Y-106496077D01*
X107529819Y-106019887D02*
X106529819Y-106019887D01*
X106529819Y-106019887D02*
X107529819Y-105448459D01*
X107529819Y-105448459D02*
X106529819Y-105448459D01*
X107434580Y-104400840D02*
X107482200Y-104448459D01*
X107482200Y-104448459D02*
X107529819Y-104591316D01*
X107529819Y-104591316D02*
X107529819Y-104686554D01*
X107529819Y-104686554D02*
X107482200Y-104829411D01*
X107482200Y-104829411D02*
X107386961Y-104924649D01*
X107386961Y-104924649D02*
X107291723Y-104972268D01*
X107291723Y-104972268D02*
X107101247Y-105019887D01*
X107101247Y-105019887D02*
X106958390Y-105019887D01*
X106958390Y-105019887D02*
X106767914Y-104972268D01*
X106767914Y-104972268D02*
X106672676Y-104924649D01*
X106672676Y-104924649D02*
X106577438Y-104829411D01*
X106577438Y-104829411D02*
X106529819Y-104686554D01*
X106529819Y-104686554D02*
X106529819Y-104591316D01*
X106529819Y-104591316D02*
X106577438Y-104448459D01*
X106577438Y-104448459D02*
X106625057Y-104400840D01*
X107529819Y-103400840D02*
X107053628Y-103734173D01*
X107529819Y-103972268D02*
X106529819Y-103972268D01*
X106529819Y-103972268D02*
X106529819Y-103591316D01*
X106529819Y-103591316D02*
X106577438Y-103496078D01*
X106577438Y-103496078D02*
X106625057Y-103448459D01*
X106625057Y-103448459D02*
X106720295Y-103400840D01*
X106720295Y-103400840D02*
X106863152Y-103400840D01*
X106863152Y-103400840D02*
X106958390Y-103448459D01*
X106958390Y-103448459D02*
X107006009Y-103496078D01*
X107006009Y-103496078D02*
X107053628Y-103591316D01*
X107053628Y-103591316D02*
X107053628Y-103972268D01*
X107006009Y-102972268D02*
X107006009Y-102638935D01*
X107529819Y-102496078D02*
X107529819Y-102972268D01*
X107529819Y-102972268D02*
X106529819Y-102972268D01*
X106529819Y-102972268D02*
X106529819Y-102496078D01*
X107529819Y-102067506D02*
X106529819Y-102067506D01*
X106529819Y-102067506D02*
X107244104Y-101734173D01*
X107244104Y-101734173D02*
X106529819Y-101400840D01*
X106529819Y-101400840D02*
X107529819Y-101400840D01*
X107006009Y-100924649D02*
X107006009Y-100591316D01*
X107529819Y-100448459D02*
X107529819Y-100924649D01*
X107529819Y-100924649D02*
X106529819Y-100924649D01*
X106529819Y-100924649D02*
X106529819Y-100448459D01*
X107529819Y-100019887D02*
X106529819Y-100019887D01*
X106529819Y-100019887D02*
X107529819Y-99448459D01*
X107529819Y-99448459D02*
X106529819Y-99448459D01*
X106529819Y-99115125D02*
X106529819Y-98543697D01*
X107529819Y-98829411D02*
X106529819Y-98829411D01*
D11*
X142111804Y-105731379D02*
X142778470Y-105731379D01*
X142778470Y-105731379D02*
X142349899Y-106731379D01*
D12*
X103299819Y-103496078D02*
X102823628Y-103829411D01*
X103299819Y-104067506D02*
X102299819Y-104067506D01*
X102299819Y-104067506D02*
X102299819Y-103686554D01*
X102299819Y-103686554D02*
X102347438Y-103591316D01*
X102347438Y-103591316D02*
X102395057Y-103543697D01*
X102395057Y-103543697D02*
X102490295Y-103496078D01*
X102490295Y-103496078D02*
X102633152Y-103496078D01*
X102633152Y-103496078D02*
X102728390Y-103543697D01*
X102728390Y-103543697D02*
X102776009Y-103591316D01*
X102776009Y-103591316D02*
X102823628Y-103686554D01*
X102823628Y-103686554D02*
X102823628Y-104067506D01*
X102776009Y-103067506D02*
X102776009Y-102734173D01*
X103299819Y-102591316D02*
X103299819Y-103067506D01*
X103299819Y-103067506D02*
X102299819Y-103067506D01*
X102299819Y-103067506D02*
X102299819Y-102591316D01*
X103299819Y-102162744D02*
X102299819Y-102162744D01*
X102299819Y-102162744D02*
X102299819Y-101924649D01*
X102299819Y-101924649D02*
X102347438Y-101781792D01*
X102347438Y-101781792D02*
X102442676Y-101686554D01*
X102442676Y-101686554D02*
X102537914Y-101638935D01*
X102537914Y-101638935D02*
X102728390Y-101591316D01*
X102728390Y-101591316D02*
X102871247Y-101591316D01*
X102871247Y-101591316D02*
X103061723Y-101638935D01*
X103061723Y-101638935D02*
X103156961Y-101686554D01*
X103156961Y-101686554D02*
X103252200Y-101781792D01*
X103252200Y-101781792D02*
X103299819Y-101924649D01*
X103299819Y-101924649D02*
X103299819Y-102162744D01*
X102299819Y-101162744D02*
X103109342Y-101162744D01*
X103109342Y-101162744D02*
X103204580Y-101115125D01*
X103204580Y-101115125D02*
X103252200Y-101067506D01*
X103252200Y-101067506D02*
X103299819Y-100972268D01*
X103299819Y-100972268D02*
X103299819Y-100781792D01*
X103299819Y-100781792D02*
X103252200Y-100686554D01*
X103252200Y-100686554D02*
X103204580Y-100638935D01*
X103204580Y-100638935D02*
X103109342Y-100591316D01*
X103109342Y-100591316D02*
X102299819Y-100591316D01*
X103204580Y-99543697D02*
X103252200Y-99591316D01*
X103252200Y-99591316D02*
X103299819Y-99734173D01*
X103299819Y-99734173D02*
X103299819Y-99829411D01*
X103299819Y-99829411D02*
X103252200Y-99972268D01*
X103252200Y-99972268D02*
X103156961Y-100067506D01*
X103156961Y-100067506D02*
X103061723Y-100115125D01*
X103061723Y-100115125D02*
X102871247Y-100162744D01*
X102871247Y-100162744D02*
X102728390Y-100162744D01*
X102728390Y-100162744D02*
X102537914Y-100115125D01*
X102537914Y-100115125D02*
X102442676Y-100067506D01*
X102442676Y-100067506D02*
X102347438Y-99972268D01*
X102347438Y-99972268D02*
X102299819Y-99829411D01*
X102299819Y-99829411D02*
X102299819Y-99734173D01*
X102299819Y-99734173D02*
X102347438Y-99591316D01*
X102347438Y-99591316D02*
X102395057Y-99543697D01*
X102776009Y-99115125D02*
X102776009Y-98781792D01*
X103299819Y-98638935D02*
X103299819Y-99115125D01*
X103299819Y-99115125D02*
X102299819Y-99115125D01*
X102299819Y-99115125D02*
X102299819Y-98638935D01*
D11*
X72457518Y-103631379D02*
X72552756Y-103631379D01*
X72552756Y-103631379D02*
X72647994Y-103678998D01*
X72647994Y-103678998D02*
X72695613Y-103726617D01*
X72695613Y-103726617D02*
X72743232Y-103821855D01*
X72743232Y-103821855D02*
X72790851Y-104012331D01*
X72790851Y-104012331D02*
X72790851Y-104250426D01*
X72790851Y-104250426D02*
X72743232Y-104440902D01*
X72743232Y-104440902D02*
X72695613Y-104536140D01*
X72695613Y-104536140D02*
X72647994Y-104583760D01*
X72647994Y-104583760D02*
X72552756Y-104631379D01*
X72552756Y-104631379D02*
X72457518Y-104631379D01*
X72457518Y-104631379D02*
X72362280Y-104583760D01*
X72362280Y-104583760D02*
X72314661Y-104536140D01*
X72314661Y-104536140D02*
X72267042Y-104440902D01*
X72267042Y-104440902D02*
X72219423Y-104250426D01*
X72219423Y-104250426D02*
X72219423Y-104012331D01*
X72219423Y-104012331D02*
X72267042Y-103821855D01*
X72267042Y-103821855D02*
X72314661Y-103726617D01*
X72314661Y-103726617D02*
X72362280Y-103678998D01*
X72362280Y-103678998D02*
X72457518Y-103631379D01*
X202200851Y-106731379D02*
X201629423Y-106731379D01*
X201915137Y-106731379D02*
X201915137Y-105731379D01*
X201915137Y-105731379D02*
X201819899Y-105874236D01*
X201819899Y-105874236D02*
X201724661Y-105969474D01*
X201724661Y-105969474D02*
X201629423Y-106017093D01*
X202534185Y-105731379D02*
X203153232Y-105731379D01*
X203153232Y-105731379D02*
X202819899Y-106112331D01*
X202819899Y-106112331D02*
X202962756Y-106112331D01*
X202962756Y-106112331D02*
X203057994Y-106159950D01*
X203057994Y-106159950D02*
X203105613Y-106207569D01*
X203105613Y-106207569D02*
X203153232Y-106302807D01*
X203153232Y-106302807D02*
X203153232Y-106540902D01*
X203153232Y-106540902D02*
X203105613Y-106636140D01*
X203105613Y-106636140D02*
X203057994Y-106683760D01*
X203057994Y-106683760D02*
X202962756Y-106731379D01*
X202962756Y-106731379D02*
X202677042Y-106731379D01*
X202677042Y-106731379D02*
X202581804Y-106683760D01*
X202581804Y-106683760D02*
X202534185Y-106636140D01*
D12*
X194266666Y-95704819D02*
X194266666Y-96419104D01*
X194266666Y-96419104D02*
X194219047Y-96561961D01*
X194219047Y-96561961D02*
X194123809Y-96657200D01*
X194123809Y-96657200D02*
X193980952Y-96704819D01*
X193980952Y-96704819D02*
X193885714Y-96704819D01*
X194695238Y-95800057D02*
X194742857Y-95752438D01*
X194742857Y-95752438D02*
X194838095Y-95704819D01*
X194838095Y-95704819D02*
X195076190Y-95704819D01*
X195076190Y-95704819D02*
X195171428Y-95752438D01*
X195171428Y-95752438D02*
X195219047Y-95800057D01*
X195219047Y-95800057D02*
X195266666Y-95895295D01*
X195266666Y-95895295D02*
X195266666Y-95990533D01*
X195266666Y-95990533D02*
X195219047Y-96133390D01*
X195219047Y-96133390D02*
X194647619Y-96704819D01*
X194647619Y-96704819D02*
X195266666Y-96704819D01*
D11*
%TO.C,R17*%
X78500000Y-101200000D02*
X78500000Y-102800000D01*
X78500000Y-102800000D02*
X81500000Y-102800000D01*
X81500000Y-101200000D02*
X78500000Y-101200000D01*
X81500000Y-102800000D02*
X81500000Y-101200000D01*
D10*
%TO.C,SW3*%
X172350000Y-100500000D02*
X173225000Y-100500000D01*
X172350000Y-104500000D02*
X172350000Y-100500000D01*
X172350000Y-104500000D02*
X173175000Y-104500000D01*
X179450000Y-100500000D02*
X178600000Y-100500000D01*
X179450000Y-104500000D02*
X178550000Y-104500000D01*
X179450000Y-104500000D02*
X179450000Y-100500000D01*
X177425000Y-103275000D02*
X176400000Y-103275000D01*
X176400000Y-101775000D01*
X177425000Y-101775000D01*
X177425000Y-103275000D01*
X177650000Y-103500000D02*
X174150000Y-103500000D01*
X174150000Y-101525000D01*
X177650000Y-101525000D01*
X177650000Y-103500000D01*
D11*
%TO.C,U1*%
X97028000Y-92575000D02*
X95078000Y-92575000D01*
X97028000Y-92575000D02*
X98978000Y-92575000D01*
X97028000Y-102695000D02*
X95078000Y-102695000D01*
X97028000Y-102695000D02*
X98978000Y-102695000D01*
X94328000Y-92630000D02*
X94088000Y-92300000D01*
X94568000Y-92300000D01*
X94328000Y-92630000D01*
G36*
X94328000Y-92630000D02*
G01*
X94088000Y-92300000D01*
X94568000Y-92300000D01*
X94328000Y-92630000D01*
G37*
D10*
%TO.C,SW8*%
X105450000Y-93074000D02*
X106108000Y-93074000D01*
X105450000Y-97126000D02*
X105450000Y-93074000D01*
X105450000Y-97126000D02*
X106108000Y-97126000D01*
X107874000Y-93074000D02*
X108532000Y-93074000D01*
X107874000Y-97126000D02*
X108532000Y-97126000D01*
X108532000Y-97126000D02*
X108532000Y-93074000D01*
X107891000Y-95100000D02*
G75*
G02*
X106091000Y-95100000I-900000J0D01*
G01*
X106091000Y-95100000D02*
G75*
G02*
X107891000Y-95100000I900000J0D01*
G01*
%TO.C,Y1*%
X197232233Y-98439340D02*
X202181980Y-93489593D01*
X198116116Y-99323224D02*
X197232233Y-98439340D01*
X198469670Y-97909010D02*
X201651650Y-94727030D01*
X200060660Y-101267767D02*
X199176776Y-100383884D01*
X202181980Y-93489593D02*
X203065864Y-94373476D01*
X203772970Y-96848350D02*
X200590990Y-100030330D01*
X204126524Y-95434136D02*
X205010407Y-96318020D01*
X205010407Y-96318020D02*
X200060660Y-101267767D01*
X198469670Y-98909009D02*
G75*
G02*
X198469672Y-97909012I500002J499997D01*
G01*
X200590990Y-100030330D02*
G75*
G02*
X199590996Y-100030326I-499995J499995D01*
G01*
X201651650Y-94727030D02*
G75*
G02*
X202651649Y-94727029I500000J-500003D01*
G01*
X203772970Y-95848351D02*
G75*
G02*
X203772970Y-96848350I-500017J-499999D01*
G01*
D11*
%TO.C,JP1*%
X159147800Y-103142973D02*
X159147800Y-102542971D01*
X159847800Y-101842972D02*
X161247800Y-101842972D01*
X161247800Y-103842972D02*
X159847800Y-103842972D01*
X161947800Y-102542971D02*
X161947800Y-103142973D01*
X159147800Y-102542971D02*
G75*
G02*
X159847800Y-101842972I700000J-1D01*
G01*
X159847800Y-103842972D02*
G75*
G02*
X159147800Y-103142973I0J700000D01*
G01*
X161247800Y-101842972D02*
G75*
G02*
X161947800Y-102542971I1J-699999D01*
G01*
X161947800Y-103142973D02*
G75*
G02*
X161247800Y-103842972I-699999J0D01*
G01*
%TO.C,U8*%
X207740000Y-82965000D02*
X207740000Y-83240000D01*
X207740000Y-90385000D02*
X207740000Y-90110000D01*
X210500000Y-82965000D02*
X207740000Y-82965000D01*
X210500000Y-82965000D02*
X213260000Y-82965000D01*
X210500000Y-90385000D02*
X207740000Y-90385000D01*
X210500000Y-90385000D02*
X213260000Y-90385000D01*
X213260000Y-82965000D02*
X213260000Y-83240000D01*
X213260000Y-90385000D02*
X213260000Y-90110000D01*
X206950000Y-83240000D02*
X206710000Y-82910000D01*
X207190000Y-82910000D01*
X206950000Y-83240000D01*
G36*
X206950000Y-83240000D02*
G01*
X206710000Y-82910000D01*
X207190000Y-82910000D01*
X206950000Y-83240000D01*
G37*
%TO.C,R6*%
X92178641Y-100424165D02*
X91871359Y-100424165D01*
X92178641Y-101184165D02*
X91871359Y-101184165D01*
%TO.C,R3*%
X92178641Y-95340833D02*
X91871359Y-95340833D01*
X92178641Y-96100833D02*
X91871359Y-96100833D01*
%TO.C,R1*%
X92178641Y-96611666D02*
X91871359Y-96611666D01*
X92178641Y-97371666D02*
X91871359Y-97371666D01*
%TO.C,C2*%
X197246448Y-98084926D02*
X199084924Y-96246447D01*
X197953552Y-95115074D02*
X196115076Y-96953553D01*
X197246448Y-98084926D02*
G75*
G02*
X196115075Y-96953553I28439J1159812D01*
G01*
X197953552Y-95115074D02*
G75*
G02*
X199084925Y-96246447I-28436J-1159809D01*
G01*
D10*
%TO.C,SW6*%
X113950000Y-93074000D02*
X114608000Y-93074000D01*
X113950000Y-97126000D02*
X113950000Y-93074000D01*
X113950000Y-97126000D02*
X114608000Y-97126000D01*
X116374000Y-93074000D02*
X117032000Y-93074000D01*
X116374000Y-97126000D02*
X117032000Y-97126000D01*
X117032000Y-97126000D02*
X117032000Y-93074000D01*
X116391000Y-95100000D02*
G75*
G02*
X114591000Y-95100000I-900000J0D01*
G01*
X114591000Y-95100000D02*
G75*
G02*
X116391000Y-95100000I900000J0D01*
G01*
D11*
%TO.C,R23*%
X137044468Y-99255053D02*
X137044468Y-102255053D01*
X137044468Y-102255053D02*
X138644468Y-102255053D01*
X138644468Y-99255053D02*
X137044468Y-99255053D01*
X138644468Y-102255053D02*
X138644468Y-99255053D01*
%TO.C,D1*%
X165787801Y-101842972D02*
X165787801Y-103842972D01*
X165787801Y-101842972D02*
X169797801Y-101842972D01*
X165787801Y-103842972D02*
X169797801Y-103842972D01*
%TO.C,R22*%
X144278458Y-99259813D02*
X144278458Y-102259813D01*
X144278458Y-102259813D02*
X145878458Y-102259813D01*
X145878458Y-99259813D02*
X144278458Y-99259813D01*
X145878458Y-102259813D02*
X145878458Y-99259813D01*
D13*
%TO.C,kibuzzard-672AE622*%
G36*
X171456220Y-102685299D02*
G01*
X171508562Y-102688691D01*
X171597092Y-102706785D01*
X171657189Y-102745557D01*
X171679160Y-102810824D01*
X171657189Y-102876737D01*
X171597737Y-102914863D01*
X171509208Y-102932956D01*
X171456381Y-102936349D01*
X171400000Y-102937480D01*
X171343780Y-102936349D01*
X171291438Y-102932956D01*
X171202907Y-102914863D01*
X171142811Y-102876737D01*
X171120840Y-102810824D01*
X171142811Y-102744911D01*
X171202262Y-102706785D01*
X171290792Y-102688691D01*
X171343619Y-102685299D01*
X171400000Y-102684167D01*
X171456220Y-102685299D01*
G37*
G36*
X171925148Y-102809532D02*
G01*
X171925148Y-103099031D01*
X171925148Y-103368282D01*
X170874852Y-103368282D01*
X170874852Y-103099031D01*
X170874852Y-102810824D01*
X170982553Y-102810824D01*
X170994256Y-102894687D01*
X171029366Y-102965338D01*
X171087884Y-103022779D01*
X171146890Y-103056139D01*
X171218578Y-103079968D01*
X171302948Y-103094265D01*
X171400000Y-103099031D01*
X171497052Y-103094385D01*
X171581422Y-103080452D01*
X171653110Y-103057229D01*
X171712116Y-103024717D01*
X171770634Y-102967780D01*
X171805744Y-102896051D01*
X171817447Y-102809532D01*
X171805744Y-102725094D01*
X171770634Y-102654443D01*
X171712116Y-102597577D01*
X171653110Y-102564782D01*
X171581422Y-102541357D01*
X171497053Y-102527302D01*
X171400000Y-102522618D01*
X171302948Y-102527221D01*
X171218578Y-102541034D01*
X171146890Y-102564055D01*
X171087884Y-102596284D01*
X171029366Y-102652863D01*
X170994256Y-102724376D01*
X170982553Y-102810824D01*
X170874852Y-102810824D01*
X170874852Y-101900969D01*
X171000646Y-101900969D01*
X171000647Y-102044426D01*
X171493053Y-102044426D01*
X171442649Y-102067205D01*
X171384491Y-102094184D01*
X171321486Y-102124556D01*
X171256543Y-102157512D01*
X171190468Y-102192247D01*
X171124071Y-102227948D01*
X171059935Y-102264136D01*
X171000646Y-102300323D01*
X171000646Y-102428271D01*
X171800646Y-102428270D01*
X171800646Y-102284814D01*
X171269467Y-102284814D01*
X171358140Y-102236780D01*
X171446670Y-102190899D01*
X171535057Y-102147173D01*
X171623443Y-102105600D01*
X171711973Y-102066182D01*
X171800646Y-102028918D01*
X171800646Y-101900970D01*
X171000646Y-101900969D01*
X170874852Y-101900969D01*
X170874852Y-101631718D01*
X171925148Y-101631718D01*
X171925148Y-101900969D01*
X171925148Y-102028918D01*
X171925148Y-102809532D01*
G37*
D11*
%TO.C,R26*%
X153124923Y-99270417D02*
X153124923Y-102270417D01*
X153124923Y-102270417D02*
X154724923Y-102270417D01*
X154724923Y-99270417D02*
X153124923Y-99270417D01*
X154724923Y-102270417D02*
X154724923Y-99270417D01*
%TO.C,F1*%
X167545737Y-99532972D02*
X168749865Y-99532972D01*
X167545737Y-101352972D02*
X168749865Y-101352972D01*
%TO.C,R18*%
X155170227Y-99253221D02*
X155170227Y-102253221D01*
X155170227Y-102253221D02*
X156770227Y-102253221D01*
X156770227Y-99253221D02*
X155170227Y-99253221D01*
X156770227Y-102253221D02*
X156770227Y-99253221D01*
D10*
%TO.C,U9*%
X202408831Y-101500000D02*
X202727029Y-101181802D01*
X202408831Y-101500000D02*
X202727029Y-101818198D01*
X207181802Y-96727029D02*
X206262563Y-95807790D01*
X207252513Y-96656319D02*
X207181802Y-96727029D01*
X207500000Y-106591169D02*
X207181802Y-106272971D01*
X207500000Y-106591169D02*
X207818198Y-106272971D01*
X207747487Y-96656319D02*
X207252513Y-96656319D01*
X207818198Y-96727029D02*
X207747487Y-96656319D01*
X212591169Y-101500000D02*
X212272971Y-101181802D01*
X212591169Y-101500000D02*
X212272971Y-101818198D01*
D14*
%TO.C,U11*%
X184500000Y-100500000D02*
X185055000Y-100500000D01*
X184500000Y-100555000D02*
X184500000Y-100500000D01*
X184500000Y-103000000D02*
X184500000Y-102945000D01*
X185055000Y-103000000D02*
X184500000Y-103000000D01*
X186945000Y-100500000D02*
X187500000Y-100500000D01*
X187500000Y-100500000D02*
X187500000Y-100555000D01*
X187500000Y-103000000D02*
X186945000Y-103000000D01*
X187500000Y-103000000D02*
X187500000Y-102945000D01*
D15*
X184100000Y-101000000D02*
G75*
G02*
X183900000Y-101000000I-100000J0D01*
G01*
X183900000Y-101000000D02*
G75*
G02*
X184100000Y-101000000I100000J0D01*
G01*
D10*
%TO.C,SW4*%
X122391000Y-93074000D02*
X123049000Y-93074000D01*
X122391000Y-97126000D02*
X122391000Y-93074000D01*
X122391000Y-97126000D02*
X123049000Y-97126000D01*
X124815000Y-93074000D02*
X125473000Y-93074000D01*
X124815000Y-97126000D02*
X125473000Y-97126000D01*
X125473000Y-97126000D02*
X125473000Y-93074000D01*
X124832000Y-95100000D02*
G75*
G02*
X123032000Y-95100000I-900000J0D01*
G01*
X123032000Y-95100000D02*
G75*
G02*
X124832000Y-95100000I900000J0D01*
G01*
D11*
%TO.C,C4*%
X185250000Y-105450002D02*
X187850000Y-105450000D01*
X187850000Y-103849998D02*
X185250000Y-103850000D01*
X185250000Y-105450002D02*
G75*
G02*
X185250000Y-103850000I840224J800001D01*
G01*
X187850000Y-103849998D02*
G75*
G02*
X187850000Y-105450000I-840224J-800001D01*
G01*
D13*
%TO.C,G\u002A\u002A\u002A*%
G36*
X72749964Y-99125543D02*
G01*
X72805969Y-99266462D01*
X72840584Y-99400453D01*
X72851901Y-99516525D01*
X72838013Y-99603689D01*
X72834409Y-99612006D01*
X72805484Y-99655861D01*
X72762088Y-99677973D01*
X72688610Y-99687323D01*
X72600390Y-99684965D01*
X72549066Y-99662305D01*
X72543099Y-99655984D01*
X72521898Y-99598069D01*
X72519170Y-99507130D01*
X72533294Y-99395396D01*
X72562649Y-99275093D01*
X72605614Y-99158451D01*
X72610495Y-99147680D01*
X72684812Y-98986764D01*
X72749964Y-99125543D01*
G37*
G36*
X72824539Y-96528808D02*
G01*
X73017143Y-96546664D01*
X73141769Y-96569645D01*
X73444971Y-96666442D01*
X73724551Y-96804663D01*
X73977058Y-96980878D01*
X74199037Y-97191657D01*
X74387038Y-97433568D01*
X74537606Y-97703180D01*
X74647290Y-97997064D01*
X74671825Y-98089944D01*
X74703364Y-98275137D01*
X74718837Y-98489004D01*
X74718042Y-98713315D01*
X74700776Y-98929842D01*
X74682438Y-99048385D01*
X74594699Y-99384018D01*
X74462047Y-99712965D01*
X74289047Y-100026668D01*
X74080263Y-100316569D01*
X73899206Y-100516968D01*
X73705984Y-100710330D01*
X73705984Y-101348657D01*
X73706030Y-101547698D01*
X73705295Y-101703324D01*
X73702468Y-101821629D01*
X73696238Y-101908706D01*
X73685293Y-101970651D01*
X73668324Y-102013558D01*
X73644018Y-102043521D01*
X73611065Y-102066635D01*
X73568155Y-102088994D01*
X73544151Y-102100986D01*
X73443267Y-102138321D01*
X73303473Y-102170819D01*
X73135225Y-102197491D01*
X72948975Y-102217349D01*
X72755179Y-102229407D01*
X72564288Y-102232675D01*
X72386758Y-102226167D01*
X72301497Y-102218398D01*
X72072531Y-102183959D01*
X71889720Y-102138195D01*
X71750867Y-102080431D01*
X71669776Y-102024971D01*
X71656474Y-102009405D01*
X71646186Y-101984951D01*
X71638531Y-101945691D01*
X71637805Y-101937626D01*
X71750234Y-101937626D01*
X71843070Y-101977592D01*
X72018720Y-102035675D01*
X72229752Y-102076769D01*
X72464823Y-102100260D01*
X72712588Y-102105531D01*
X72961703Y-102091966D01*
X73200823Y-102058948D01*
X73231648Y-102052982D01*
X73380469Y-102018365D01*
X73484684Y-101982183D01*
X73549188Y-101941865D01*
X73578879Y-101894840D01*
X73582202Y-101868888D01*
X73582202Y-101801800D01*
X73434123Y-101847887D01*
X73194430Y-101904317D01*
X72926837Y-101936165D01*
X72646475Y-101943335D01*
X72368479Y-101925730D01*
X72107982Y-101883254D01*
X72003986Y-101856997D01*
X71874015Y-101819981D01*
X71874015Y-101619537D01*
X72121579Y-101619537D01*
X72251549Y-101643241D01*
X72378829Y-101658831D01*
X72539148Y-101667228D01*
X72716577Y-101668563D01*
X72895186Y-101662968D01*
X73059046Y-101650575D01*
X73170153Y-101635622D01*
X73282015Y-101613473D01*
X73387998Y-101587981D01*
X73468924Y-101563868D01*
X73482850Y-101558665D01*
X73542767Y-101531762D01*
X73571919Y-101502492D01*
X73581375Y-101453204D01*
X73582202Y-101400197D01*
X73582202Y-101281482D01*
X73463784Y-101326477D01*
X73282657Y-101377270D01*
X73057104Y-101409139D01*
X72788511Y-101421940D01*
X72572147Y-101419365D01*
X72439854Y-101413898D01*
X72322873Y-101406972D01*
X72231273Y-101399341D01*
X72175119Y-101391756D01*
X72164902Y-101388931D01*
X72139248Y-101383921D01*
X72126272Y-101404057D01*
X72121864Y-101459402D01*
X72121579Y-101494995D01*
X72121579Y-101619537D01*
X71874015Y-101619537D01*
X71874015Y-101494995D01*
X71874015Y-101427896D01*
X71874015Y-101035810D01*
X72041121Y-101084789D01*
X72145543Y-101109319D01*
X72272929Y-101127283D01*
X72432893Y-101139775D01*
X72579698Y-101146202D01*
X72831732Y-101149018D01*
X73045591Y-101138441D01*
X73231030Y-101113493D01*
X73397807Y-101073196D01*
X73439978Y-101059863D01*
X73515320Y-101032180D01*
X73555381Y-101005917D01*
X73572673Y-100969560D01*
X73577831Y-100932979D01*
X73579664Y-100877808D01*
X73566287Y-100860495D01*
X73540697Y-100866598D01*
X73440503Y-100900741D01*
X73334439Y-100926525D01*
X73213896Y-100944925D01*
X73070260Y-100956914D01*
X72894923Y-100963469D01*
X72679271Y-100965562D01*
X72666218Y-100965567D01*
X72447695Y-100963671D01*
X72270003Y-100957339D01*
X72124583Y-100945607D01*
X72002877Y-100927512D01*
X71896324Y-100902090D01*
X71796365Y-100868376D01*
X71793557Y-100867296D01*
X71779410Y-100864725D01*
X71768719Y-100873290D01*
X71761004Y-100898835D01*
X71755785Y-100947201D01*
X71752581Y-101024233D01*
X71750912Y-101135772D01*
X71750297Y-101287662D01*
X71750234Y-101394098D01*
X71750234Y-101937626D01*
X71637805Y-101937626D01*
X71633129Y-101885708D01*
X71629601Y-101799084D01*
X71627566Y-101679901D01*
X71626644Y-101522243D01*
X71626501Y-101394098D01*
X71626452Y-101350340D01*
X71626452Y-100713695D01*
X71419305Y-100506272D01*
X71190567Y-100246649D01*
X70996239Y-99962918D01*
X70838128Y-99660777D01*
X70718038Y-99345926D01*
X70637776Y-99024064D01*
X70605670Y-98755465D01*
X71230351Y-98755465D01*
X71246611Y-99014195D01*
X71296897Y-99280125D01*
X71383194Y-99564435D01*
X71452162Y-99741811D01*
X71534172Y-99923197D01*
X71625522Y-100102838D01*
X71722505Y-100274982D01*
X71821420Y-100433875D01*
X71918561Y-100573762D01*
X72010224Y-100688891D01*
X72092706Y-100773507D01*
X72162303Y-100821856D01*
X72198623Y-100831111D01*
X72221073Y-100826459D01*
X72220017Y-100808185D01*
X72191710Y-100769810D01*
X72132405Y-100704857D01*
X72115112Y-100686657D01*
X71950324Y-100488796D01*
X71792676Y-100251161D01*
X71647206Y-99983450D01*
X71518956Y-99695355D01*
X71412966Y-99396574D01*
X71373674Y-99260463D01*
X71345263Y-99134057D01*
X71328047Y-99002238D01*
X71320065Y-98847219D01*
X71318958Y-98763957D01*
X71319390Y-98632399D01*
X71323242Y-98538117D01*
X71332182Y-98468907D01*
X71347877Y-98412562D01*
X71371994Y-98356879D01*
X71375574Y-98349579D01*
X71439730Y-98247352D01*
X71520535Y-98157702D01*
X71605324Y-98093080D01*
X71660716Y-98069288D01*
X71765866Y-98067270D01*
X71887180Y-98107003D01*
X72020333Y-98185163D01*
X72161002Y-98298425D01*
X72304859Y-98443465D01*
X72447582Y-98616960D01*
X72537528Y-98743170D01*
X72640291Y-98895677D01*
X72555139Y-99079978D01*
X72481978Y-99258886D01*
X72438292Y-99413501D01*
X72425393Y-99538543D01*
X72429869Y-99583146D01*
X72468025Y-99676882D01*
X72534660Y-99740476D01*
X72619061Y-99774044D01*
X72710517Y-99777707D01*
X72798319Y-99751582D01*
X72871755Y-99695789D01*
X72920114Y-99610445D01*
X72928410Y-99577626D01*
X72930175Y-99472999D01*
X72904472Y-99336873D01*
X72853266Y-99177563D01*
X72807580Y-99066288D01*
X72733023Y-98898250D01*
X72854036Y-98721141D01*
X72957737Y-98582674D01*
X73077060Y-98444870D01*
X73201563Y-98318387D01*
X73320805Y-98213885D01*
X73417483Y-98145969D01*
X73549328Y-98086690D01*
X73665610Y-98073719D01*
X73768319Y-98107711D01*
X73859444Y-98189321D01*
X73940427Y-98318115D01*
X73973783Y-98388168D01*
X73995052Y-98448087D01*
X74006786Y-98512450D01*
X74011538Y-98595832D01*
X74011860Y-98712811D01*
X74011759Y-98725488D01*
X74006578Y-98859894D01*
X73994554Y-98999842D01*
X73977837Y-99123059D01*
X73968956Y-99168921D01*
X73893065Y-99447504D01*
X73790456Y-99730941D01*
X73666414Y-100008535D01*
X73526228Y-100269594D01*
X73375183Y-100503420D01*
X73218565Y-100699319D01*
X73205443Y-100713581D01*
X73148677Y-100777159D01*
X73124208Y-100813321D01*
X73128536Y-100828857D01*
X73144881Y-100831111D01*
X73199703Y-100809517D01*
X73271043Y-100748399D01*
X73354808Y-100653252D01*
X73446906Y-100529571D01*
X73543243Y-100382850D01*
X73639728Y-100218586D01*
X73732007Y-100042798D01*
X73864834Y-99748117D01*
X73968136Y-99463220D01*
X74041564Y-99191889D01*
X74084768Y-98937904D01*
X74097402Y-98705046D01*
X74079115Y-98497097D01*
X74029560Y-98317838D01*
X73948387Y-98171049D01*
X73908897Y-98124271D01*
X73800664Y-98035067D01*
X73689206Y-97989462D01*
X73637805Y-97984132D01*
X73532382Y-98005073D01*
X73408907Y-98064857D01*
X73273157Y-98158926D01*
X73130907Y-98282721D01*
X72987936Y-98431684D01*
X72850019Y-98601256D01*
X72841880Y-98612190D01*
X72683332Y-98826305D01*
X72571965Y-98658971D01*
X72477565Y-98531745D01*
X72363512Y-98400656D01*
X72239978Y-98275634D01*
X72117134Y-98166609D01*
X72005153Y-98083513D01*
X71949575Y-98051303D01*
X71813606Y-97998077D01*
X71695410Y-97986634D01*
X71586874Y-98018726D01*
X71479880Y-98096109D01*
X71410642Y-98167732D01*
X71325014Y-98287768D01*
X71268495Y-98424572D01*
X71238034Y-98588089D01*
X71230351Y-98755465D01*
X70605670Y-98755465D01*
X70599147Y-98700889D01*
X70603955Y-98382101D01*
X70651664Y-98083158D01*
X70695097Y-97943212D01*
X70761561Y-97780676D01*
X70843118Y-97611591D01*
X70931831Y-97451998D01*
X71019762Y-97317939D01*
X71049355Y-97279440D01*
X71254579Y-97063600D01*
X71495242Y-96874370D01*
X71761460Y-96718425D01*
X72043350Y-96602439D01*
X72059688Y-96597169D01*
X72218546Y-96559913D01*
X72409480Y-96535833D01*
X72616731Y-96525331D01*
X72824539Y-96528808D01*
G37*
%TO.C,kibuzzard-672AE62B*%
G36*
X180456220Y-103000646D02*
G01*
X180508562Y-103004038D01*
X180597092Y-103022132D01*
X180657189Y-103060905D01*
X180679160Y-103126171D01*
X180657189Y-103192084D01*
X180597737Y-103230210D01*
X180509208Y-103248304D01*
X180456381Y-103251696D01*
X180400000Y-103252827D01*
X180343780Y-103251696D01*
X180291438Y-103248304D01*
X180202907Y-103230210D01*
X180142811Y-103192084D01*
X180120840Y-103126171D01*
X180142811Y-103060258D01*
X180202262Y-103022132D01*
X180290792Y-103004039D01*
X180343619Y-103000646D01*
X180400000Y-102999514D01*
X180456220Y-103000646D01*
G37*
G36*
X180925148Y-102721648D02*
G01*
X180925148Y-103124879D01*
X180925148Y-103414378D01*
X180925148Y-103683630D01*
X179874852Y-103683630D01*
X179874852Y-103414378D01*
X179874852Y-103126171D01*
X179982553Y-103126171D01*
X179994256Y-103210034D01*
X180029366Y-103280686D01*
X180087884Y-103338126D01*
X180146890Y-103371486D01*
X180218578Y-103395315D01*
X180302948Y-103409612D01*
X180400000Y-103414378D01*
X180497053Y-103409733D01*
X180581422Y-103395800D01*
X180653110Y-103372577D01*
X180712116Y-103340065D01*
X180770634Y-103283127D01*
X180805744Y-103211398D01*
X180817447Y-103124879D01*
X180805744Y-103040442D01*
X180770634Y-102969790D01*
X180712116Y-102912924D01*
X180653110Y-102880129D01*
X180581422Y-102856704D01*
X180497053Y-102842649D01*
X180400000Y-102837965D01*
X180302948Y-102842569D01*
X180218578Y-102856381D01*
X180146890Y-102879402D01*
X180087884Y-102911632D01*
X180029366Y-102968210D01*
X179994256Y-103039724D01*
X179982553Y-103126171D01*
X179874852Y-103126171D01*
X179874852Y-102231826D01*
X180000646Y-102231826D01*
X180000646Y-102721648D01*
X180800646Y-102721648D01*
X180800646Y-102562681D01*
X180458158Y-102562682D01*
X180458158Y-102273183D01*
X180326333Y-102273183D01*
X180326333Y-102562681D01*
X180132472Y-102562682D01*
X180132472Y-102231826D01*
X180000646Y-102231826D01*
X179874852Y-102231826D01*
X179874852Y-101585622D01*
X180000646Y-101585622D01*
X180000647Y-102075444D01*
X180800646Y-102075444D01*
X180800646Y-101916478D01*
X180458158Y-101916479D01*
X180458158Y-101626979D01*
X180326333Y-101626978D01*
X180326333Y-101916478D01*
X180132473Y-101916478D01*
X180132472Y-101585622D01*
X180000646Y-101585622D01*
X179874852Y-101585622D01*
X179874852Y-101316370D01*
X180925148Y-101316370D01*
X180925148Y-101585622D01*
X180925148Y-102075444D01*
X180925148Y-102721648D01*
G37*
D10*
%TO.C,SW5*%
X118200000Y-93074000D02*
X118858000Y-93074000D01*
X118200000Y-97126000D02*
X118200000Y-93074000D01*
X118200000Y-97126000D02*
X118858000Y-97126000D01*
X120624000Y-93074000D02*
X121282000Y-93074000D01*
X120624000Y-97126000D02*
X121282000Y-97126000D01*
X121282000Y-97126000D02*
X121282000Y-93074000D01*
X120641000Y-95100000D02*
G75*
G02*
X118841000Y-95100000I-900000J0D01*
G01*
X118841000Y-95100000D02*
G75*
G02*
X120641000Y-95100000I900000J0D01*
G01*
D11*
%TO.C,R7*%
X92178641Y-101695000D02*
X91871359Y-101695000D01*
X92178641Y-102455000D02*
X91871359Y-102455000D01*
D10*
%TO.C,U10*%
X71576000Y-86436999D02*
X71576000Y-94186999D01*
X71576000Y-94186999D02*
X76401000Y-99011999D01*
X76401000Y-81611999D02*
X71576000Y-86436999D01*
X76401000Y-81611999D02*
X84151000Y-81611999D01*
X76401000Y-99011999D02*
X84151000Y-99011999D01*
X89026000Y-86436999D02*
X84151000Y-81611999D01*
X89026000Y-94186999D02*
X84151000Y-99011999D01*
X90476000Y-86436999D02*
X89026000Y-86436999D01*
X90476000Y-86436999D02*
X90476000Y-94186999D01*
X90476000Y-94186999D02*
X89026000Y-94186999D01*
X85026000Y-90311999D02*
G75*
G02*
X75526000Y-90311999I-4750000J0D01*
G01*
X75526000Y-90311999D02*
G75*
G02*
X85026000Y-90311999I4750000J0D01*
G01*
D11*
%TO.C,R10*%
X216250000Y-85200000D02*
X216250000Y-86800000D01*
X216250000Y-86800000D02*
X219250000Y-86800000D01*
X219250000Y-85200000D02*
X216250000Y-85200000D01*
X219250000Y-86800000D02*
X219250000Y-85200000D01*
D13*
%TO.C,kibuzzard-67424780*%
G36*
X136241922Y-83817771D02*
G01*
X136241922Y-83818174D01*
X136213256Y-84109234D01*
X136128358Y-84389108D01*
X135990488Y-84647041D01*
X135804948Y-84873123D01*
X135578868Y-85058663D01*
X135320934Y-85196531D01*
X135041060Y-85281429D01*
X134750000Y-85310098D01*
X134458940Y-85281429D01*
X134179066Y-85196531D01*
X133921132Y-85058663D01*
X133695052Y-84873123D01*
X133509512Y-84647041D01*
X133371642Y-84389108D01*
X133286744Y-84109234D01*
X133258078Y-83818174D01*
X133258078Y-83817771D01*
X133258078Y-82543134D01*
X133661955Y-82543134D01*
X133661955Y-83056866D01*
X134505250Y-83056866D01*
X134505250Y-83817771D01*
X134994750Y-83817771D01*
X134994750Y-83056866D01*
X135838045Y-83056866D01*
X135838045Y-82543134D01*
X134994750Y-82543134D01*
X134994750Y-81782229D01*
X134505250Y-81782229D01*
X134505250Y-82543134D01*
X133661955Y-82543134D01*
X133258078Y-82543134D01*
X133258078Y-81782229D01*
X133258078Y-81781826D01*
X133286744Y-81490766D01*
X133371642Y-81210892D01*
X133509512Y-80952959D01*
X133695052Y-80726877D01*
X133921132Y-80541337D01*
X134179066Y-80403469D01*
X134458940Y-80318571D01*
X134750000Y-80289902D01*
X135041060Y-80318571D01*
X135320934Y-80403469D01*
X135578868Y-80541337D01*
X135804948Y-80726877D01*
X135990488Y-80952959D01*
X136128358Y-81210892D01*
X136213256Y-81490766D01*
X136241922Y-81781826D01*
X136241922Y-81782229D01*
X136241922Y-82543134D01*
X136241922Y-83817771D01*
G37*
D11*
%TO.C,R20*%
X147903156Y-99257616D02*
X147903156Y-102257616D01*
X147903156Y-102257616D02*
X149503156Y-102257616D01*
X149503156Y-99257616D02*
X147903156Y-99257616D01*
X149503156Y-102257616D02*
X149503156Y-99257616D01*
%TO.C,R19*%
X151524922Y-99260419D02*
X151524922Y-102260419D01*
X151524922Y-102260419D02*
X153124922Y-102260419D01*
X153124922Y-99260419D02*
X151524922Y-99260419D01*
X153124922Y-102260419D02*
X153124922Y-99260419D01*
%TO.C,C16*%
X208200000Y-82550002D02*
X210800000Y-82550000D01*
X210800000Y-80949998D02*
X208200000Y-80950000D01*
X208200000Y-82550002D02*
G75*
G02*
X208200000Y-80950000I840224J800001D01*
G01*
X210800000Y-80949998D02*
G75*
G02*
X210800000Y-82550000I-840224J-800001D01*
G01*
D10*
%TO.C,SW7*%
X109700000Y-93074000D02*
X110358000Y-93074000D01*
X109700000Y-97126000D02*
X109700000Y-93074000D01*
X109700000Y-97126000D02*
X110358000Y-97126000D01*
X112124000Y-93074000D02*
X112782000Y-93074000D01*
X112124000Y-97126000D02*
X112782000Y-97126000D01*
X112782000Y-97126000D02*
X112782000Y-93074000D01*
X112141000Y-95100000D02*
G75*
G02*
X110341000Y-95100000I-900000J0D01*
G01*
X110341000Y-95100000D02*
G75*
G02*
X112141000Y-95100000I900000J0D01*
G01*
D11*
%TO.C,R16*%
X86950000Y-81000000D02*
X86950000Y-84000000D01*
X86950000Y-84000000D02*
X88550000Y-84000000D01*
X88550000Y-81000000D02*
X86950000Y-81000000D01*
X88550000Y-84000000D02*
X88550000Y-81000000D01*
D10*
%TO.C,BT1*%
X136900000Y-79900000D02*
X180100000Y-79900000D01*
X136900000Y-85224999D02*
X136900000Y-79900000D01*
X136900000Y-98100000D02*
X136900000Y-92750000D01*
X180100000Y-79900000D02*
X180100000Y-85100000D01*
X180100000Y-92650000D02*
X180100000Y-98100000D01*
X180100000Y-98100000D02*
X136900000Y-98100000D01*
D15*
X178500000Y-97200000D02*
G75*
G02*
X176900000Y-97200000I-800000J0D01*
G01*
X176900000Y-97200000D02*
G75*
G02*
X178500000Y-97200000I800000J0D01*
G01*
D10*
X171225000Y-92575000D02*
X144875000Y-92575000D01*
X144875000Y-85425000D01*
X171225000Y-85425000D01*
X171225000Y-92575000D01*
X172275000Y-90762500D02*
X171225000Y-90762500D01*
X171225000Y-87237500D01*
X172275000Y-87237500D01*
X172275000Y-90762500D01*
D11*
%TO.C,R5*%
X92178641Y-99153332D02*
X91871359Y-99153332D01*
X92178641Y-99913332D02*
X91871359Y-99913332D01*
%TO.C,C3*%
X195515074Y-101146448D02*
X197353553Y-102984924D01*
X198484926Y-101853552D02*
X196646447Y-100015076D01*
X195515074Y-101146448D02*
G75*
G02*
X196646447Y-100015075I1159812J-28439D01*
G01*
X198484926Y-101853552D02*
G75*
G02*
X197353553Y-102984925I-1159809J28436D01*
G01*
%TO.C,C1*%
X160286547Y-99602970D02*
X160809053Y-99602970D01*
X160286547Y-101072970D02*
X160809053Y-101072970D01*
%TO.C,C7*%
X155477727Y-103858401D02*
X158077727Y-103858399D01*
X158077727Y-102258397D02*
X155477727Y-102258399D01*
X155477727Y-103858401D02*
G75*
G02*
X155477727Y-102258399I840224J800001D01*
G01*
X158077727Y-102258397D02*
G75*
G02*
X158077727Y-103858399I-840224J-800001D01*
G01*
%TO.C,C10*%
X144643459Y-103859815D02*
X147243459Y-103859813D01*
X147243459Y-102259811D02*
X144643459Y-102259813D01*
X144643459Y-103859815D02*
G75*
G02*
X144643459Y-102259813I840224J800001D01*
G01*
X147243459Y-102259811D02*
G75*
G02*
X147243459Y-103859813I-840224J-800001D01*
G01*
%TO.C,D2*%
X163497800Y-103992974D02*
X163497800Y-99982974D01*
X163497800Y-103992974D02*
X165497800Y-103992974D01*
X165497800Y-103992974D02*
X165497800Y-99982974D01*
%TO.C,R11*%
X203950000Y-83250000D02*
X203950000Y-86250000D01*
X203950000Y-86250000D02*
X205550000Y-86250000D01*
X205550000Y-83250000D02*
X203950000Y-83250000D01*
X205550000Y-86250000D02*
X205550000Y-83250000D01*
%TO.C,R13*%
X209790291Y-95409189D02*
X210921662Y-96540560D01*
X210921662Y-96540560D02*
X213042983Y-94419239D01*
X211911612Y-93287868D02*
X209790291Y-95409189D01*
X213042983Y-94419239D02*
X211911612Y-93287868D01*
%TO.C,SW2*%
D10*
X126199590Y-93606820D02*
X135300410Y-93606820D01*
X135300410Y-97206000D01*
X126199590Y-97206000D01*
X126199590Y-93606820D01*
D11*
%TO.C,R14*%
X184000000Y-95200000D02*
X184000000Y-98200000D01*
X184000000Y-98200000D02*
X185600000Y-98200000D01*
X185600000Y-95200000D02*
X184000000Y-95200000D01*
X185600000Y-98200000D02*
X185600000Y-95200000D01*
D10*
%TO.C,U4*%
X108922000Y-80648000D02*
X109097000Y-80648000D01*
X108922000Y-81598000D02*
X108922000Y-89598000D01*
X108922000Y-81598000D02*
X109097000Y-81598000D01*
X108922000Y-89598000D02*
X109097000Y-89598000D01*
X108934500Y-90548000D02*
X109109500Y-90548000D01*
X110197000Y-80648000D02*
X110522000Y-80648000D01*
X110197000Y-81598000D02*
X110522000Y-81598000D01*
X110197000Y-89598000D02*
X110522000Y-89598000D01*
X110209500Y-90548000D02*
X110534500Y-90548000D01*
X110697000Y-87598000D02*
X110897000Y-85998000D01*
X110887625Y-87826125D02*
X110722000Y-87623000D01*
X110897000Y-85998000D02*
X111197000Y-85673000D01*
X110947000Y-87948000D02*
X111072000Y-88098000D01*
X110997000Y-85173000D02*
X111222000Y-83348000D01*
X111072000Y-88098000D02*
X113322000Y-88098000D01*
X111187625Y-85551125D02*
X110997000Y-85173000D01*
X111197000Y-85673000D02*
X111397000Y-86048000D01*
X111206375Y-87419875D02*
X110887625Y-87826125D01*
X111209500Y-87410500D02*
X111397000Y-86048000D01*
X111222000Y-83348000D02*
X111353250Y-83229250D01*
X111222000Y-85498000D02*
X111347000Y-85348000D01*
X111222000Y-87623000D02*
X110947000Y-87948000D01*
X111347000Y-85598000D02*
X111622000Y-85248000D01*
X111497000Y-83098000D02*
X111622000Y-82948000D01*
X111497000Y-85823000D02*
X111347000Y-85598000D01*
X111506375Y-85144875D02*
X111187625Y-85551125D01*
X111509500Y-85135500D02*
X111734500Y-83610500D01*
X111622000Y-82948000D02*
X113872000Y-82948000D01*
X111622000Y-85248000D02*
X113447000Y-85248000D01*
X111647000Y-80648000D02*
X111972000Y-80648000D01*
X111647000Y-81598000D02*
X111972000Y-81598000D01*
X111647000Y-89598000D02*
X111972000Y-89598000D01*
X111659500Y-90548000D02*
X111984500Y-90548000D01*
X111734500Y-83610500D02*
X111353250Y-83229250D01*
X111772000Y-83423000D02*
X111497000Y-83098000D01*
X113072000Y-80648000D02*
X113397000Y-80648000D01*
X113072000Y-81598000D02*
X113397000Y-81598000D01*
X113072000Y-89598000D02*
X113397000Y-89598000D01*
X113084500Y-90548000D02*
X113409500Y-90548000D01*
X113147000Y-87623000D02*
X111222000Y-87623000D01*
X113247000Y-87498000D02*
X113547000Y-87848000D01*
X113322000Y-88098000D02*
X113447000Y-87973000D01*
X113422000Y-85823000D02*
X111497000Y-85823000D01*
X113447000Y-85248000D02*
X113634500Y-85585500D01*
X113447000Y-87973000D02*
X113147000Y-87623000D01*
X113459500Y-86010500D02*
X113247000Y-87498000D01*
X113459500Y-86010500D02*
X113747000Y-85673000D01*
X113547000Y-85098000D02*
X113772000Y-85498000D01*
X113553250Y-87854250D02*
X113759500Y-87660500D01*
X113634500Y-85585500D02*
X113422000Y-85823000D01*
X113697000Y-83423000D02*
X111772000Y-83423000D01*
X113747000Y-85673000D02*
X113972000Y-85998000D01*
X113772000Y-83573000D02*
X113547000Y-85098000D01*
X113772000Y-85498000D02*
X114072000Y-85223000D01*
X113872000Y-82948000D02*
X113997000Y-83073000D01*
X113972000Y-85998000D02*
X113759500Y-87660500D01*
X113997000Y-83073000D02*
X113697000Y-83423000D01*
X114072000Y-85223000D02*
X114297000Y-83348000D01*
X114097000Y-83173000D02*
X113772000Y-83573000D01*
X114097000Y-83173000D02*
X114297000Y-83348000D01*
X114522000Y-80648000D02*
X114847000Y-80648000D01*
X114522000Y-81598000D02*
X114847000Y-81598000D01*
X114522000Y-89598000D02*
X114847000Y-89598000D01*
X114534500Y-90548000D02*
X114859500Y-90548000D01*
X115922000Y-80648000D02*
X116097000Y-80648000D01*
X115922000Y-89598000D02*
X116097000Y-89598000D01*
X115934500Y-90548000D02*
X116109500Y-90548000D01*
X115947000Y-81598000D02*
X116097000Y-81598000D01*
X116097000Y-81598000D02*
X116097000Y-89598000D01*
X109798556Y-91173000D02*
G75*
G02*
X109395444Y-91173000I-201556J0D01*
G01*
X109395444Y-91173000D02*
G75*
G02*
X109798556Y-91173000I201556J0D01*
G01*
X115098040Y-87873000D02*
G75*
G02*
X114495960Y-87873000I-301040J0D01*
G01*
X114495960Y-87873000D02*
G75*
G02*
X115098040Y-87873000I301040J0D01*
G01*
D11*
%TO.C,R30*%
X138626969Y-99255053D02*
X138626969Y-102255053D01*
X138626969Y-102255053D02*
X140226969Y-102255053D01*
X140226969Y-99255053D02*
X138626969Y-99255053D01*
X140226969Y-102255053D02*
X140226969Y-99255053D01*
%TO.C,R38*%
X203950000Y-86500000D02*
X203950000Y-89500000D01*
X203950000Y-89500000D02*
X205550000Y-89500000D01*
X205550000Y-86500000D02*
X203950000Y-86500000D01*
X205550000Y-89500000D02*
X205550000Y-86500000D01*
D10*
%TO.C,SW9*%
X101259000Y-93074000D02*
X101917000Y-93074000D01*
X101259000Y-97126000D02*
X101259000Y-93074000D01*
X101259000Y-97126000D02*
X101917000Y-97126000D01*
X103683000Y-93074000D02*
X104341000Y-93074000D01*
X103683000Y-97126000D02*
X104341000Y-97126000D01*
X104341000Y-97126000D02*
X104341000Y-93074000D01*
X103700000Y-95100000D02*
G75*
G02*
X101900000Y-95100000I-900000J0D01*
G01*
X101900000Y-95100000D02*
G75*
G02*
X103700000Y-95100000I900000J0D01*
G01*
%TO.C,U7*%
X220950000Y-80800000D02*
X224500000Y-80800000D01*
X220950000Y-82800000D02*
X220950000Y-80800000D01*
X220950000Y-84950000D02*
X220950000Y-84450000D01*
X220950000Y-86550000D02*
X220950000Y-86350000D01*
X220950000Y-88450000D02*
X220950000Y-87950000D01*
X220950000Y-92100000D02*
X220950000Y-90200000D01*
X224500000Y-92100000D02*
X220950000Y-92100000D01*
D11*
%TO.C,R9*%
X216250000Y-83450000D02*
X216250000Y-85050000D01*
X216250000Y-85050000D02*
X219250000Y-85050000D01*
X219250000Y-83450000D02*
X216250000Y-83450000D01*
X219250000Y-85050000D02*
X219250000Y-83450000D01*
%TO.C,R21*%
X126500000Y-91850000D02*
X126500000Y-93450000D01*
X126500000Y-93450000D02*
X129500000Y-93450000D01*
X129500000Y-91850000D02*
X126500000Y-91850000D01*
X129500000Y-93450000D02*
X129500000Y-91850000D01*
%TO.C,C5*%
X188749998Y-102550000D02*
X188750000Y-105150000D01*
X190350002Y-105150000D02*
X190350000Y-102550000D01*
X188749998Y-102550000D02*
G75*
G02*
X190350000Y-102550000I800001J-840224D01*
G01*
X190350002Y-105150000D02*
G75*
G02*
X188750000Y-105150000I-800001J840224D01*
G01*
%TO.C,R4*%
X92178641Y-97882499D02*
X91871359Y-97882499D01*
X92178641Y-98642499D02*
X91871359Y-98642499D01*
D14*
%TO.C,J1*%
X217750000Y-94190000D02*
X222750000Y-94190000D01*
X217750000Y-94640000D02*
X217750000Y-94190000D01*
X217750000Y-101810000D02*
X217750000Y-101360000D01*
X222750000Y-94190000D02*
X222750000Y-94640000D01*
X222750000Y-101360000D02*
X222750000Y-101810000D01*
X222750000Y-101810000D02*
X217750000Y-101810000D01*
D15*
X217825000Y-93630000D02*
G75*
G02*
X217625000Y-93630000I-100000J0D01*
G01*
X217625000Y-93630000D02*
G75*
G02*
X217825000Y-93630000I100000J0D01*
G01*
D11*
%TO.C,R40*%
X189700000Y-94300000D02*
X189700000Y-97300000D01*
X189700000Y-97300000D02*
X191300000Y-97300000D01*
X191300000Y-94300000D02*
X189700000Y-94300000D01*
X191300000Y-97300000D02*
X191300000Y-94300000D01*
%TO.C,R25*%
X156752726Y-99258399D02*
X156752726Y-102258399D01*
X156752726Y-102258399D02*
X158352726Y-102258399D01*
X158352726Y-99258399D02*
X156752726Y-99258399D01*
X158352726Y-102258399D02*
X158352726Y-99258399D01*
D13*
%TO.C,kibuzzard-67424780*%
G36*
X183741922Y-83817771D02*
G01*
X183741922Y-83818174D01*
X183713256Y-84109234D01*
X183628358Y-84389108D01*
X183490488Y-84647041D01*
X183304948Y-84873123D01*
X183078868Y-85058663D01*
X182820934Y-85196531D01*
X182541060Y-85281429D01*
X182250000Y-85310098D01*
X181958940Y-85281429D01*
X181679066Y-85196531D01*
X181421132Y-85058663D01*
X181195052Y-84873123D01*
X181009512Y-84647041D01*
X180871642Y-84389108D01*
X180786744Y-84109234D01*
X180758078Y-83818174D01*
X180758078Y-83817771D01*
X180758078Y-82543134D01*
X181161955Y-82543134D01*
X181161955Y-83056866D01*
X182005250Y-83056866D01*
X182005250Y-83817771D01*
X182494750Y-83817771D01*
X182494750Y-83056866D01*
X183338045Y-83056866D01*
X183338045Y-82543134D01*
X182494750Y-82543134D01*
X182494750Y-81782229D01*
X182005250Y-81782229D01*
X182005250Y-82543134D01*
X181161955Y-82543134D01*
X180758078Y-82543134D01*
X180758078Y-81782229D01*
X180758078Y-81781826D01*
X180786744Y-81490766D01*
X180871642Y-81210892D01*
X181009512Y-80952959D01*
X181195052Y-80726877D01*
X181421132Y-80541337D01*
X181679066Y-80403469D01*
X181958940Y-80318571D01*
X182250000Y-80289902D01*
X182541060Y-80318571D01*
X182820934Y-80403469D01*
X183078868Y-80541337D01*
X183304948Y-80726877D01*
X183490488Y-80952959D01*
X183628358Y-81210892D01*
X183713256Y-81490766D01*
X183741922Y-81781826D01*
X183741922Y-81782229D01*
X183741922Y-82543134D01*
X183741922Y-83817771D01*
G37*
D11*
%TO.C,C12*%
X137401969Y-103855054D02*
X140001969Y-103855052D01*
X140001969Y-102255050D02*
X137401969Y-102255052D01*
X137401969Y-103855054D02*
G75*
G02*
X137401969Y-102255052I840224J800001D01*
G01*
X140001969Y-102255050D02*
G75*
G02*
X140001969Y-103855052I-840224J-800001D01*
G01*
%TO.C,C8*%
X151861387Y-103860421D02*
X154461387Y-103860419D01*
X154461387Y-102260417D02*
X151861387Y-102260419D01*
X151861387Y-103860421D02*
G75*
G02*
X151861387Y-102260419I840224J800001D01*
G01*
X154461387Y-102260417D02*
G75*
G02*
X154461387Y-103860419I-840224J-800001D01*
G01*
%TO.C,C11*%
X141029343Y-103860181D02*
X143629343Y-103860179D01*
X143629343Y-102260177D02*
X141029343Y-102260179D01*
X141029343Y-103860181D02*
G75*
G02*
X141029343Y-102260179I840224J800001D01*
G01*
X143629343Y-102260177D02*
G75*
G02*
X143629343Y-103860179I-840224J-800001D01*
G01*
%TO.C,R27*%
X149503156Y-99257616D02*
X149503156Y-102257616D01*
X149503156Y-102257616D02*
X151103156Y-102257616D01*
X151103156Y-99257616D02*
X149503156Y-99257616D01*
X151103156Y-102257616D02*
X151103156Y-99257616D01*
%TO.C,R28*%
X145893460Y-99259813D02*
X145893460Y-102259813D01*
X145893460Y-102259813D02*
X147493460Y-102259813D01*
X147493460Y-99259813D02*
X145893460Y-99259813D01*
X147493460Y-102259813D02*
X147493460Y-99259813D01*
D13*
%TO.C,G\u002A\u002A\u002A*%
G36*
X83760756Y-89324652D02*
G01*
X83757455Y-89372660D01*
X83737019Y-89401406D01*
X83683648Y-89415828D01*
X83581543Y-89420863D01*
X83451000Y-89421451D01*
X83141243Y-89421451D01*
X83141243Y-90311999D01*
X83141243Y-91202548D01*
X83451000Y-91202548D01*
X83604626Y-91203580D01*
X83696614Y-91209966D01*
X83742764Y-91226644D01*
X83758876Y-91258552D01*
X83760756Y-91299347D01*
X83760756Y-91396146D01*
X83025085Y-91396146D01*
X82289414Y-91396146D01*
X82289414Y-91299347D01*
X82292715Y-91251339D01*
X82313151Y-91222592D01*
X82366522Y-91208171D01*
X82468627Y-91203136D01*
X82599170Y-91202548D01*
X82908926Y-91202548D01*
X82908926Y-90311999D01*
X82908926Y-89421451D01*
X82599170Y-89421451D01*
X82445544Y-89420419D01*
X82353556Y-89414033D01*
X82307406Y-89397355D01*
X82291294Y-89365447D01*
X82289414Y-89324652D01*
X82289414Y-89227853D01*
X83025085Y-89227853D01*
X83760756Y-89227853D01*
X83760756Y-89324652D01*
G37*
G36*
X81506036Y-88773560D02*
G01*
X81663656Y-88933655D01*
X81773523Y-89051592D01*
X81843995Y-89138582D01*
X81883429Y-89205837D01*
X81900183Y-89264570D01*
X81902888Y-89305953D01*
X81936058Y-89449909D01*
X81999687Y-89531993D01*
X82081930Y-89655676D01*
X82097982Y-89791752D01*
X82051724Y-89919652D01*
X81947041Y-90018813D01*
X81903699Y-90040350D01*
X81761403Y-90065819D01*
X81637336Y-90029985D01*
X81541653Y-89948428D01*
X81484505Y-89836729D01*
X81478301Y-89744113D01*
X81708622Y-89744113D01*
X81733024Y-89817879D01*
X81786309Y-89838603D01*
X81838594Y-89803676D01*
X81856659Y-89757038D01*
X81840233Y-89703712D01*
X81788900Y-89692487D01*
X81724553Y-89713336D01*
X81708622Y-89744113D01*
X81478301Y-89744113D01*
X81476047Y-89710469D01*
X81526431Y-89585229D01*
X81572434Y-89531993D01*
X81641267Y-89452077D01*
X81668017Y-89373189D01*
X81648740Y-89284620D01*
X81579494Y-89175656D01*
X81456333Y-89035587D01*
X81349657Y-88926922D01*
X81029413Y-88608341D01*
X80254976Y-88608341D01*
X79480540Y-88608341D01*
X79161959Y-88928586D01*
X78843378Y-89248830D01*
X78843378Y-90216817D01*
X78843378Y-91184803D01*
X79182939Y-91522791D01*
X79522501Y-91860780D01*
X80258213Y-91860780D01*
X80993925Y-91860780D01*
X81331914Y-91521218D01*
X81461842Y-91385644D01*
X81568632Y-91264616D01*
X81641546Y-91170993D01*
X81669849Y-91117633D01*
X81669902Y-91116423D01*
X81644037Y-91046286D01*
X81580977Y-90962480D01*
X81573103Y-90954391D01*
X81491877Y-90828159D01*
X81478372Y-90712101D01*
X81708622Y-90712101D01*
X81733024Y-90785867D01*
X81786309Y-90806591D01*
X81838594Y-90771664D01*
X81856659Y-90725026D01*
X81840233Y-90671699D01*
X81788900Y-90660475D01*
X81724553Y-90681324D01*
X81708622Y-90712101D01*
X81478372Y-90712101D01*
X81476338Y-90694620D01*
X81519002Y-90571813D01*
X81612384Y-90477775D01*
X81748996Y-90430546D01*
X81791487Y-90428158D01*
X81932644Y-90460249D01*
X82034136Y-90544190D01*
X82088665Y-90661482D01*
X82088938Y-90793627D01*
X82027658Y-90922126D01*
X81999018Y-90954391D01*
X81916777Y-91084891D01*
X81902219Y-91175995D01*
X81894852Y-91234573D01*
X81867110Y-91297499D01*
X81810536Y-91375991D01*
X81716670Y-91481268D01*
X81577055Y-91624547D01*
X81524011Y-91677589D01*
X81145803Y-92054378D01*
X80255221Y-92054378D01*
X79364638Y-92054378D01*
X78987849Y-91676170D01*
X78611061Y-91297962D01*
X78611061Y-90234529D01*
X78611061Y-89171096D01*
X79007244Y-88773560D01*
X79403427Y-88376024D01*
X80256640Y-88376024D01*
X81109853Y-88376024D01*
X81506036Y-88773560D01*
G37*
G36*
X82609369Y-87824772D02*
G01*
X83141243Y-88357666D01*
X83141243Y-88618522D01*
X83141243Y-88879377D01*
X83296122Y-88879377D01*
X83395907Y-88884661D01*
X83440258Y-88909582D01*
X83450944Y-88967746D01*
X83451000Y-88976176D01*
X83451000Y-89072975D01*
X83025085Y-89072975D01*
X82599170Y-89072975D01*
X82599170Y-88976176D01*
X82607624Y-88913811D01*
X82647497Y-88886091D01*
X82740561Y-88879412D01*
X82754048Y-88879377D01*
X82908926Y-88879377D01*
X82908926Y-88657322D01*
X82908926Y-88435266D01*
X82454577Y-87979730D01*
X82000228Y-87524195D01*
X80237304Y-87524195D01*
X78474380Y-87524195D01*
X78000647Y-87999068D01*
X77526914Y-88473941D01*
X77526914Y-88704657D01*
X77526914Y-88935373D01*
X77765159Y-89175754D01*
X78003403Y-89416136D01*
X77668360Y-89582300D01*
X77525101Y-89655414D01*
X77412414Y-89716855D01*
X77345368Y-89758188D01*
X77333317Y-89769836D01*
X77365751Y-89794805D01*
X77453343Y-89845372D01*
X77581529Y-89913434D01*
X77691336Y-89968997D01*
X78049354Y-90146786D01*
X77671397Y-90336526D01*
X77293440Y-90526265D01*
X77663723Y-90710202D01*
X77812723Y-90787818D01*
X77929272Y-90855460D01*
X77999955Y-90904883D01*
X78014456Y-90925771D01*
X77972965Y-90953961D01*
X77876305Y-91005168D01*
X77740243Y-91071346D01*
X77625392Y-91124350D01*
X77473116Y-91195426D01*
X77351334Y-91256602D01*
X77274770Y-91300210D01*
X77255878Y-91316767D01*
X77281367Y-91356296D01*
X77346239Y-91428355D01*
X77391396Y-91473585D01*
X77462591Y-91547336D01*
X77503157Y-91612450D01*
X77521677Y-91694583D01*
X77526736Y-91819393D01*
X77526914Y-91878636D01*
X77526914Y-92152338D01*
X78001787Y-92626071D01*
X78476661Y-93099804D01*
X80238444Y-93099804D01*
X82000228Y-93099804D01*
X82456608Y-92642232D01*
X82912988Y-92184660D01*
X82901277Y-91942915D01*
X82889567Y-91701170D01*
X82646359Y-91826781D01*
X82517622Y-91891145D01*
X82437832Y-91921996D01*
X82388076Y-91923132D01*
X82349442Y-91898346D01*
X82339191Y-91888431D01*
X82298479Y-91837093D01*
X82309002Y-91791135D01*
X82350082Y-91741707D01*
X82503260Y-91622452D01*
X82705680Y-91535476D01*
X82933840Y-91486488D01*
X83164241Y-91481200D01*
X83315843Y-91506982D01*
X83429440Y-91548473D01*
X83554758Y-91610160D01*
X83671595Y-91679860D01*
X83759746Y-91745390D01*
X83799008Y-91794566D01*
X83799475Y-91798623D01*
X83775879Y-91853581D01*
X83738173Y-91903061D01*
X83697300Y-91939876D01*
X83654316Y-91942762D01*
X83586676Y-91907289D01*
X83515536Y-91859300D01*
X83397910Y-91787669D01*
X83286533Y-91735127D01*
X83247722Y-91722654D01*
X83141243Y-91697507D01*
X83141243Y-91982940D01*
X83141243Y-92268372D01*
X82608349Y-92800247D01*
X82075455Y-93332121D01*
X80216900Y-93332121D01*
X78358346Y-93332121D01*
X77826472Y-92799227D01*
X77294597Y-92266332D01*
X77294597Y-91994474D01*
X77294597Y-91722616D01*
X77081640Y-91512304D01*
X76980496Y-91408801D01*
X76905370Y-91325031D01*
X76869842Y-91276318D01*
X76868683Y-91272048D01*
X76901027Y-91242898D01*
X76987934Y-91189118D01*
X77114219Y-91119718D01*
X77198339Y-91076454D01*
X77527995Y-90910806D01*
X77150037Y-90723055D01*
X76772080Y-90535305D01*
X77159176Y-90340399D01*
X77546274Y-90145494D01*
X77168759Y-89971326D01*
X77014930Y-89897951D01*
X76891320Y-89834412D01*
X76812424Y-89788453D01*
X76791244Y-89769601D01*
X76824324Y-89743626D01*
X76914253Y-89693652D01*
X77047063Y-89627012D01*
X77199075Y-89555475D01*
X77606907Y-89368905D01*
X77450752Y-89209795D01*
X77294597Y-89050684D01*
X77294597Y-88703155D01*
X77294597Y-88355627D01*
X77827492Y-87823752D01*
X78360386Y-87291878D01*
X80218940Y-87291878D01*
X82077494Y-87291878D01*
X82609369Y-87824772D01*
G37*
D11*
%TO.C,R2*%
X92178641Y-94070000D02*
X91871359Y-94070000D01*
X92178641Y-94830000D02*
X91871359Y-94830000D01*
%TO.C,R39*%
X191600000Y-94300000D02*
X191600000Y-97300000D01*
X191600000Y-97300000D02*
X193200000Y-97300000D01*
X193200000Y-94300000D02*
X191600000Y-94300000D01*
X193200000Y-97300000D02*
X193200000Y-94300000D01*
%TO.C,R12*%
X208376078Y-93994975D02*
X209507449Y-95126346D01*
X209507449Y-95126346D02*
X211628770Y-93005025D01*
X210497399Y-91873654D02*
X208376078Y-93994975D01*
X211628770Y-93005025D02*
X210497399Y-91873654D01*
D16*
%TO.C,J2*%
X187200000Y-77270000D02*
X187200000Y-80320000D01*
X187280000Y-83040000D02*
X187280000Y-90230000D01*
X190960000Y-77270000D02*
X187200000Y-77270000D01*
D10*
X191860000Y-91880000D02*
X188760000Y-91880000D01*
D16*
X194620000Y-78160000D02*
X190960000Y-77270000D01*
X201990000Y-78160000D02*
X194620000Y-78160000D01*
X201990000Y-80320000D02*
X201990000Y-78160000D01*
X202010000Y-90310000D02*
X201990000Y-82930000D01*
D10*
%TO.C,U2*%
X94190000Y-80648000D02*
X94365000Y-80648000D01*
X94190000Y-81598000D02*
X94190000Y-89598000D01*
X94190000Y-81598000D02*
X94365000Y-81598000D01*
X94190000Y-89598000D02*
X94365000Y-89598000D01*
X94202500Y-90548000D02*
X94377500Y-90548000D01*
X95465000Y-80648000D02*
X95790000Y-80648000D01*
X95465000Y-81598000D02*
X95790000Y-81598000D01*
X95465000Y-89598000D02*
X95790000Y-89598000D01*
X95477500Y-90548000D02*
X95802500Y-90548000D01*
X95965000Y-87598000D02*
X96165000Y-85998000D01*
X96155625Y-87826125D02*
X95990000Y-87623000D01*
X96165000Y-85998000D02*
X96465000Y-85673000D01*
X96215000Y-87948000D02*
X96340000Y-88098000D01*
X96265000Y-85173000D02*
X96490000Y-83348000D01*
X96340000Y-88098000D02*
X98590000Y-88098000D01*
X96455625Y-85551125D02*
X96265000Y-85173000D01*
X96465000Y-85673000D02*
X96665000Y-86048000D01*
X96474375Y-87419875D02*
X96155625Y-87826125D01*
X96477500Y-87410500D02*
X96665000Y-86048000D01*
X96490000Y-83348000D02*
X96621250Y-83229250D01*
X96490000Y-85498000D02*
X96615000Y-85348000D01*
X96490000Y-87623000D02*
X96215000Y-87948000D01*
X96615000Y-85598000D02*
X96890000Y-85248000D01*
X96765000Y-83098000D02*
X96890000Y-82948000D01*
X96765000Y-85823000D02*
X96615000Y-85598000D01*
X96774375Y-85144875D02*
X96455625Y-85551125D01*
X96777500Y-85135500D02*
X97002500Y-83610500D01*
X96890000Y-82948000D02*
X99140000Y-82948000D01*
X96890000Y-85248000D02*
X98715000Y-85248000D01*
X96915000Y-80648000D02*
X97240000Y-80648000D01*
X96915000Y-81598000D02*
X97240000Y-81598000D01*
X96915000Y-89598000D02*
X97240000Y-89598000D01*
X96927500Y-90548000D02*
X97252500Y-90548000D01*
X97002500Y-83610500D02*
X96621250Y-83229250D01*
X97040000Y-83423000D02*
X96765000Y-83098000D01*
X98340000Y-80648000D02*
X98665000Y-80648000D01*
X98340000Y-81598000D02*
X98665000Y-81598000D01*
X98340000Y-89598000D02*
X98665000Y-89598000D01*
X98352500Y-90548000D02*
X98677500Y-90548000D01*
X98415000Y-87623000D02*
X96490000Y-87623000D01*
X98515000Y-87498000D02*
X98815000Y-87848000D01*
X98590000Y-88098000D02*
X98715000Y-87973000D01*
X98690000Y-85823000D02*
X96765000Y-85823000D01*
X98715000Y-85248000D02*
X98902500Y-85585500D01*
X98715000Y-87973000D02*
X98415000Y-87623000D01*
X98727500Y-86010500D02*
X98515000Y-87498000D01*
X98727500Y-86010500D02*
X99015000Y-85673000D01*
X98815000Y-85098000D02*
X99040000Y-85498000D01*
X98821250Y-87854250D02*
X99027500Y-87660500D01*
X98902500Y-85585500D02*
X98690000Y-85823000D01*
X98965000Y-83423000D02*
X97040000Y-83423000D01*
X99015000Y-85673000D02*
X99240000Y-85998000D01*
X99040000Y-83573000D02*
X98815000Y-85098000D01*
X99040000Y-85498000D02*
X99340000Y-85223000D01*
X99140000Y-82948000D02*
X99265000Y-83073000D01*
X99240000Y-85998000D02*
X99027500Y-87660500D01*
X99265000Y-83073000D02*
X98965000Y-83423000D01*
X99340000Y-85223000D02*
X99565000Y-83348000D01*
X99365000Y-83173000D02*
X99040000Y-83573000D01*
X99365000Y-83173000D02*
X99565000Y-83348000D01*
X99790000Y-80648000D02*
X100115000Y-80648000D01*
X99790000Y-81598000D02*
X100115000Y-81598000D01*
X99790000Y-89598000D02*
X100115000Y-89598000D01*
X99802500Y-90548000D02*
X100127500Y-90548000D01*
X101190000Y-80648000D02*
X101365000Y-80648000D01*
X101190000Y-89598000D02*
X101365000Y-89598000D01*
X101202500Y-90548000D02*
X101377500Y-90548000D01*
X101215000Y-81598000D02*
X101365000Y-81598000D01*
X101365000Y-81598000D02*
X101365000Y-89598000D01*
X95066556Y-91173000D02*
G75*
G02*
X94663444Y-91173000I-201556J0D01*
G01*
X94663444Y-91173000D02*
G75*
G02*
X95066556Y-91173000I201556J0D01*
G01*
X100366040Y-87873000D02*
G75*
G02*
X99763960Y-87873000I-301040J0D01*
G01*
X99763960Y-87873000D02*
G75*
G02*
X100366040Y-87873000I301040J0D01*
G01*
D11*
%TO.C,C15*%
X213426448Y-105854926D02*
X215264924Y-104016447D01*
X214133552Y-102885074D02*
X212295076Y-104723553D01*
X213426448Y-105854926D02*
G75*
G02*
X212295075Y-104723553I28439J1159812D01*
G01*
X214133552Y-102885074D02*
G75*
G02*
X215264925Y-104016447I-28436J-1159809D01*
G01*
%TO.C,R15*%
X185900000Y-95200000D02*
X185900000Y-98200000D01*
X185900000Y-98200000D02*
X187500000Y-98200000D01*
X187500000Y-95200000D02*
X185900000Y-95200000D01*
X187500000Y-98200000D02*
X187500000Y-95200000D01*
D10*
%TO.C,U3*%
X101556000Y-80648000D02*
X101731000Y-80648000D01*
X101556000Y-81598000D02*
X101556000Y-89598000D01*
X101556000Y-81598000D02*
X101731000Y-81598000D01*
X101556000Y-89598000D02*
X101731000Y-89598000D01*
X101568500Y-90548000D02*
X101743500Y-90548000D01*
X102831000Y-80648000D02*
X103156000Y-80648000D01*
X102831000Y-81598000D02*
X103156000Y-81598000D01*
X102831000Y-89598000D02*
X103156000Y-89598000D01*
X102843500Y-90548000D02*
X103168500Y-90548000D01*
X103331000Y-87598000D02*
X103531000Y-85998000D01*
X103521625Y-87826125D02*
X103356000Y-87623000D01*
X103531000Y-85998000D02*
X103831000Y-85673000D01*
X103581000Y-87948000D02*
X103706000Y-88098000D01*
X103631000Y-85173000D02*
X103856000Y-83348000D01*
X103706000Y-88098000D02*
X105956000Y-88098000D01*
X103821625Y-85551125D02*
X103631000Y-85173000D01*
X103831000Y-85673000D02*
X104031000Y-86048000D01*
X103840375Y-87419875D02*
X103521625Y-87826125D01*
X103843500Y-87410500D02*
X104031000Y-86048000D01*
X103856000Y-83348000D02*
X103987250Y-83229250D01*
X103856000Y-85498000D02*
X103981000Y-85348000D01*
X103856000Y-87623000D02*
X103581000Y-87948000D01*
X103981000Y-85598000D02*
X104256000Y-85248000D01*
X104131000Y-83098000D02*
X104256000Y-82948000D01*
X104131000Y-85823000D02*
X103981000Y-85598000D01*
X104140375Y-85144875D02*
X103821625Y-85551125D01*
X104143500Y-85135500D02*
X104368500Y-83610500D01*
X104256000Y-82948000D02*
X106506000Y-82948000D01*
X104256000Y-85248000D02*
X106081000Y-85248000D01*
X104281000Y-80648000D02*
X104606000Y-80648000D01*
X104281000Y-81598000D02*
X104606000Y-81598000D01*
X104281000Y-89598000D02*
X104606000Y-89598000D01*
X104293500Y-90548000D02*
X104618500Y-90548000D01*
X104368500Y-83610500D02*
X103987250Y-83229250D01*
X104406000Y-83423000D02*
X104131000Y-83098000D01*
X105706000Y-80648000D02*
X106031000Y-80648000D01*
X105706000Y-81598000D02*
X106031000Y-81598000D01*
X105706000Y-89598000D02*
X106031000Y-89598000D01*
X105718500Y-90548000D02*
X106043500Y-90548000D01*
X105781000Y-87623000D02*
X103856000Y-87623000D01*
X105881000Y-87498000D02*
X106181000Y-87848000D01*
X105956000Y-88098000D02*
X106081000Y-87973000D01*
X106056000Y-85823000D02*
X104131000Y-85823000D01*
X106081000Y-85248000D02*
X106268500Y-85585500D01*
X106081000Y-87973000D02*
X105781000Y-87623000D01*
X106093500Y-86010500D02*
X105881000Y-87498000D01*
X106093500Y-86010500D02*
X106381000Y-85673000D01*
X106181000Y-85098000D02*
X106406000Y-85498000D01*
X106187250Y-87854250D02*
X106393500Y-87660500D01*
X106268500Y-85585500D02*
X106056000Y-85823000D01*
X106331000Y-83423000D02*
X104406000Y-83423000D01*
X106381000Y-85673000D02*
X106606000Y-85998000D01*
X106406000Y-83573000D02*
X106181000Y-85098000D01*
X106406000Y-85498000D02*
X106706000Y-85223000D01*
X106506000Y-82948000D02*
X106631000Y-83073000D01*
X106606000Y-85998000D02*
X106393500Y-87660500D01*
X106631000Y-83073000D02*
X106331000Y-83423000D01*
X106706000Y-85223000D02*
X106931000Y-83348000D01*
X106731000Y-83173000D02*
X106406000Y-83573000D01*
X106731000Y-83173000D02*
X106931000Y-83348000D01*
X107156000Y-80648000D02*
X107481000Y-80648000D01*
X107156000Y-81598000D02*
X107481000Y-81598000D01*
X107156000Y-89598000D02*
X107481000Y-89598000D01*
X107168500Y-90548000D02*
X107493500Y-90548000D01*
X108556000Y-80648000D02*
X108731000Y-80648000D01*
X108556000Y-89598000D02*
X108731000Y-89598000D01*
X108568500Y-90548000D02*
X108743500Y-90548000D01*
X108581000Y-81598000D02*
X108731000Y-81598000D01*
X108731000Y-81598000D02*
X108731000Y-89598000D01*
X102432556Y-91173000D02*
G75*
G02*
X102029444Y-91173000I-201556J0D01*
G01*
X102029444Y-91173000D02*
G75*
G02*
X102432556Y-91173000I201556J0D01*
G01*
X107732040Y-87873000D02*
G75*
G02*
X107129960Y-87873000I-301040J0D01*
G01*
X107129960Y-87873000D02*
G75*
G02*
X107732040Y-87873000I301040J0D01*
G01*
%TO.C,U5*%
X116374000Y-80648000D02*
X116549000Y-80648000D01*
X116374000Y-81598000D02*
X116374000Y-89598000D01*
X116374000Y-81598000D02*
X116549000Y-81598000D01*
X116374000Y-89598000D02*
X116549000Y-89598000D01*
X116386500Y-90548000D02*
X116561500Y-90548000D01*
X117649000Y-80648000D02*
X117974000Y-80648000D01*
X117649000Y-81598000D02*
X117974000Y-81598000D01*
X117649000Y-89598000D02*
X117974000Y-89598000D01*
X117661500Y-90548000D02*
X117986500Y-90548000D01*
X118149000Y-87598000D02*
X118349000Y-85998000D01*
X118339625Y-87826125D02*
X118174000Y-87623000D01*
X118349000Y-85998000D02*
X118649000Y-85673000D01*
X118399000Y-87948000D02*
X118524000Y-88098000D01*
X118449000Y-85173000D02*
X118674000Y-83348000D01*
X118524000Y-88098000D02*
X120774000Y-88098000D01*
X118639625Y-85551125D02*
X118449000Y-85173000D01*
X118649000Y-85673000D02*
X118849000Y-86048000D01*
X118658375Y-87419875D02*
X118339625Y-87826125D01*
X118661500Y-87410500D02*
X118849000Y-86048000D01*
X118674000Y-83348000D02*
X118805250Y-83229250D01*
X118674000Y-85498000D02*
X118799000Y-85348000D01*
X118674000Y-87623000D02*
X118399000Y-87948000D01*
X118799000Y-85598000D02*
X119074000Y-85248000D01*
X118949000Y-83098000D02*
X119074000Y-82948000D01*
X118949000Y-85823000D02*
X118799000Y-85598000D01*
X118958375Y-85144875D02*
X118639625Y-85551125D01*
X118961500Y-85135500D02*
X119186500Y-83610500D01*
X119074000Y-82948000D02*
X121324000Y-82948000D01*
X119074000Y-85248000D02*
X120899000Y-85248000D01*
X119099000Y-80648000D02*
X119424000Y-80648000D01*
X119099000Y-81598000D02*
X119424000Y-81598000D01*
X119099000Y-89598000D02*
X119424000Y-89598000D01*
X119111500Y-90548000D02*
X119436500Y-90548000D01*
X119186500Y-83610500D02*
X118805250Y-83229250D01*
X119224000Y-83423000D02*
X118949000Y-83098000D01*
X120524000Y-80648000D02*
X120849000Y-80648000D01*
X120524000Y-81598000D02*
X120849000Y-81598000D01*
X120524000Y-89598000D02*
X120849000Y-89598000D01*
X120536500Y-90548000D02*
X120861500Y-90548000D01*
X120599000Y-87623000D02*
X118674000Y-87623000D01*
X120699000Y-87498000D02*
X120999000Y-87848000D01*
X120774000Y-88098000D02*
X120899000Y-87973000D01*
X120874000Y-85823000D02*
X118949000Y-85823000D01*
X120899000Y-85248000D02*
X121086500Y-85585500D01*
X120899000Y-87973000D02*
X120599000Y-87623000D01*
X120911500Y-86010500D02*
X120699000Y-87498000D01*
X120911500Y-86010500D02*
X121199000Y-85673000D01*
X120999000Y-85098000D02*
X121224000Y-85498000D01*
X121005250Y-87854250D02*
X121211500Y-87660500D01*
X121086500Y-85585500D02*
X120874000Y-85823000D01*
X121149000Y-83423000D02*
X119224000Y-83423000D01*
X121199000Y-85673000D02*
X121424000Y-85998000D01*
X121224000Y-83573000D02*
X120999000Y-85098000D01*
X121224000Y-85498000D02*
X121524000Y-85223000D01*
X121324000Y-82948000D02*
X121449000Y-83073000D01*
X121424000Y-85998000D02*
X121211500Y-87660500D01*
X121449000Y-83073000D02*
X121149000Y-83423000D01*
X121524000Y-85223000D02*
X121749000Y-83348000D01*
X121549000Y-83173000D02*
X121224000Y-83573000D01*
X121549000Y-83173000D02*
X121749000Y-83348000D01*
X121974000Y-80648000D02*
X122299000Y-80648000D01*
X121974000Y-81598000D02*
X122299000Y-81598000D01*
X121974000Y-89598000D02*
X122299000Y-89598000D01*
X121986500Y-90548000D02*
X122311500Y-90548000D01*
X123374000Y-80648000D02*
X123549000Y-80648000D01*
X123374000Y-89598000D02*
X123549000Y-89598000D01*
X123386500Y-90548000D02*
X123561500Y-90548000D01*
X123399000Y-81598000D02*
X123549000Y-81598000D01*
X123549000Y-81598000D02*
X123549000Y-89598000D01*
X117250556Y-91173000D02*
G75*
G02*
X116847444Y-91173000I-201556J0D01*
G01*
X116847444Y-91173000D02*
G75*
G02*
X117250556Y-91173000I201556J0D01*
G01*
X122550040Y-87873000D02*
G75*
G02*
X121947960Y-87873000I-301040J0D01*
G01*
X121947960Y-87873000D02*
G75*
G02*
X122550040Y-87873000I301040J0D01*
G01*
D13*
%TO.C,G\u002A\u002A\u002A*%
G36*
X88402241Y-98583092D02*
G01*
X88398334Y-98586999D01*
X88394428Y-98583092D01*
X88398334Y-98579186D01*
X88402241Y-98583092D01*
G37*
G36*
X88407415Y-98530355D02*
G01*
X88408447Y-98546351D01*
X88407415Y-98549887D01*
X88404563Y-98550869D01*
X88403474Y-98540121D01*
X88404702Y-98529029D01*
X88407415Y-98530355D01*
G37*
G36*
X88415262Y-98573977D02*
G01*
X88416197Y-98583249D01*
X88415262Y-98584394D01*
X88410617Y-98583322D01*
X88410054Y-98579186D01*
X88412912Y-98572755D01*
X88415262Y-98573977D01*
G37*
G36*
X87011793Y-98668799D02*
G01*
X87040096Y-98681509D01*
X87053429Y-98690165D01*
X87064127Y-98699059D01*
X87072482Y-98709923D01*
X87078782Y-98724487D01*
X87083317Y-98744483D01*
X87086376Y-98771642D01*
X87088251Y-98807694D01*
X87089230Y-98854372D01*
X87089603Y-98913406D01*
X87089660Y-98977648D01*
X87089580Y-99048617D01*
X87089167Y-99105733D01*
X87088157Y-99150767D01*
X87086288Y-99185491D01*
X87083298Y-99211677D01*
X87078924Y-99231097D01*
X87072904Y-99245522D01*
X87064976Y-99256726D01*
X87054876Y-99266479D01*
X87045791Y-99273851D01*
X87015965Y-99287603D01*
X86991998Y-99290167D01*
X86956393Y-99284074D01*
X86938204Y-99273851D01*
X86926232Y-99263942D01*
X86916663Y-99253885D01*
X86909226Y-99241892D01*
X86903655Y-99226173D01*
X86903203Y-99223757D01*
X87066221Y-99223757D01*
X87070127Y-99227663D01*
X87074034Y-99223757D01*
X87070127Y-99219850D01*
X87066221Y-99223757D01*
X86903203Y-99223757D01*
X86899679Y-99204938D01*
X86897031Y-99176398D01*
X86895442Y-99138762D01*
X86894642Y-99090242D01*
X86894364Y-99029047D01*
X86894335Y-98981691D01*
X86894464Y-98909101D01*
X86895034Y-98850430D01*
X86896320Y-98803973D01*
X86898594Y-98768027D01*
X86902132Y-98740884D01*
X86907208Y-98720840D01*
X86914096Y-98706189D01*
X86923070Y-98695227D01*
X86934404Y-98686249D01*
X86942696Y-98680955D01*
X86977465Y-98667122D01*
X87011793Y-98668799D01*
G37*
G36*
X88429969Y-98620278D02*
G01*
X88434163Y-98627772D01*
X88442492Y-98643776D01*
X88444197Y-98647120D01*
X88451931Y-98664118D01*
X88450807Y-98673754D01*
X88439177Y-98682527D01*
X88434530Y-98685291D01*
X88406410Y-98710496D01*
X88390234Y-98744880D01*
X88386615Y-98774535D01*
X88393009Y-98816948D01*
X88410471Y-98851560D01*
X88436423Y-98877333D01*
X88468285Y-98893228D01*
X88503478Y-98898207D01*
X88539424Y-98891232D01*
X88573543Y-98871263D01*
X88588634Y-98856547D01*
X88605378Y-98856547D01*
X88609285Y-98860453D01*
X88613191Y-98856547D01*
X88609285Y-98852640D01*
X88605378Y-98856547D01*
X88588634Y-98856547D01*
X88589123Y-98856070D01*
X88604623Y-98839744D01*
X88615813Y-98830306D01*
X88620470Y-98829274D01*
X88617151Y-98836928D01*
X88617169Y-98848340D01*
X88623160Y-98867057D01*
X88625576Y-98872471D01*
X88635071Y-98908744D01*
X88634292Y-98951932D01*
X88624171Y-98998060D01*
X88605642Y-99043153D01*
X88579638Y-99083239D01*
X88574720Y-99089067D01*
X88536108Y-99121998D01*
X88488272Y-99145769D01*
X88435385Y-99159259D01*
X88381622Y-99161349D01*
X88336925Y-99152876D01*
X88300345Y-99134660D01*
X88263679Y-99104980D01*
X88230762Y-99067499D01*
X88206667Y-99028432D01*
X88197711Y-99008384D01*
X88192051Y-98989163D01*
X88188990Y-98966305D01*
X88187831Y-98935345D01*
X88187774Y-98907331D01*
X88188451Y-98867862D01*
X88190569Y-98839216D01*
X88194924Y-98816602D01*
X88202312Y-98795232D01*
X88208899Y-98780215D01*
X88242277Y-98725335D01*
X88267627Y-98700287D01*
X88394428Y-98700287D01*
X88398334Y-98704193D01*
X88402241Y-98700287D01*
X88398334Y-98696380D01*
X88394428Y-98700287D01*
X88267627Y-98700287D01*
X88286703Y-98681439D01*
X88341729Y-98648921D01*
X88368147Y-98638668D01*
X88396139Y-98629528D01*
X88417630Y-98623027D01*
X88429039Y-98620227D01*
X88429969Y-98620278D01*
G37*
G36*
X88609634Y-97975206D02*
G01*
X88715450Y-97999967D01*
X88796630Y-98029409D01*
X88892111Y-98077639D01*
X88981990Y-98139468D01*
X89064850Y-98213444D01*
X89139274Y-98298111D01*
X89203844Y-98392015D01*
X89257144Y-98493702D01*
X89263865Y-98509034D01*
X89304000Y-98621330D01*
X89330020Y-98736076D01*
X89342274Y-98851902D01*
X89341114Y-98967439D01*
X89326891Y-99081315D01*
X89299954Y-99192162D01*
X89260654Y-99298609D01*
X89209342Y-99399286D01*
X89146369Y-99492822D01*
X89072084Y-99577849D01*
X88986839Y-99652995D01*
X88967453Y-99667483D01*
X88928457Y-99692382D01*
X88879193Y-99718827D01*
X88824553Y-99744574D01*
X88769426Y-99767382D01*
X88718706Y-99785008D01*
X88699134Y-99790520D01*
X88659566Y-99798256D01*
X88609698Y-99804537D01*
X88554661Y-99809039D01*
X88499586Y-99811441D01*
X88449604Y-99811420D01*
X88410054Y-99808680D01*
X88389537Y-99805154D01*
X88359563Y-99798927D01*
X88325807Y-99791196D01*
X88317544Y-99789194D01*
X88216878Y-99756613D01*
X88122279Y-99710229D01*
X88034554Y-99650953D01*
X87954514Y-99579698D01*
X87882965Y-99497375D01*
X87820717Y-99404895D01*
X87768579Y-99303171D01*
X87727358Y-99193113D01*
X87701751Y-99094843D01*
X87695605Y-99054792D01*
X87691157Y-99003391D01*
X87688455Y-98944825D01*
X87687690Y-98892909D01*
X87905843Y-98892909D01*
X87906390Y-98925545D01*
X87906736Y-98938583D01*
X87910854Y-99008494D01*
X87918791Y-99068020D01*
X87924812Y-99095817D01*
X87956113Y-99186957D01*
X88001480Y-99273820D01*
X88059463Y-99353985D01*
X88114046Y-99411750D01*
X88181920Y-99465119D01*
X88258616Y-99507139D01*
X88341617Y-99537209D01*
X88428407Y-99554732D01*
X88516469Y-99559108D01*
X88603285Y-99549739D01*
X88648350Y-99538874D01*
X88728938Y-99507410D01*
X88805162Y-99461872D01*
X88875602Y-99403530D01*
X88938836Y-99333657D01*
X88993443Y-99253524D01*
X89018003Y-99208131D01*
X89041377Y-99157624D01*
X89058318Y-99111506D01*
X89070448Y-99064053D01*
X89079388Y-99009540D01*
X89083121Y-98978288D01*
X89087157Y-98934749D01*
X89088229Y-98899553D01*
X89086176Y-98865670D01*
X89080839Y-98826071D01*
X89079466Y-98817482D01*
X89071293Y-98774926D01*
X89060539Y-98730292D01*
X89047993Y-98685751D01*
X89034442Y-98643470D01*
X89020672Y-98605619D01*
X89007469Y-98574367D01*
X88995623Y-98551884D01*
X88985918Y-98540338D01*
X88979356Y-98541545D01*
X88974264Y-98545744D01*
X88972708Y-98535653D01*
X88967165Y-98498878D01*
X88950383Y-98461106D01*
X88921311Y-98420504D01*
X88883526Y-98379782D01*
X88817231Y-98323013D01*
X88746944Y-98280591D01*
X88670697Y-98251364D01*
X88657498Y-98247754D01*
X88630594Y-98241479D01*
X88611495Y-98240026D01*
X88593065Y-98243648D01*
X88573047Y-98250732D01*
X88543572Y-98264206D01*
X88514814Y-98280868D01*
X88505301Y-98287550D01*
X88486886Y-98300232D01*
X88473341Y-98307065D01*
X88470023Y-98307464D01*
X88467167Y-98310356D01*
X88468743Y-98313693D01*
X88468913Y-98324846D01*
X88461727Y-98336313D01*
X88452007Y-98341579D01*
X88448773Y-98340676D01*
X88439681Y-98342418D01*
X88436732Y-98345876D01*
X88435680Y-98351356D01*
X88440098Y-98349449D01*
X88447721Y-98347627D01*
X88446498Y-98357378D01*
X88436334Y-98379248D01*
X88434262Y-98383175D01*
X88424718Y-98399668D01*
X88418649Y-98403777D01*
X88412752Y-98397196D01*
X88411389Y-98394895D01*
X88404690Y-98386413D01*
X88402478Y-98388158D01*
X88407124Y-98400951D01*
X88409429Y-98403784D01*
X88412473Y-98414864D01*
X88413479Y-98436684D01*
X88412282Y-98463735D01*
X88409537Y-98491614D01*
X88406210Y-98507115D01*
X88400961Y-98513465D01*
X88392452Y-98513891D01*
X88391536Y-98513758D01*
X88363210Y-98514966D01*
X88327032Y-98524438D01*
X88287126Y-98540403D01*
X88247618Y-98561091D01*
X88212635Y-98584731D01*
X88198809Y-98596469D01*
X88164577Y-98632226D01*
X88137920Y-98670260D01*
X88115455Y-98715860D01*
X88104332Y-98744252D01*
X88086692Y-98801597D01*
X88077167Y-98857880D01*
X88075733Y-98916507D01*
X88082367Y-98980883D01*
X88097043Y-99054411D01*
X88102003Y-99074767D01*
X88104064Y-99087378D01*
X88099320Y-99093166D01*
X88084102Y-99094776D01*
X88074171Y-99094843D01*
X88044116Y-99088842D01*
X88019272Y-99070468D01*
X87999375Y-99039164D01*
X87984163Y-98994371D01*
X87973374Y-98935532D01*
X87967036Y-98867007D01*
X87964563Y-98834512D01*
X87961666Y-98808816D01*
X87958776Y-98793248D01*
X87957113Y-98790136D01*
X87949677Y-98797031D01*
X87940389Y-98814817D01*
X87930855Y-98839147D01*
X87922682Y-98865675D01*
X87917475Y-98890053D01*
X87916487Y-98900063D01*
X87915630Y-98917853D01*
X87914587Y-98922860D01*
X87912857Y-98914198D01*
X87909940Y-98890983D01*
X87909560Y-98887799D01*
X87907432Y-98873978D01*
X87906192Y-98875700D01*
X87905843Y-98892909D01*
X87687690Y-98892909D01*
X87687548Y-98883282D01*
X87688486Y-98822950D01*
X87691320Y-98768016D01*
X87696098Y-98722667D01*
X87697257Y-98715315D01*
X87703434Y-98688568D01*
X87925649Y-98688568D01*
X87928507Y-98694998D01*
X87930857Y-98693776D01*
X87931793Y-98684504D01*
X87930857Y-98683359D01*
X87926213Y-98684431D01*
X87925649Y-98688568D01*
X87703434Y-98688568D01*
X87713358Y-98645596D01*
X87941275Y-98645596D01*
X87945181Y-98649503D01*
X87949088Y-98645596D01*
X87945181Y-98641690D01*
X87941275Y-98645596D01*
X87713358Y-98645596D01*
X87717869Y-98626064D01*
X87949088Y-98626064D01*
X87951946Y-98632495D01*
X87954296Y-98631272D01*
X87955231Y-98622000D01*
X87954296Y-98620855D01*
X87949652Y-98621927D01*
X87949088Y-98626064D01*
X87717869Y-98626064D01*
X87721041Y-98612326D01*
X87728466Y-98590905D01*
X87956901Y-98590905D01*
X87960807Y-98594812D01*
X87964714Y-98590905D01*
X87960807Y-98586999D01*
X87956901Y-98590905D01*
X87728466Y-98590905D01*
X87731174Y-98583092D01*
X87972527Y-98583092D01*
X87976433Y-98586999D01*
X87980340Y-98583092D01*
X87976433Y-98579186D01*
X87972527Y-98583092D01*
X87731174Y-98583092D01*
X87743360Y-98547934D01*
X87988153Y-98547934D01*
X87991011Y-98554365D01*
X87993361Y-98553143D01*
X87994296Y-98543870D01*
X87993361Y-98542725D01*
X87988717Y-98543798D01*
X87988153Y-98547934D01*
X87743360Y-98547934D01*
X87752839Y-98520588D01*
X87995966Y-98520588D01*
X87999872Y-98524495D01*
X88003779Y-98520588D01*
X87999872Y-98516682D01*
X87995966Y-98520588D01*
X87752839Y-98520588D01*
X87756850Y-98509015D01*
X87758731Y-98504962D01*
X88011592Y-98504962D01*
X88015498Y-98508869D01*
X88019405Y-98504962D01*
X88015498Y-98501056D01*
X88011592Y-98504962D01*
X87758731Y-98504962D01*
X87767796Y-98485430D01*
X88023311Y-98485430D01*
X88023931Y-98492630D01*
X88026756Y-98493243D01*
X88034713Y-98487571D01*
X88035031Y-98485430D01*
X88032365Y-98477820D01*
X88031585Y-98477617D01*
X88024915Y-98483092D01*
X88023311Y-98485430D01*
X87767796Y-98485430D01*
X87776862Y-98465898D01*
X88035031Y-98465898D01*
X88038937Y-98469804D01*
X88386615Y-98469804D01*
X88389473Y-98476235D01*
X88391823Y-98475013D01*
X88392758Y-98465741D01*
X88391823Y-98464595D01*
X88387179Y-98465668D01*
X88386615Y-98469804D01*
X88038937Y-98469804D01*
X88042844Y-98465898D01*
X88038937Y-98461991D01*
X88035031Y-98465898D01*
X87776862Y-98465898D01*
X87802730Y-98410164D01*
X87811517Y-98395581D01*
X88097534Y-98395581D01*
X88101441Y-98399487D01*
X88105347Y-98395581D01*
X88101441Y-98391674D01*
X88097534Y-98395581D01*
X87811517Y-98395581D01*
X87818579Y-98383861D01*
X88113160Y-98383861D01*
X88116019Y-98390292D01*
X88118369Y-98389070D01*
X88119304Y-98379798D01*
X88118369Y-98378653D01*
X88113724Y-98379725D01*
X88113160Y-98383861D01*
X87818579Y-98383861D01*
X87830347Y-98364329D01*
X88425680Y-98364329D01*
X88429586Y-98368235D01*
X88433493Y-98364329D01*
X88429586Y-98360422D01*
X88425680Y-98364329D01*
X87830347Y-98364329D01*
X87844470Y-98340890D01*
X88378802Y-98340890D01*
X88382708Y-98344796D01*
X88386615Y-98340890D01*
X88382708Y-98336983D01*
X88378802Y-98340890D01*
X87844470Y-98340890D01*
X87849178Y-98333077D01*
X88175664Y-98333077D01*
X88179571Y-98336983D01*
X88183477Y-98333077D01*
X88179571Y-98329170D01*
X88175664Y-98333077D01*
X87849178Y-98333077D01*
X87856722Y-98320557D01*
X87861605Y-98313544D01*
X87876892Y-98294012D01*
X88245981Y-98294012D01*
X88249888Y-98297918D01*
X88253794Y-98294012D01*
X88249888Y-98290106D01*
X88245981Y-98294012D01*
X87876892Y-98294012D01*
X87884721Y-98284009D01*
X88465899Y-98284009D01*
X88467859Y-98288152D01*
X88474241Y-98296664D01*
X88480909Y-98294086D01*
X88489180Y-98284246D01*
X88495907Y-98275015D01*
X88492158Y-98276683D01*
X88487465Y-98280271D01*
X88474620Y-98285730D01*
X88468633Y-98284178D01*
X88465899Y-98284009D01*
X87884721Y-98284009D01*
X87889122Y-98278386D01*
X88449119Y-98278386D01*
X88453025Y-98282293D01*
X88456932Y-98278386D01*
X88453025Y-98274480D01*
X88449119Y-98278386D01*
X87889122Y-98278386D01*
X87894892Y-98271014D01*
X87895290Y-98270573D01*
X88503809Y-98270573D01*
X88507716Y-98274480D01*
X88511622Y-98270573D01*
X88507716Y-98266667D01*
X88503809Y-98270573D01*
X87895290Y-98270573D01*
X87916869Y-98246691D01*
X88506318Y-98246691D01*
X88511622Y-98251041D01*
X88525866Y-98257652D01*
X88531155Y-98258614D01*
X88532552Y-98255390D01*
X88527248Y-98251041D01*
X88513005Y-98244429D01*
X88507716Y-98243467D01*
X88506318Y-98246691D01*
X87916869Y-98246691D01*
X87923528Y-98239321D01*
X88550687Y-98239321D01*
X88554594Y-98243228D01*
X88558500Y-98239321D01*
X88554594Y-98235415D01*
X88550687Y-98239321D01*
X87923528Y-98239321D01*
X87930588Y-98231508D01*
X88527248Y-98231508D01*
X88531155Y-98235415D01*
X88535061Y-98231508D01*
X88531155Y-98227602D01*
X88527248Y-98231508D01*
X87930588Y-98231508D01*
X87936534Y-98224928D01*
X87982837Y-98178847D01*
X88030109Y-98136333D01*
X88074656Y-98100947D01*
X88099756Y-98083858D01*
X88197838Y-98031237D01*
X88298267Y-97994030D01*
X88400642Y-97972269D01*
X88504565Y-97965984D01*
X88609634Y-97975206D01*
G37*
G36*
X87959319Y-97269824D02*
G01*
X88133586Y-97287106D01*
X88308453Y-97318771D01*
X88483024Y-97364868D01*
X88531155Y-97380179D01*
X88681297Y-97437380D01*
X88826089Y-97507768D01*
X88963898Y-97590264D01*
X89093085Y-97683785D01*
X89212016Y-97787252D01*
X89319055Y-97899584D01*
X89321118Y-97901978D01*
X89419762Y-98026630D01*
X89503317Y-98154084D01*
X89572204Y-98285411D01*
X89626846Y-98421684D01*
X89667664Y-98563974D01*
X89695080Y-98713353D01*
X89709515Y-98870893D01*
X89710447Y-98891705D01*
X89711875Y-98962954D01*
X89710778Y-99035258D01*
X89707371Y-99104926D01*
X89701866Y-99168267D01*
X89694477Y-99221592D01*
X89690155Y-99243289D01*
X89688629Y-99257541D01*
X89687069Y-99286529D01*
X89685493Y-99329366D01*
X89683920Y-99385160D01*
X89682369Y-99453025D01*
X89680860Y-99532069D01*
X89679412Y-99621405D01*
X89678044Y-99720143D01*
X89676775Y-99827395D01*
X89676067Y-99895673D01*
X89674935Y-100009001D01*
X89673894Y-100107845D01*
X89672909Y-100193345D01*
X89671943Y-100266641D01*
X89670958Y-100328874D01*
X89669918Y-100381185D01*
X89668787Y-100424714D01*
X89667528Y-100460603D01*
X89666104Y-100489991D01*
X89664478Y-100514020D01*
X89662614Y-100533830D01*
X89660475Y-100550562D01*
X89658024Y-100565355D01*
X89655224Y-100579352D01*
X89653868Y-100585575D01*
X89614654Y-100729741D01*
X89562586Y-100865843D01*
X89497218Y-100994667D01*
X89418101Y-101116998D01*
X89324789Y-101233621D01*
X89227034Y-101335574D01*
X89193957Y-101366796D01*
X89161345Y-101396465D01*
X89132443Y-101421699D01*
X89110501Y-101439618D01*
X89106097Y-101442895D01*
X89068685Y-101469773D01*
X89064043Y-101784353D01*
X89062575Y-101874174D01*
X89060909Y-101950261D01*
X89058848Y-102014505D01*
X89056193Y-102068797D01*
X89052747Y-102115030D01*
X89048309Y-102155093D01*
X89042684Y-102190880D01*
X89035671Y-102224281D01*
X89027074Y-102257188D01*
X89016693Y-102291493D01*
X89008142Y-102317702D01*
X88956707Y-102447765D01*
X88891501Y-102570856D01*
X88813094Y-102686216D01*
X88722054Y-102793086D01*
X88618949Y-102890705D01*
X88524499Y-102964242D01*
X88460579Y-103008129D01*
X88402976Y-103043824D01*
X88346787Y-103074013D01*
X88287113Y-103101385D01*
X88237997Y-103121340D01*
X88136420Y-103157406D01*
X88034314Y-103186146D01*
X87924852Y-103209443D01*
X87906116Y-103212805D01*
X87846203Y-103221077D01*
X87775112Y-103227284D01*
X87697166Y-103231331D01*
X87616687Y-103233123D01*
X87537999Y-103232565D01*
X87465426Y-103229562D01*
X87403289Y-103224019D01*
X87402179Y-103223881D01*
X87243909Y-103198962D01*
X87096586Y-103164776D01*
X86958011Y-103120501D01*
X86825983Y-103065314D01*
X86698302Y-102998392D01*
X86572767Y-102918913D01*
X86570835Y-102917572D01*
X87363114Y-102917572D01*
X87370333Y-102924260D01*
X87390039Y-102932708D01*
X87419308Y-102942096D01*
X87455215Y-102951609D01*
X87494836Y-102960428D01*
X87535246Y-102967735D01*
X87550626Y-102970003D01*
X87588609Y-102973349D01*
X87637454Y-102974940D01*
X87693026Y-102974906D01*
X87751191Y-102973375D01*
X87807817Y-102970477D01*
X87858769Y-102966340D01*
X87899914Y-102961094D01*
X87912731Y-102958707D01*
X88038348Y-102926456D01*
X88152196Y-102885209D01*
X88255795Y-102834185D01*
X88350668Y-102772604D01*
X88438337Y-102699686D01*
X88461678Y-102677252D01*
X88493709Y-102643749D01*
X88525795Y-102607147D01*
X88553849Y-102572271D01*
X88571175Y-102548041D01*
X88591108Y-102514380D01*
X88609571Y-102477611D01*
X88625242Y-102441082D01*
X88636801Y-102408143D01*
X88642928Y-102382140D01*
X88642559Y-102367029D01*
X88633462Y-102358813D01*
X88613492Y-102347792D01*
X88586607Y-102336088D01*
X88580677Y-102333826D01*
X88481149Y-102305007D01*
X88378387Y-102291465D01*
X88272441Y-102293198D01*
X88163361Y-102310208D01*
X88064475Y-102337927D01*
X87928141Y-102390737D01*
X87803370Y-102453472D01*
X87690395Y-102525968D01*
X87589446Y-102608062D01*
X87500757Y-102699591D01*
X87441262Y-102775978D01*
X87415020Y-102814933D01*
X87392615Y-102851577D01*
X87375558Y-102883170D01*
X87365361Y-102906974D01*
X87363114Y-102917572D01*
X86570835Y-102917572D01*
X86556519Y-102907635D01*
X86513339Y-102874561D01*
X86464026Y-102832173D01*
X86411647Y-102783519D01*
X86359269Y-102731646D01*
X86309962Y-102679602D01*
X86273460Y-102638029D01*
X86605255Y-102638029D01*
X86609162Y-102641936D01*
X86613068Y-102638029D01*
X86609162Y-102634123D01*
X86605255Y-102638029D01*
X86273460Y-102638029D01*
X86266791Y-102630434D01*
X86232825Y-102587190D01*
X86230074Y-102583338D01*
X86220213Y-102567712D01*
X86503686Y-102567712D01*
X86507593Y-102571619D01*
X86511499Y-102567712D01*
X86507593Y-102563806D01*
X86503686Y-102567712D01*
X86220213Y-102567712D01*
X86156605Y-102466920D01*
X86097404Y-102346084D01*
X86052839Y-102221792D01*
X86023278Y-102095002D01*
X86012776Y-102016897D01*
X86011578Y-101996207D01*
X86010543Y-101961343D01*
X86009679Y-101913755D01*
X86009170Y-101869924D01*
X86249710Y-101869924D01*
X86250123Y-101971376D01*
X86264520Y-102073994D01*
X86292801Y-102176546D01*
X86334864Y-102277802D01*
X86390608Y-102376528D01*
X86399389Y-102389915D01*
X86416415Y-102413364D01*
X86439538Y-102442361D01*
X86466787Y-102474734D01*
X86496187Y-102508312D01*
X86525766Y-102540924D01*
X86553551Y-102570400D01*
X86577568Y-102594568D01*
X86595844Y-102611257D01*
X86606406Y-102618296D01*
X86607046Y-102618389D01*
X86608887Y-102611040D01*
X86610390Y-102590619D01*
X86611459Y-102559679D01*
X86611997Y-102520773D01*
X86611994Y-102487629D01*
X86612139Y-102431169D01*
X86613437Y-102387411D01*
X86613884Y-102381683D01*
X86994784Y-102381683D01*
X86994868Y-102448076D01*
X87007870Y-102519372D01*
X87033457Y-102594163D01*
X87071296Y-102671038D01*
X87102519Y-102721780D01*
X87138738Y-102776261D01*
X87167017Y-102722771D01*
X87185276Y-102689805D01*
X87205320Y-102655994D01*
X87221784Y-102630216D01*
X87286238Y-102546087D01*
X87363955Y-102463213D01*
X87452586Y-102383489D01*
X87549781Y-102308808D01*
X87653190Y-102241065D01*
X87760463Y-102182154D01*
X87802510Y-102162132D01*
X87838690Y-102147333D01*
X87886512Y-102130247D01*
X87942367Y-102111994D01*
X88002647Y-102093696D01*
X88063743Y-102076474D01*
X88122047Y-102061449D01*
X88141137Y-102056914D01*
X88259599Y-102036004D01*
X88372522Y-102029326D01*
X88479644Y-102036842D01*
X88580706Y-102058517D01*
X88675448Y-102094313D01*
X88763591Y-102144184D01*
X88816329Y-102179582D01*
X88816329Y-101887289D01*
X88816186Y-101821448D01*
X88815781Y-101760788D01*
X88815145Y-101707022D01*
X88814311Y-101661858D01*
X88813311Y-101627007D01*
X88812177Y-101604180D01*
X88810941Y-101595085D01*
X88810805Y-101594996D01*
X88802139Y-101597338D01*
X88780737Y-101603917D01*
X88748697Y-101614064D01*
X88708119Y-101627111D01*
X88661101Y-101642388D01*
X88625247Y-101654128D01*
X88530833Y-101685115D01*
X88437584Y-101715673D01*
X88347192Y-101745252D01*
X88261347Y-101773300D01*
X88181740Y-101799266D01*
X88110064Y-101822597D01*
X88048008Y-101842743D01*
X87997264Y-101859152D01*
X87959523Y-101871272D01*
X87956901Y-101872109D01*
X87902279Y-101889637D01*
X87840906Y-101909534D01*
X87774748Y-101931143D01*
X87705775Y-101953810D01*
X87635953Y-101976879D01*
X87567251Y-101999695D01*
X87501635Y-102021604D01*
X87441075Y-102041949D01*
X87387538Y-102060075D01*
X87342991Y-102075329D01*
X87309403Y-102087053D01*
X87288968Y-102094505D01*
X87218974Y-102125725D01*
X87155448Y-102162448D01*
X87100309Y-102203124D01*
X87055472Y-102246207D01*
X87022852Y-102290147D01*
X87007951Y-102321604D01*
X86994784Y-102381683D01*
X86613884Y-102381683D01*
X86616086Y-102353460D01*
X86620284Y-102326421D01*
X86624097Y-102310604D01*
X86651703Y-102238462D01*
X86692979Y-102167962D01*
X86745974Y-102101217D01*
X86808738Y-102040341D01*
X86879323Y-101987450D01*
X86955777Y-101944656D01*
X86965846Y-101940034D01*
X86985569Y-101931765D01*
X87013176Y-101921137D01*
X87049348Y-101907919D01*
X87094768Y-101891879D01*
X87150120Y-101872788D01*
X87216087Y-101850412D01*
X87293351Y-101824522D01*
X87382596Y-101794885D01*
X87484505Y-101761271D01*
X87599760Y-101723448D01*
X87729045Y-101681185D01*
X87765483Y-101669297D01*
X87924014Y-101617542D01*
X88068067Y-101570404D01*
X88198050Y-101527745D01*
X88314372Y-101489429D01*
X88417439Y-101455320D01*
X88507660Y-101425280D01*
X88585443Y-101399174D01*
X88651196Y-101376864D01*
X88705327Y-101358215D01*
X88748243Y-101343089D01*
X88780353Y-101331351D01*
X88802064Y-101322863D01*
X88808050Y-101320293D01*
X88894717Y-101274126D01*
X88980603Y-101214557D01*
X89063765Y-101143765D01*
X89142259Y-101063930D01*
X89214142Y-100977232D01*
X89277470Y-100885852D01*
X89330301Y-100791969D01*
X89370691Y-100697763D01*
X89375576Y-100683678D01*
X89386125Y-100651512D01*
X89394859Y-100622369D01*
X89401971Y-100594323D01*
X89407655Y-100565447D01*
X89412104Y-100533816D01*
X89415514Y-100497503D01*
X89418076Y-100454581D01*
X89419984Y-100403125D01*
X89421433Y-100341208D01*
X89422616Y-100266904D01*
X89423368Y-100208192D01*
X89424128Y-100139378D01*
X89424702Y-100074389D01*
X89425082Y-100015136D01*
X89425264Y-99963530D01*
X89425240Y-99921483D01*
X89425005Y-99890907D01*
X89424553Y-99873712D01*
X89424452Y-99872234D01*
X89421835Y-99840982D01*
X89387338Y-99899580D01*
X89315781Y-100014753D01*
X89244925Y-100115499D01*
X89173696Y-100202913D01*
X89101025Y-100278093D01*
X89025838Y-100342136D01*
X88947064Y-100396138D01*
X88863631Y-100441196D01*
X88853374Y-100445999D01*
X88823688Y-100458603D01*
X88779364Y-100475806D01*
X88720671Y-100497515D01*
X88647875Y-100523635D01*
X88561245Y-100554075D01*
X88461048Y-100588739D01*
X88347552Y-100627535D01*
X88221023Y-100670369D01*
X88081730Y-100717147D01*
X87984246Y-100749699D01*
X87813861Y-100806561D01*
X87657921Y-100858780D01*
X87515996Y-100906506D01*
X87387658Y-100949886D01*
X87272477Y-100989070D01*
X87170026Y-101024207D01*
X87079875Y-101055446D01*
X87001596Y-101082935D01*
X86934759Y-101106824D01*
X86878936Y-101127262D01*
X86833699Y-101144396D01*
X86798617Y-101158377D01*
X86773263Y-101169354D01*
X86766510Y-101172561D01*
X86678338Y-101223070D01*
X86591711Y-101286402D01*
X86509515Y-101359811D01*
X86434632Y-101440551D01*
X86369948Y-101525877D01*
X86333386Y-101584891D01*
X86291240Y-101675450D01*
X86263382Y-101770872D01*
X86249710Y-101869924D01*
X86009170Y-101869924D01*
X86008996Y-101854896D01*
X86008503Y-101786216D01*
X86008210Y-101709166D01*
X86008126Y-101625197D01*
X86008259Y-101535760D01*
X86008619Y-101442307D01*
X86008855Y-101399672D01*
X86009524Y-101290024D01*
X86010168Y-101194787D01*
X86010885Y-101112746D01*
X86011771Y-101042685D01*
X86012922Y-100983389D01*
X86014436Y-100933645D01*
X86016409Y-100892235D01*
X86018937Y-100857947D01*
X86022116Y-100829564D01*
X86026044Y-100805871D01*
X86030817Y-100785655D01*
X86036531Y-100767699D01*
X86043283Y-100750788D01*
X86051170Y-100733708D01*
X86060287Y-100715244D01*
X86063791Y-100708223D01*
X86090832Y-100659948D01*
X86119427Y-100619581D01*
X86147553Y-100589700D01*
X86167963Y-100575281D01*
X86187992Y-100566228D01*
X86202385Y-100565575D01*
X86217714Y-100574241D01*
X86229633Y-100583910D01*
X86253671Y-100604137D01*
X86253671Y-100934305D01*
X86253671Y-101264473D01*
X86294852Y-101224644D01*
X86358373Y-101165378D01*
X86420246Y-101112584D01*
X86482526Y-101065081D01*
X86547266Y-101021690D01*
X86616523Y-100981228D01*
X86692350Y-100942516D01*
X86776802Y-100904372D01*
X86871934Y-100865617D01*
X86979800Y-100825070D01*
X87007866Y-100814920D01*
X87048771Y-100800012D01*
X87090668Y-100784387D01*
X87127684Y-100770253D01*
X87147011Y-100762642D01*
X87200455Y-100741154D01*
X87045442Y-100664789D01*
X86968163Y-100625763D01*
X86902118Y-100590071D01*
X86843895Y-100555594D01*
X86790082Y-100520216D01*
X86737269Y-100481819D01*
X86687064Y-100442357D01*
X86566028Y-100334656D01*
X86454910Y-100215898D01*
X86354618Y-100087496D01*
X86266063Y-99950860D01*
X86190155Y-99807400D01*
X86127805Y-99658527D01*
X86079921Y-99505652D01*
X86077995Y-99498212D01*
X86055134Y-99402487D01*
X86038561Y-99317561D01*
X86027706Y-99240188D01*
X86022940Y-99184585D01*
X86020549Y-99147977D01*
X86018011Y-99112763D01*
X86015779Y-99085152D01*
X86015258Y-99079492D01*
X86014392Y-99054784D01*
X86261777Y-99054784D01*
X86272546Y-99205270D01*
X86298077Y-99355846D01*
X86338491Y-99505513D01*
X86343963Y-99522214D01*
X86401064Y-99670247D01*
X86470184Y-99808739D01*
X86550783Y-99937227D01*
X86642317Y-100055253D01*
X86744246Y-100162355D01*
X86856027Y-100258072D01*
X86977118Y-100341944D01*
X87106978Y-100413509D01*
X87245064Y-100472308D01*
X87390835Y-100517880D01*
X87543749Y-100549763D01*
X87554532Y-100551444D01*
X87601696Y-100556730D01*
X87660325Y-100560360D01*
X87726345Y-100562333D01*
X87795683Y-100562644D01*
X87864264Y-100561292D01*
X87928017Y-100558272D01*
X87982867Y-100553583D01*
X87997650Y-100551760D01*
X88058250Y-100542923D01*
X88111970Y-100533439D01*
X88163887Y-100522183D01*
X88219077Y-100508027D01*
X88282616Y-100489847D01*
X88299804Y-100484720D01*
X88384524Y-100457857D01*
X88457639Y-100431226D01*
X88523044Y-100403090D01*
X88584637Y-100371716D01*
X88646314Y-100335368D01*
X88671788Y-100319107D01*
X88694697Y-100303730D01*
X88705201Y-100295162D01*
X88704347Y-100292257D01*
X88695227Y-100293434D01*
X88574639Y-100312684D01*
X88453824Y-100321341D01*
X88336759Y-100319268D01*
X88243007Y-100308941D01*
X88130155Y-100284001D01*
X88017170Y-100245583D01*
X87908089Y-100195265D01*
X87820174Y-100143478D01*
X87790817Y-100122292D01*
X87757259Y-100095090D01*
X87722279Y-100064468D01*
X87688656Y-100033023D01*
X87659168Y-100003352D01*
X87636594Y-99978051D01*
X87623890Y-99960060D01*
X87617720Y-99935511D01*
X87625796Y-99915914D01*
X87646959Y-99903604D01*
X87652619Y-99902229D01*
X87668825Y-99897969D01*
X87675633Y-99894154D01*
X87675633Y-99894131D01*
X87670969Y-99887054D01*
X87658338Y-99870585D01*
X87639779Y-99847334D01*
X87621708Y-99825204D01*
X87533112Y-99706415D01*
X87459436Y-99583079D01*
X87400625Y-99455019D01*
X87356620Y-99322056D01*
X87327365Y-99184013D01*
X87312804Y-99040711D01*
X87312880Y-98891972D01*
X87314619Y-98861963D01*
X87318662Y-98809394D01*
X87323200Y-98770081D01*
X87328930Y-98741652D01*
X87336549Y-98721739D01*
X87346756Y-98707972D01*
X87360247Y-98697981D01*
X87363409Y-98696223D01*
X87386904Y-98691508D01*
X87409217Y-98700997D01*
X87421822Y-98714986D01*
X87427158Y-98726041D01*
X87429457Y-98740656D01*
X87428835Y-98762570D01*
X87425413Y-98795524D01*
X87424586Y-98802289D01*
X87421387Y-98840365D01*
X87419552Y-98889267D01*
X87419186Y-98944249D01*
X87420275Y-98997180D01*
X87432357Y-99140416D01*
X87458369Y-99276835D01*
X87498225Y-99406234D01*
X87551836Y-99528411D01*
X87619116Y-99643162D01*
X87699976Y-99750284D01*
X87782174Y-99837961D01*
X87871944Y-99914197D01*
X87969974Y-99977493D01*
X88075237Y-100027473D01*
X88186703Y-100063764D01*
X88303345Y-100085989D01*
X88424134Y-100093774D01*
X88480138Y-100092437D01*
X88595514Y-100079481D01*
X88707894Y-100052372D01*
X88818122Y-100010773D01*
X88927038Y-99954347D01*
X89035486Y-99882757D01*
X89071271Y-99855780D01*
X89158000Y-99779298D01*
X89237829Y-99690809D01*
X89308759Y-99593147D01*
X89368788Y-99489144D01*
X89415916Y-99381632D01*
X89425542Y-99354256D01*
X89444641Y-99293562D01*
X89459295Y-99237835D01*
X89470015Y-99183441D01*
X89477310Y-99126746D01*
X89481692Y-99064116D01*
X89483670Y-98991917D01*
X89483909Y-98938583D01*
X89483207Y-98865423D01*
X89481041Y-98804183D01*
X89476857Y-98751184D01*
X89470101Y-98702748D01*
X89460222Y-98655195D01*
X89446663Y-98604846D01*
X89428873Y-98548022D01*
X89422046Y-98527421D01*
X89372315Y-98402926D01*
X89308304Y-98282684D01*
X89231028Y-98167733D01*
X89141500Y-98059109D01*
X89040731Y-97957850D01*
X88929734Y-97864995D01*
X88809524Y-97781579D01*
X88681111Y-97708641D01*
X88574126Y-97658939D01*
X88415421Y-97600228D01*
X88253477Y-97556048D01*
X88089436Y-97526464D01*
X87924441Y-97511540D01*
X87759633Y-97511339D01*
X87596156Y-97525925D01*
X87435150Y-97555362D01*
X87312940Y-97588387D01*
X87173249Y-97639808D01*
X87039636Y-97705285D01*
X86912998Y-97784132D01*
X86794233Y-97875663D01*
X86684237Y-97979191D01*
X86583907Y-98094032D01*
X86500515Y-98209693D01*
X86425208Y-98338663D01*
X86363949Y-98473716D01*
X86316857Y-98613854D01*
X86284052Y-98758077D01*
X86265652Y-98905386D01*
X86261777Y-99054784D01*
X86014392Y-99054784D01*
X86014325Y-99052872D01*
X86015109Y-99014432D01*
X86017341Y-98967852D01*
X86020753Y-98916813D01*
X86025076Y-98864994D01*
X86030043Y-98816074D01*
X86035384Y-98773735D01*
X86039347Y-98749197D01*
X86060411Y-98650941D01*
X86087004Y-98551881D01*
X86118070Y-98454895D01*
X86152557Y-98362859D01*
X86189409Y-98278651D01*
X86227572Y-98205149D01*
X86254784Y-98161191D01*
X86274089Y-98130606D01*
X86293919Y-98096166D01*
X86302938Y-98079155D01*
X86334121Y-98026413D01*
X86378456Y-97965270D01*
X86435928Y-97895743D01*
X86506523Y-97817849D01*
X86510849Y-97813256D01*
X86593014Y-97730404D01*
X86673134Y-97658990D01*
X86755193Y-97596037D01*
X86843178Y-97538568D01*
X86941073Y-97483606D01*
X86976372Y-97465440D01*
X87128266Y-97397451D01*
X87286124Y-97343551D01*
X87449053Y-97303789D01*
X87616158Y-97278215D01*
X87786545Y-97266877D01*
X87959319Y-97269824D01*
G37*
D11*
%TO.C,R8*%
X99953641Y-103120000D02*
X99646359Y-103120000D01*
X99953641Y-103880000D02*
X99646359Y-103880000D01*
%TO.C,C9*%
X148253156Y-103857618D02*
X150853156Y-103857616D01*
X150853156Y-102257614D02*
X148253156Y-102257616D01*
X148253156Y-103857618D02*
G75*
G02*
X148253156Y-102257616I840224J800001D01*
G01*
X150853156Y-102257614D02*
G75*
G02*
X150853156Y-103857616I-840224J-800001D01*
G01*
D10*
%TO.C,U6*%
X123740000Y-80648000D02*
X123915000Y-80648000D01*
X123740000Y-81598000D02*
X123740000Y-89598000D01*
X123740000Y-81598000D02*
X123915000Y-81598000D01*
X123740000Y-89598000D02*
X123915000Y-89598000D01*
X123752500Y-90548000D02*
X123927500Y-90548000D01*
X125015000Y-80648000D02*
X125340000Y-80648000D01*
X125015000Y-81598000D02*
X125340000Y-81598000D01*
X125015000Y-89598000D02*
X125340000Y-89598000D01*
X125027500Y-90548000D02*
X125352500Y-90548000D01*
X125515000Y-87598000D02*
X125715000Y-85998000D01*
X125705625Y-87826125D02*
X125540000Y-87623000D01*
X125715000Y-85998000D02*
X126015000Y-85673000D01*
X125765000Y-87948000D02*
X125890000Y-88098000D01*
X125815000Y-85173000D02*
X126040000Y-83348000D01*
X125890000Y-88098000D02*
X128140000Y-88098000D01*
X126005625Y-85551125D02*
X125815000Y-85173000D01*
X126015000Y-85673000D02*
X126215000Y-86048000D01*
X126024375Y-87419875D02*
X125705625Y-87826125D01*
X126027500Y-87410500D02*
X126215000Y-86048000D01*
X126040000Y-83348000D02*
X126171250Y-83229250D01*
X126040000Y-85498000D02*
X126165000Y-85348000D01*
X126040000Y-87623000D02*
X125765000Y-87948000D01*
X126165000Y-85598000D02*
X126440000Y-85248000D01*
X126315000Y-83098000D02*
X126440000Y-82948000D01*
X126315000Y-85823000D02*
X126165000Y-85598000D01*
X126324375Y-85144875D02*
X126005625Y-85551125D01*
X126327500Y-85135500D02*
X126552500Y-83610500D01*
X126440000Y-82948000D02*
X128690000Y-82948000D01*
X126440000Y-85248000D02*
X128265000Y-85248000D01*
X126465000Y-80648000D02*
X126790000Y-80648000D01*
X126465000Y-81598000D02*
X126790000Y-81598000D01*
X126465000Y-89598000D02*
X126790000Y-89598000D01*
X126477500Y-90548000D02*
X126802500Y-90548000D01*
X126552500Y-83610500D02*
X126171250Y-83229250D01*
X126590000Y-83423000D02*
X126315000Y-83098000D01*
X127890000Y-80648000D02*
X128215000Y-80648000D01*
X127890000Y-81598000D02*
X128215000Y-81598000D01*
X127890000Y-89598000D02*
X128215000Y-89598000D01*
X127902500Y-90548000D02*
X128227500Y-90548000D01*
X127965000Y-87623000D02*
X126040000Y-87623000D01*
X128065000Y-87498000D02*
X128365000Y-87848000D01*
X128140000Y-88098000D02*
X128265000Y-87973000D01*
X128240000Y-85823000D02*
X126315000Y-85823000D01*
X128265000Y-85248000D02*
X128452500Y-85585500D01*
X128265000Y-87973000D02*
X127965000Y-87623000D01*
X128277500Y-86010500D02*
X128065000Y-87498000D01*
X128277500Y-86010500D02*
X128565000Y-85673000D01*
X128365000Y-85098000D02*
X128590000Y-85498000D01*
X128371250Y-87854250D02*
X128577500Y-87660500D01*
X128452500Y-85585500D02*
X128240000Y-85823000D01*
X128515000Y-83423000D02*
X126590000Y-83423000D01*
X128565000Y-85673000D02*
X128790000Y-85998000D01*
X128590000Y-83573000D02*
X128365000Y-85098000D01*
X128590000Y-85498000D02*
X128890000Y-85223000D01*
X128690000Y-82948000D02*
X128815000Y-83073000D01*
X128790000Y-85998000D02*
X128577500Y-87660500D01*
X128815000Y-83073000D02*
X128515000Y-83423000D01*
X128890000Y-85223000D02*
X129115000Y-83348000D01*
X128915000Y-83173000D02*
X128590000Y-83573000D01*
X128915000Y-83173000D02*
X129115000Y-83348000D01*
X129340000Y-80648000D02*
X129665000Y-80648000D01*
X129340000Y-81598000D02*
X129665000Y-81598000D01*
X129340000Y-89598000D02*
X129665000Y-89598000D01*
X129352500Y-90548000D02*
X129677500Y-90548000D01*
X130740000Y-80648000D02*
X130915000Y-80648000D01*
X130740000Y-89598000D02*
X130915000Y-89598000D01*
X130752500Y-90548000D02*
X130927500Y-90548000D01*
X130765000Y-81598000D02*
X130915000Y-81598000D01*
X130915000Y-81598000D02*
X130915000Y-89598000D01*
X124616556Y-91173000D02*
G75*
G02*
X124213444Y-91173000I-201556J0D01*
G01*
X124213444Y-91173000D02*
G75*
G02*
X124616556Y-91173000I201556J0D01*
G01*
X129916040Y-87873000D02*
G75*
G02*
X129313960Y-87873000I-301040J0D01*
G01*
X129313960Y-87873000D02*
G75*
G02*
X129916040Y-87873000I301040J0D01*
G01*
D11*
%TO.C,R29*%
X142254343Y-99260179D02*
X142254343Y-102260179D01*
X142254343Y-102260179D02*
X143854343Y-102260179D01*
X143854343Y-99260179D02*
X142254343Y-99260179D01*
X143854343Y-102260179D02*
X143854343Y-99260179D01*
%TO.C,C6*%
X190599998Y-102550000D02*
X190600000Y-105150000D01*
X192200002Y-105150000D02*
X192200000Y-102550000D01*
X190599998Y-102550000D02*
G75*
G02*
X192200000Y-102550000I800001J-840224D01*
G01*
X192200002Y-105150000D02*
G75*
G02*
X190600000Y-105150000I-800001J840224D01*
G01*
%TO.C,R24*%
X140636843Y-99260179D02*
X140636843Y-102260179D01*
X140636843Y-102260179D02*
X142236843Y-102260179D01*
X142236843Y-99260179D02*
X140636843Y-99260179D01*
X142236843Y-102260179D02*
X142236843Y-99260179D01*
%TD*%
D17*
X80276000Y-83311999D03*
X80276000Y-97311999D03*
X199550000Y-81250000D03*
X191550000Y-81250000D03*
M02*
