%TF.GenerationSoftware,KiCad,Pcbnew,8.0.4*%
%TF.CreationDate,2024-11-23T17:51:10-05:00*%
%TF.ProjectId,Ruler_PowerCouple,52756c65-725f-4506-9f77-6572436f7570,rev?*%
%TF.SameCoordinates,Original*%
%TF.FileFunction,Soldermask,Top*%
%TF.FilePolarity,Negative*%
%FSLAX46Y46*%
G04 Gerber Fmt 4.6, Leading zero omitted, Abs format (unit mm)*
G04 Created by KiCad (PCBNEW 8.0.4) date 2024-11-23 17:51:10*
%MOMM*%
%LPD*%
G01*
G04 APERTURE LIST*
G04 Aperture macros list*
%AMRoundRect*
0 Rectangle with rounded corners*
0 $1 Rounding radius*
0 $2 $3 $4 $5 $6 $7 $8 $9 X,Y pos of 4 corners*
0 Add a 4 corners polygon primitive as box body*
4,1,4,$2,$3,$4,$5,$6,$7,$8,$9,$2,$3,0*
0 Add four circle primitives for the rounded corners*
1,1,$1+$1,$2,$3*
1,1,$1+$1,$4,$5*
1,1,$1+$1,$6,$7*
1,1,$1+$1,$8,$9*
0 Add four rect primitives between the rounded corners*
20,1,$1+$1,$2,$3,$4,$5,0*
20,1,$1+$1,$4,$5,$6,$7,0*
20,1,$1+$1,$6,$7,$8,$9,0*
20,1,$1+$1,$8,$9,$2,$3,0*%
%AMRotRect*
0 Rectangle, with rotation*
0 The origin of the aperture is its center*
0 $1 length*
0 $2 width*
0 $3 Rotation angle, in degrees counterclockwise*
0 Add horizontal line*
21,1,$1,$2,0,0,$3*%
%AMFreePoly0*
4,1,19,0.500000,-0.750000,0.000000,-0.750000,0.000000,-0.744911,-0.071157,-0.744911,-0.207708,-0.704816,-0.327430,-0.627875,-0.420627,-0.520320,-0.479746,-0.390866,-0.500000,-0.250000,-0.500000,0.250000,-0.479746,0.390866,-0.420627,0.520320,-0.327430,0.627875,-0.207708,0.704816,-0.071157,0.744911,0.000000,0.744911,0.000000,0.750000,0.500000,0.750000,0.500000,-0.750000,0.500000,-0.750000,
$1*%
%AMFreePoly1*
4,1,19,0.000000,0.744911,0.071157,0.744911,0.207708,0.704816,0.327430,0.627875,0.420627,0.520320,0.479746,0.390866,0.500000,0.250000,0.500000,-0.250000,0.479746,-0.390866,0.420627,-0.520320,0.327430,-0.627875,0.207708,-0.704816,0.071157,-0.744911,0.000000,-0.744911,0.000000,-0.750000,-0.500000,-0.750000,-0.500000,0.750000,0.000000,0.750000,0.000000,0.744911,0.000000,0.744911,
$1*%
G04 Aperture macros list end*
%ADD10C,0.010000*%
%ADD11RoundRect,0.200000X0.200000X0.275000X-0.200000X0.275000X-0.200000X-0.275000X0.200000X-0.275000X0*%
%ADD12R,1.000000X2.000000*%
%ADD13RoundRect,0.150000X-0.825000X-0.150000X0.825000X-0.150000X0.825000X0.150000X-0.825000X0.150000X0*%
%ADD14R,1.500000X1.500000*%
%ADD15RoundRect,0.250000X-0.936916X-1.290470X1.290470X0.936916X0.936916X1.290470X-1.290470X-0.936916X0*%
%ADD16FreePoly0,180.000000*%
%ADD17FreePoly1,180.000000*%
%ADD18RoundRect,0.125000X-0.825000X-0.125000X0.825000X-0.125000X0.825000X0.125000X-0.825000X0.125000X0*%
%ADD19RoundRect,0.135000X0.135000X0.185000X-0.135000X0.185000X-0.135000X-0.185000X0.135000X-0.185000X0*%
%ADD20RoundRect,0.225000X0.017678X-0.335876X0.335876X-0.017678X-0.017678X0.335876X-0.335876X0.017678X0*%
%ADD21RoundRect,0.200000X-0.275000X0.200000X-0.275000X-0.200000X0.275000X-0.200000X0.275000X0.200000X0*%
%ADD22RoundRect,0.225000X-0.225000X-0.375000X0.225000X-0.375000X0.225000X0.375000X-0.225000X0.375000X0*%
%ADD23RoundRect,0.200000X0.275000X-0.200000X0.275000X0.200000X-0.275000X0.200000X-0.275000X-0.200000X0*%
%ADD24RoundRect,0.250000X-0.375000X-0.625000X0.375000X-0.625000X0.375000X0.625000X-0.375000X0.625000X0*%
%ADD25RotRect,1.500000X0.550000X315.000000*%
%ADD26RotRect,0.550000X1.500000X315.000000*%
%ADD27RoundRect,0.225000X-0.225000X-0.250000X0.225000X-0.250000X0.225000X0.250000X-0.225000X0.250000X0*%
%ADD28C,1.000000*%
%ADD29RoundRect,0.375000X-0.375000X0.625000X-0.375000X-0.625000X0.375000X-0.625000X0.375000X0.625000X0*%
%ADD30RoundRect,0.375000X-0.625000X-0.375000X0.625000X-0.375000X0.625000X0.375000X-0.625000X0.375000X0*%
%ADD31RoundRect,1.687500X2.087500X1.687500X-2.087500X1.687500X-2.087500X-1.687500X2.087500X-1.687500X0*%
%ADD32RoundRect,0.225000X-0.335876X-0.017678X-0.017678X-0.335876X0.335876X0.017678X0.017678X0.335876X0*%
%ADD33RoundRect,0.250000X-0.250000X-0.475000X0.250000X-0.475000X0.250000X0.475000X-0.250000X0.475000X0*%
%ADD34RoundRect,0.225000X0.225000X0.250000X-0.225000X0.250000X-0.225000X-0.250000X0.225000X-0.250000X0*%
%ADD35RoundRect,0.225000X0.375000X-0.225000X0.375000X0.225000X-0.375000X0.225000X-0.375000X-0.225000X0*%
%ADD36RoundRect,0.200000X0.053033X-0.335876X0.335876X-0.053033X-0.053033X0.335876X-0.335876X0.053033X0*%
%ADD37R,1.399540X2.799080*%
%ADD38R,0.900000X2.000000*%
%ADD39RoundRect,0.312500X1.687500X-0.312500X1.687500X0.312500X-1.687500X0.312500X-1.687500X-0.312500X0*%
%ADD40RoundRect,0.275000X1.725000X-0.275000X1.725000X0.275000X-1.725000X0.275000X-1.725000X-0.275000X0*%
%ADD41RoundRect,0.225000X-0.250000X0.225000X-0.250000X-0.225000X0.250000X-0.225000X0.250000X0.225000X0*%
%ADD42RoundRect,0.102000X-1.575000X0.500000X-1.575000X-0.500000X1.575000X-0.500000X1.575000X0.500000X0*%
%ADD43RoundRect,0.200000X-0.053033X0.335876X-0.335876X0.053033X0.053033X-0.335876X0.335876X-0.053033X0*%
%ADD44R,0.700000X1.600000*%
%ADD45R,1.200000X1.500000*%
%ADD46R,1.200000X2.200000*%
%ADD47R,1.600000X1.500000*%
%ADD48RoundRect,0.225000X0.250000X-0.225000X0.250000X0.225000X-0.250000X0.225000X-0.250000X-0.225000X0*%
G04 APERTURE END LIST*
D10*
%TO.C,U11*%
X185125000Y-101175000D02*
X184550000Y-101175000D01*
X184550000Y-100825000D01*
X185125000Y-100825000D01*
X185125000Y-101175000D01*
G36*
X185125000Y-101175000D02*
G01*
X184550000Y-101175000D01*
X184550000Y-100825000D01*
X185125000Y-100825000D01*
X185125000Y-101175000D01*
G37*
X185125000Y-101675000D02*
X184550000Y-101675000D01*
X184550000Y-101325000D01*
X185125000Y-101325000D01*
X185125000Y-101675000D01*
G36*
X185125000Y-101675000D02*
G01*
X184550000Y-101675000D01*
X184550000Y-101325000D01*
X185125000Y-101325000D01*
X185125000Y-101675000D01*
G37*
X185125000Y-102175000D02*
X184550000Y-102175000D01*
X184550000Y-101825000D01*
X185125000Y-101825000D01*
X185125000Y-102175000D01*
G36*
X185125000Y-102175000D02*
G01*
X184550000Y-102175000D01*
X184550000Y-101825000D01*
X185125000Y-101825000D01*
X185125000Y-102175000D01*
G37*
X185125000Y-102675000D02*
X184550000Y-102675000D01*
X184550000Y-102325000D01*
X185125000Y-102325000D01*
X185125000Y-102675000D01*
G36*
X185125000Y-102675000D02*
G01*
X184550000Y-102675000D01*
X184550000Y-102325000D01*
X185125000Y-102325000D01*
X185125000Y-102675000D01*
G37*
X185675000Y-101125000D02*
X185325000Y-101125000D01*
X185325000Y-100550000D01*
X185675000Y-100550000D01*
X185675000Y-101125000D01*
G36*
X185675000Y-101125000D02*
G01*
X185325000Y-101125000D01*
X185325000Y-100550000D01*
X185675000Y-100550000D01*
X185675000Y-101125000D01*
G37*
X185675000Y-102950000D02*
X185325000Y-102950000D01*
X185325000Y-102375000D01*
X185675000Y-102375000D01*
X185675000Y-102950000D01*
G36*
X185675000Y-102950000D02*
G01*
X185325000Y-102950000D01*
X185325000Y-102375000D01*
X185675000Y-102375000D01*
X185675000Y-102950000D01*
G37*
X186175000Y-101125000D02*
X185825000Y-101125000D01*
X185825000Y-100550000D01*
X186175000Y-100550000D01*
X186175000Y-101125000D01*
G36*
X186175000Y-101125000D02*
G01*
X185825000Y-101125000D01*
X185825000Y-100550000D01*
X186175000Y-100550000D01*
X186175000Y-101125000D01*
G37*
X186175000Y-102950000D02*
X185825000Y-102950000D01*
X185825000Y-102375000D01*
X186175000Y-102375000D01*
X186175000Y-102950000D01*
G36*
X186175000Y-102950000D02*
G01*
X185825000Y-102950000D01*
X185825000Y-102375000D01*
X186175000Y-102375000D01*
X186175000Y-102950000D01*
G37*
X186675000Y-101125000D02*
X186325000Y-101125000D01*
X186325000Y-100550000D01*
X186675000Y-100550000D01*
X186675000Y-101125000D01*
G36*
X186675000Y-101125000D02*
G01*
X186325000Y-101125000D01*
X186325000Y-100550000D01*
X186675000Y-100550000D01*
X186675000Y-101125000D01*
G37*
X186675000Y-102950000D02*
X186325000Y-102950000D01*
X186325000Y-102375000D01*
X186675000Y-102375000D01*
X186675000Y-102950000D01*
G36*
X186675000Y-102950000D02*
G01*
X186325000Y-102950000D01*
X186325000Y-102375000D01*
X186675000Y-102375000D01*
X186675000Y-102950000D01*
G37*
X187450000Y-101175000D02*
X186875000Y-101175000D01*
X186875000Y-100825000D01*
X187450000Y-100825000D01*
X187450000Y-101175000D01*
G36*
X187450000Y-101175000D02*
G01*
X186875000Y-101175000D01*
X186875000Y-100825000D01*
X187450000Y-100825000D01*
X187450000Y-101175000D01*
G37*
X187450000Y-101675000D02*
X186875000Y-101675000D01*
X186875000Y-101325000D01*
X187450000Y-101325000D01*
X187450000Y-101675000D01*
G36*
X187450000Y-101675000D02*
G01*
X186875000Y-101675000D01*
X186875000Y-101325000D01*
X187450000Y-101325000D01*
X187450000Y-101675000D01*
G37*
X187450000Y-102175000D02*
X186875000Y-102175000D01*
X186875000Y-101825000D01*
X187450000Y-101825000D01*
X187450000Y-102175000D01*
G36*
X187450000Y-102175000D02*
G01*
X186875000Y-102175000D01*
X186875000Y-101825000D01*
X187450000Y-101825000D01*
X187450000Y-102175000D01*
G37*
X187450000Y-102675000D02*
X186875000Y-102675000D01*
X186875000Y-102325000D01*
X187450000Y-102325000D01*
X187450000Y-102675000D01*
G36*
X187450000Y-102675000D02*
G01*
X186875000Y-102675000D01*
X186875000Y-102325000D01*
X187450000Y-102325000D01*
X187450000Y-102675000D01*
G37*
%TD*%
D11*
%TO.C,R17*%
X80825000Y-102000000D03*
X79175000Y-102000000D03*
%TD*%
D12*
%TO.C,SW3*%
X177900000Y-99500000D03*
X175900000Y-99500000D03*
X173900000Y-99500000D03*
X173900000Y-105500000D03*
X175900000Y-105500000D03*
X177900000Y-105500000D03*
%TD*%
D13*
%TO.C,U1*%
X94553000Y-93190000D03*
X94553000Y-94460000D03*
X94553000Y-95730000D03*
X94553000Y-97000000D03*
X94553000Y-98270000D03*
X94553000Y-99540000D03*
X94553000Y-100810000D03*
X94553000Y-102080000D03*
X99503000Y-102080000D03*
X99503000Y-100810000D03*
X99503000Y-99540000D03*
X99503000Y-98270000D03*
X99503000Y-97000000D03*
X99503000Y-95730000D03*
X99503000Y-94460000D03*
X99503000Y-93190000D03*
%TD*%
D14*
%TO.C,SW8*%
X106991000Y-97285000D03*
X106991000Y-92915000D03*
%TD*%
D15*
%TO.C,Y1*%
X203242640Y-95257360D03*
X199000000Y-99500000D03*
%TD*%
D16*
%TO.C,JP1*%
X161197799Y-102842972D03*
D17*
X159897801Y-102842972D03*
%TD*%
D18*
%TO.C,U8*%
X207000000Y-83750000D03*
X207000000Y-84400000D03*
X207000000Y-85050000D03*
X207000000Y-85700000D03*
X207000000Y-86350000D03*
X207000000Y-87000000D03*
X207000000Y-87650000D03*
X207000000Y-88300000D03*
X207000000Y-88950000D03*
X207000000Y-89600000D03*
X214000000Y-89600000D03*
X214000000Y-88950000D03*
X214000000Y-88300000D03*
X214000000Y-87650000D03*
X214000000Y-87000000D03*
X214000000Y-86350000D03*
X214000000Y-85700000D03*
X214000000Y-85050000D03*
X214000000Y-84400000D03*
X214000000Y-83750000D03*
%TD*%
D19*
%TO.C,R6*%
X92534999Y-100804165D03*
X91515001Y-100804165D03*
%TD*%
%TO.C,R3*%
X92534999Y-95720833D03*
X91515001Y-95720833D03*
%TD*%
%TO.C,R1*%
X92534999Y-96991666D03*
X91515001Y-96991666D03*
%TD*%
D20*
%TO.C,C2*%
X197051992Y-97148008D03*
X198148008Y-96051992D03*
%TD*%
D14*
%TO.C,SW6*%
X115491000Y-97285000D03*
X115491000Y-92915000D03*
%TD*%
D21*
%TO.C,R23*%
X137844468Y-99930053D03*
X137844468Y-101580053D03*
%TD*%
D22*
%TO.C,D1*%
X166497801Y-102842972D03*
X169797801Y-102842972D03*
%TD*%
D21*
%TO.C,R22*%
X145078458Y-99934813D03*
X145078458Y-101584813D03*
%TD*%
D23*
%TO.C,R26*%
X153924923Y-101595417D03*
X153924923Y-99945417D03*
%TD*%
D24*
%TO.C,F1*%
X166747802Y-100442972D03*
X169547800Y-100442972D03*
%TD*%
D21*
%TO.C,R18*%
X155970227Y-99928221D03*
X155970227Y-101578221D03*
%TD*%
D25*
%TO.C,U9*%
X206510051Y-96550253D03*
X205944365Y-97115938D03*
X205378680Y-97681623D03*
X204812994Y-98247309D03*
X204247309Y-98812994D03*
X203681623Y-99378680D03*
X203115938Y-99944365D03*
X202550253Y-100510051D03*
D26*
X202550253Y-102489949D03*
X203115938Y-103055635D03*
X203681623Y-103621320D03*
X204247309Y-104187006D03*
X204812994Y-104752691D03*
X205378680Y-105318377D03*
X205944365Y-105884062D03*
X206510051Y-106449747D03*
D25*
X208489949Y-106449747D03*
X209055635Y-105884062D03*
X209621320Y-105318377D03*
X210187006Y-104752691D03*
X210752691Y-104187006D03*
X211318377Y-103621320D03*
X211884062Y-103055635D03*
X212449747Y-102489949D03*
D26*
X212449747Y-100510051D03*
X211884062Y-99944365D03*
X211318377Y-99378680D03*
X210752691Y-98812994D03*
X210187006Y-98247309D03*
X209621320Y-97681623D03*
X209055635Y-97115938D03*
X208489949Y-96550253D03*
%TD*%
D14*
%TO.C,SW4*%
X123932000Y-97285000D03*
X123932000Y-92915000D03*
%TD*%
D27*
%TO.C,C4*%
X185775000Y-104650000D03*
X187325000Y-104650000D03*
%TD*%
D14*
%TO.C,SW5*%
X119741000Y-97285000D03*
X119741000Y-92915000D03*
%TD*%
D19*
%TO.C,R7*%
X92534999Y-102075000D03*
X91515001Y-102075000D03*
%TD*%
D28*
%TO.C,U10*%
X80276000Y-83311999D03*
X80276000Y-97311999D03*
D29*
X91026000Y-90311999D03*
X71026000Y-90311999D03*
D30*
X80276000Y-81061999D03*
X80276000Y-99561999D03*
%TD*%
D11*
%TO.C,R10*%
X218575000Y-86000000D03*
X216925000Y-86000000D03*
%TD*%
D21*
%TO.C,R20*%
X148703156Y-99932616D03*
X148703156Y-101582616D03*
%TD*%
%TO.C,R19*%
X152324922Y-99935419D03*
X152324922Y-101585419D03*
%TD*%
D27*
%TO.C,C16*%
X208725000Y-81750000D03*
X210275000Y-81750000D03*
%TD*%
D14*
%TO.C,SW7*%
X111241000Y-97285000D03*
X111241000Y-92915000D03*
%TD*%
D21*
%TO.C,R16*%
X87750000Y-81675000D03*
X87750000Y-83325000D03*
%TD*%
D31*
%TO.C,BT1*%
X181225001Y-89000000D03*
X135774999Y-89000000D03*
%TD*%
D19*
%TO.C,R5*%
X92534999Y-99533332D03*
X91515001Y-99533332D03*
%TD*%
D32*
%TO.C,C3*%
X196451992Y-100951992D03*
X197548008Y-102048008D03*
%TD*%
D33*
%TO.C,C1*%
X159597801Y-100337970D03*
X161497799Y-100337970D03*
%TD*%
D34*
%TO.C,C7*%
X157552727Y-103058399D03*
X156002727Y-103058399D03*
%TD*%
%TO.C,C10*%
X146718459Y-103059813D03*
X145168459Y-103059813D03*
%TD*%
D35*
%TO.C,D2*%
X164497800Y-103282974D03*
X164497800Y-99982974D03*
%TD*%
D23*
%TO.C,R11*%
X204750000Y-85575000D03*
X204750000Y-83925000D03*
%TD*%
D36*
%TO.C,R13*%
X210833274Y-95497577D03*
X212000000Y-94330851D03*
%TD*%
D37*
%TO.C,SW2*%
X128250000Y-97900000D03*
X130750000Y-92900000D03*
X133250000Y-97900000D03*
%TD*%
D21*
%TO.C,R14*%
X184800000Y-95875000D03*
X184800000Y-97525000D03*
%TD*%
D38*
%TO.C,U4*%
X109642000Y-89598000D03*
X111082000Y-89598000D03*
X112522000Y-89598000D03*
X113962000Y-89598000D03*
X115402000Y-89598000D03*
X115402000Y-81598000D03*
X113962000Y-81598000D03*
X112522000Y-81598000D03*
X111082000Y-81598000D03*
X109642000Y-81598000D03*
%TD*%
D23*
%TO.C,R30*%
X139426969Y-101580053D03*
X139426969Y-99930053D03*
%TD*%
%TO.C,R38*%
X204750000Y-88825000D03*
X204750000Y-87175000D03*
%TD*%
D14*
%TO.C,SW9*%
X102800000Y-97285000D03*
X102800000Y-92915000D03*
%TD*%
D39*
%TO.C,U7*%
X222500000Y-83650000D03*
D40*
X222500000Y-85650000D03*
X222500000Y-87250000D03*
D39*
X222500000Y-89250000D03*
%TD*%
D11*
%TO.C,R9*%
X218575000Y-84250000D03*
X216925000Y-84250000D03*
%TD*%
%TO.C,R21*%
X128825000Y-92650000D03*
X127175000Y-92650000D03*
%TD*%
D41*
%TO.C,C5*%
X189550000Y-103075000D03*
X189550000Y-104625000D03*
%TD*%
D19*
%TO.C,R4*%
X92534999Y-98262499D03*
X91515001Y-98262499D03*
%TD*%
D42*
%TO.C,J1*%
X217725000Y-95460000D03*
X222775000Y-95460000D03*
X217725000Y-98000000D03*
X222775000Y-98000000D03*
X217725000Y-100540000D03*
X222775000Y-100540000D03*
%TD*%
D21*
%TO.C,R40*%
X190500000Y-94975000D03*
X190500000Y-96625000D03*
%TD*%
D23*
%TO.C,R25*%
X157552726Y-101583399D03*
X157552726Y-99933399D03*
%TD*%
D34*
%TO.C,C12*%
X139476969Y-103055052D03*
X137926969Y-103055052D03*
%TD*%
%TO.C,C8*%
X153936387Y-103060419D03*
X152386387Y-103060419D03*
%TD*%
%TO.C,C11*%
X143104343Y-103060179D03*
X141554343Y-103060179D03*
%TD*%
D23*
%TO.C,R27*%
X150303156Y-101582616D03*
X150303156Y-99932616D03*
%TD*%
%TO.C,R28*%
X146693460Y-101584813D03*
X146693460Y-99934813D03*
%TD*%
D19*
%TO.C,R2*%
X92534999Y-94450000D03*
X91515001Y-94450000D03*
%TD*%
D21*
%TO.C,R39*%
X192400000Y-94975000D03*
X192400000Y-96625000D03*
%TD*%
D43*
%TO.C,R12*%
X210585787Y-92916637D03*
X209419061Y-94083363D03*
%TD*%
D28*
%TO.C,J2*%
X199550000Y-81250000D03*
X191550000Y-81250000D03*
D44*
X192360000Y-92250000D03*
X193450000Y-92250000D03*
X194550000Y-92250000D03*
X195650000Y-92250000D03*
X196750000Y-92250000D03*
X197850000Y-92250000D03*
X198950000Y-92250000D03*
X200050000Y-92250000D03*
X201150000Y-92250000D03*
D45*
X202350000Y-91250000D03*
D46*
X202350000Y-81650000D03*
X186850000Y-81650000D03*
D47*
X187750000Y-91250000D03*
%TD*%
D38*
%TO.C,U2*%
X94910000Y-89598000D03*
X96350000Y-89598000D03*
X97790000Y-89598000D03*
X99230000Y-89598000D03*
X100670000Y-89598000D03*
X100670000Y-81598000D03*
X99230000Y-81598000D03*
X97790000Y-81598000D03*
X96350000Y-81598000D03*
X94910000Y-81598000D03*
%TD*%
D20*
%TO.C,C15*%
X213231992Y-104918008D03*
X214328008Y-103821992D03*
%TD*%
D21*
%TO.C,R15*%
X186700000Y-95875000D03*
X186700000Y-97525000D03*
%TD*%
D38*
%TO.C,U3*%
X102276000Y-89598000D03*
X103716000Y-89598000D03*
X105156000Y-89598000D03*
X106596000Y-89598000D03*
X108036000Y-89598000D03*
X108036000Y-81598000D03*
X106596000Y-81598000D03*
X105156000Y-81598000D03*
X103716000Y-81598000D03*
X102276000Y-81598000D03*
%TD*%
%TO.C,U5*%
X117094000Y-89598000D03*
X118534000Y-89598000D03*
X119974000Y-89598000D03*
X121414000Y-89598000D03*
X122854000Y-89598000D03*
X122854000Y-81598000D03*
X121414000Y-81598000D03*
X119974000Y-81598000D03*
X118534000Y-81598000D03*
X117094000Y-81598000D03*
%TD*%
D19*
%TO.C,R8*%
X100309999Y-103500000D03*
X99290001Y-103500000D03*
%TD*%
D34*
%TO.C,C9*%
X150328156Y-103057616D03*
X148778156Y-103057616D03*
%TD*%
D38*
%TO.C,U6*%
X124460000Y-89598000D03*
X125900000Y-89598000D03*
X127340000Y-89598000D03*
X128780000Y-89598000D03*
X130220000Y-89598000D03*
X130220000Y-81598000D03*
X128780000Y-81598000D03*
X127340000Y-81598000D03*
X125900000Y-81598000D03*
X124460000Y-81598000D03*
%TD*%
D23*
%TO.C,R29*%
X143054343Y-101585179D03*
X143054343Y-99935179D03*
%TD*%
D48*
%TO.C,C6*%
X191400000Y-104625000D03*
X191400000Y-103075000D03*
%TD*%
D21*
%TO.C,R24*%
X141436843Y-99935179D03*
X141436843Y-101585179D03*
%TD*%
M02*
